<?xml version="1.0" standalone="no"?>
<!DOCTYPE svg PUBLIC "-//W3C//DTD SVG 1.1//EN" "http://www.w3.org/Graphics/SVG/1.1/DTD/svg11.dtd" >
<svg xmlns="http://www.w3.org/2000/svg">
<metadata>
Created by FontPrep 20130207 at Mon Oct 20 17:10:06 2014
 By Jarvis
\251 2002 Letterhead Fonts, by Tom Kennedy
</metadata>
<defs>
<font id="98b709aba4c8a136078d53e6c7775b10" horiz-adv-x='1024' >
  <font-face 
    font-family="LHFEphemera-Swashes"
    font-weight="400"
    font-stretch="normal"
    units-per-em="2048"
    panose-1="2 0 0 0 0 0 0 0 0 0"
    ascent="1638"
    descent="-410"
    x-height="695"
    cap-height="735"
    bbox="4 -1065.48 5521.8 995"
    underline-thickness="36"
    underline-position="-227"
    unicode-range="U+0020-007E"
  />
<missing-glyph horiz-adv-x="2457" 
 />
    <glyph glyph-name=".notdef" horiz-adv-x="2457" 
 />
    <glyph glyph-name=".null" horiz-adv-x="0" 
 />
    <glyph glyph-name="nonmarkingreturn" horiz-adv-x="1024" 
 />
    <glyph glyph-name="space" unicode=" " horiz-adv-x="417" 
 />
    <glyph glyph-name="exclam" unicode="!" 
d="M2238 213q102 -1 193 27t145 71t95 99l75 100h-6q-93 18 -104 106q-9 49 9 67q17 17 32.5 12t3.5 -22t-15.5 -21.5t-7.5 -16.5q-14 -55 45 -94q47 -27 60.5 -6.5t27.5 16.5t15 -14v-9q-6 -18 -37 -18l-76 -109q-104 -149 -252 -217q-159 -78 -419 -78q-736 0 -1203 -194
q-12 10 -24.5 19t-56.5 39q-113 78 -299 148t-367 95h2166z" />
    <glyph glyph-name="quotedbl" unicode="&#x22;" horiz-adv-x="2902" 
d="M2261 213q102 -1 192 27q91 28 145 71t95 99l76 100h-6q-12 4 -23.5 7t-31.5 14q-43 24 -51 80t10 72q18 17 33.5 12t0.5 -26t-20 -34q-12 -57 47 -94q45 -30 58.5 -8t27.5 18t14 -14v-9q-6 -18 -37 -18l-75 -109q-104 -149 -252 -217q-159 -78 -419 -78q-259 0 -478 -24
q-437 -49 -725 -170q-12 10 -24.5 19t-56.5 39q-113 78 -298.5 148t-368.5 95h2167z" />
    <glyph glyph-name="numbersign" unicode="#" horiz-adv-x="3659" 
d="M2939 109q136 0 258 43q145 42 260 194l104 137q-70 0 -105.5 61.5t-30.5 99.5t21 53t33 9t4 -26t-17.5 -26.5t-8.5 -20.5q-18 -68 53 -113q35 -20 60 -10q12 2 21 15t25 7t17.5 -12t-1.5 -18t-44 -19l-104 -147q-96 -137 -237.5 -227.5t-309.5 -102.5l-2652 -180v6
q0 100 -63 178.5t-156 98.5h2873z" />
    <glyph glyph-name="dollar" unicode="$" horiz-adv-x="3434" 
d="M2695 117q124 0 234 33t174.5 86t115.5 118l109 144q-67 9 -100 66t-28.5 94.5t20.5 53.5t34 9t4 -27t-18 -25t-11 -31t8 -54.5t50 -48.5q50 -37 69.5 -10.5t37.5 21.5t18 -11.5t-2 -15.5q-4 -18 -57 -23l-105 -150q-120 -174 -307 -266q-123 -59 -254 -75.5t-336 -16.5
t-486 -30q-538 -58 -892 -206l-62 43q-363 246 -845 322h2629z" />
    <glyph glyph-name="percent" unicode="%" horiz-adv-x="3506" 
d="M3290 872q13 0 13 -10t-26 -55q-14 -56 49 -98q40 -26 68 2q10 10 26 8q14 -6 12 -25q-10 -16 -38 -18l-80 -115q-154 -223 -406 -270q-235 -44 -787 -48q-200 -1 -437 -3t-346 -15q-286 -36 -436 -150q-110 -87 -133 -157q-13 -39 -15 -86l-342 123l-373 -92
q11 186 200 317q152 107 379 156t472 49t671 -17t556 -19q130 -3 219 -5t232 4t283 47t240 174l78 107q-23 0 -57 20t-45 50q-10 30 -15 40q-6 53 17 78q8 8 21 8z" />
    <glyph glyph-name="ampersand" unicode="&#x26;" horiz-adv-x="3817" 
d="M3595 807q20 0 9 -29q-6 -4 -15 -25q-9 -20 -9 -34q0 -43 51 -76q23 -20 51 -10q4 0 16 11t27 9q16 -6 11 -24q-6 -16 -39 -19l-78 -114q-62 -90 -145 -144q-83 -55 -160.5 -74.5t-149.5 -24.5t-136.5 -5t-97.5 2l-177 12q-378 17 -773 8q-213 -8 -350.5 -67t-154.5 -148
q-308 111 -686 111q-379 0 -701 -125q10 78 110 167t260 135t357 65.5t418 17.5t438 -16.5t417 -34t326 -31.5q277 -26 487.5 -42t398 20t296.5 182l78 106q-18 0 -48 16t-41 28t-16 24t-7.5 22.5t-6.5 20.5q-4 55 19 78q8 8 21 8z" />
    <glyph glyph-name="quotesingle" unicode="'" horiz-adv-x="2805" 
d="M2189 213q288 0 432 197l76 100h-6q-95 18 -106 106q-4 52 12 68t31.5 11t3.5 -22t-15.5 -21.5t-7.5 -16.5q-14 -55 45 -94q45 -26 59.5 -6t28.5 16t15 -14v-9q-6 -18 -37 -18l-76 -109q-104 -149 -252 -217q-159 -78 -420 -78q-260 0 -478 -24q-439 -49 -726 -170
q-10 10 -23.5 19t-56.5 39q-109 77 -296.5 147.5t-368.5 95.5h2166z" />
    <glyph glyph-name="parenleft" unicode="(" horiz-adv-x="3608" 
d="M907 -53q-121 0 -294 2t-248 -26q-113 -42 -195 -169l-92 -137q-10 -14 -17.5 -11t-3.5 11l90 145q92 150 213 240q37 27 169 123t386 96h995q994 0 1125 5t190 30q130 56 197 154l78 114q-22 0 -56 18q-59 32 -69 99q-9 46 16 76q12 12 28.5 6.5t4.5 -23.5t-16 -23
t-10 -28q-13 -48 51 -90q46 -26 63 -6t31 16t14 -14v-10q-6 -14 -36 -19l-78 -125q-88 -147 -211 -239q-37 -29 -160 -122t-383 -93h-1782z" />
    <glyph glyph-name="parenright" unicode=")" 
d="M2238 213q102 -1 193 27t145 71t95 99l75 100h-6q-93 18 -104 106q-9 49 9 67q17 17 32.5 12t3.5 -22t-15.5 -21.5t-7.5 -16.5q-14 -55 45 -94q47 -27 60.5 -6.5t27.5 16.5t15 -14v-9q-6 -18 -37 -18l-76 -109q-104 -149 -252 -217q-159 -78 -419 -78q-736 0 -1203 -194
q-12 10 -24.5 19t-56.5 39q-113 78 -299 148t-367 95h2166z" />
    <glyph glyph-name="asterisk" unicode="*" horiz-adv-x="3506" 
d="M3290 872q13 0 13 -10t-26 -55q-14 -56 49 -98q40 -26 68 2q10 10 26 8q14 -6 12 -25q-10 -16 -38 -18l-80 -115q-154 -223 -406 -270q-235 -44 -787 -48q-200 -1 -437 -3t-346 -15q-286 -36 -436 -150q-110 -87 -133 -157q-13 -39 -15 -86l-342 123l-373 -92
q11 186 200 317q152 107 379 156t472 49t671 -17t556 -19q130 -3 219 -5t232 4t283 47t240 174l78 107q-23 0 -57 20t-45 50q-10 30 -15 40q-6 53 17 78q8 8 21 8z" />
    <glyph glyph-name="plus" unicode="+" horiz-adv-x="3227" 
d="M455 283h1988q184 1 311 37t226 169l78 107q-25 0 -54 16q-41 25 -60 81.5t15 88.5q7 10 21 10t14 -10t-5 -16t-10 -16.5t-13 -22.5q-2 -8 -3 -22q0 -41 52 -76q27 -18 51 -11q2 0 15 12t28 9q14 -6 12 -25q-8 -14 -39 -18l-78 -115q-106 -151 -268 -229
q-78 -37 -161 -52.5t-167 -25.5l-2334 -254q143 39 248 121q63 49 97 117.5t40 96.5t-4 28z" />
    <glyph glyph-name="comma" unicode="," horiz-adv-x="4083" 
d="M55 483h3236q174 0 305 38t232 171l78 105q-21 -1 -58 21t-47 52q-28 83 6 115q7 10 21 10t14 -10t-5 -16q-5 -7 -10 -17t-14 -22q-2 -8 -2 -23q0 -41 52 -76q29 -20 51 -10q2 -1 15 11t28 10q14 -6 12 -25q-6 -14 -39 -20l-78 -113q-162 -230 -429 -282
q-83 -15 -167 -25l-2334 -254q28 8 26 36q-2 29 -45 59t-141 54t-222 16q-124 -7 -191 12q-144 41 -238 139q-43 44 -56 44z" />
    <glyph glyph-name="hyphen" unicode="-" horiz-adv-x="2971" 
d="M2812 870q14 0 14 -10t-6 -18q-24 -25 -24 -63t40 -65t62 -18q8 0 17 12t26 9q14 -6 12 -25q-10 -16 -39 -18l-78 -115q-106 -151 -272 -231t-446 -80q-766 0 -1258 -203q-328 254 -788 315h2285q103 0 231 39t224 168l78 107q-25 0 -48 14q-52 31 -66 82q-3 10 -3 14
q-8 49 16 78q9 8 23 8z" />
    <glyph glyph-name="period" unicode="." horiz-adv-x="4534" 
d="M4266 891q14 0 14 -11t-6 -18t-22 -39q-2 -7 -2 -25q0 -36 51 -73q27 -18 51 -8q2 0 18 10q10 10 25 8q16 -6 12 -22q-8 -18 -39 -21l-77 -112q-112 -165 -269 -230q-344 -146 -1121.5 -191t-1476 -2.5t-1361.5 220.5l3666 2q186 0 313 39q128 39 224 168l78 106
q-32 0 -53 19q-54 37 -63 90t18 80q6 10 20 10z" />
    <glyph glyph-name="slash" unicode="/" horiz-adv-x="5701" 
d="M5394 964q0 -11 -6 -18t-22 -39q-2 -7 -2 -25q0 -36 51 -73q27 -18 51 -8q2 0 19 10q10 10 24 8q16 -6 12 -22q-8 -18 -39 -21l-79 -112q-113 -167 -267 -230q-196 -81 -585 -135l-4404 -143l1031 305l3666 2q185 0 310 39q126 39 226 168l78 106q-46 0 -81.5 41
t-35.5 72q-9 47 9 67t31 19q13 0 13 -11z" />
    <glyph glyph-name="zero" unicode="0" horiz-adv-x="2805" 
d="M2189 213q288 0 432 197l76 100h-6q-95 18 -106 106q-4 52 12 68t31.5 11t3.5 -22t-15.5 -21.5t-7.5 -16.5q-14 -55 45 -94q45 -26 59.5 -6t28.5 16t15 -14v-9q-6 -18 -37 -18l-76 -109q-104 -149 -252 -217q-159 -78 -420 -78q-260 0 -478 -24q-439 -49 -726 -170
q-10 10 -23.5 19t-56.5 39q-109 77 -296.5 147.5t-368.5 95.5h2166z" />
    <glyph glyph-name="one" unicode="1" horiz-adv-x="3608" 
d="M907 -53q-121 0 -294 2t-248 -26q-113 -42 -195 -169l-92 -137q-10 -14 -17.5 -11t-3.5 11l90 145q92 150 213 240q37 27 169 123t386 96h995q994 0 1125 5t190 30q130 56 197 154l78 114q-22 0 -56 18q-59 32 -69 99q-9 46 16 76q12 12 28.5 6.5t4.5 -23.5t-16 -23
t-10 -28q-13 -48 51 -90q46 -26 63 -6t31 16t14 -14v-10q-6 -14 -36 -19l-78 -125q-88 -147 -211 -239q-37 -29 -160 -122t-383 -93h-1782z" />
    <glyph glyph-name="two" unicode="2" 
d="M2238 213q102 -1 193 27t145 71t95 99l75 100h-6q-93 18 -104 106q-9 49 9 67q17 17 32.5 12t3.5 -22t-15.5 -21.5t-7.5 -16.5q-14 -55 45 -94q47 -27 60.5 -6.5t27.5 16.5t15 -14v-9q-6 -18 -37 -18l-76 -109q-104 -149 -252 -217q-159 -78 -419 -78q-736 0 -1203 -194
q-12 10 -24.5 19t-56.5 39q-113 78 -299 148t-367 95h2166z" />
    <glyph glyph-name="three" unicode="3" horiz-adv-x="2902" 
d="M2261 213q102 -1 192 27q91 28 145 71t95 99l76 100h-6q-12 4 -23.5 7t-31.5 14q-43 24 -51 80t10 72q18 17 33.5 12t0.5 -26t-20 -34q-12 -57 47 -94q45 -30 58.5 -8t27.5 18t14 -14v-9q-6 -18 -37 -18l-75 -109q-104 -149 -252 -217q-159 -78 -419 -78q-259 0 -478 -24
q-437 -49 -725 -170q-12 10 -24.5 19t-56.5 39q-113 78 -298.5 148t-368.5 95h2167z" />
    <glyph glyph-name="four" unicode="4" horiz-adv-x="3659" 
d="M2939 109q136 0 258 43q145 42 260 194l104 137q-70 0 -105.5 61.5t-30.5 99.5t21 53t33 9t4 -26t-17.5 -26.5t-8.5 -20.5q-18 -68 53 -113q35 -20 60 -10q12 2 21 15t25 7t17.5 -12t-1.5 -18t-44 -19l-104 -147q-96 -137 -237.5 -227.5t-309.5 -102.5l-2652 -180v6
q0 100 -63 178.5t-156 98.5h2873z" />
    <glyph glyph-name="five" unicode="5" horiz-adv-x="3434" 
d="M2695 117q124 0 234 33t174.5 86t115.5 118l109 144q-67 9 -100 66t-28.5 94.5t20.5 53.5t34 9t4 -27t-18 -25t-11 -31t8 -54.5t50 -48.5q50 -37 69.5 -10.5t37.5 21.5t18 -11.5t-2 -15.5q-4 -18 -57 -23l-105 -150q-120 -174 -307 -266q-123 -59 -254 -75.5t-336 -16.5
t-486 -30q-538 -58 -892 -206l-62 43q-363 246 -845 322h2629z" />
    <glyph glyph-name="six" unicode="6" horiz-adv-x="2121" 
d="M29 174h-11q176 92 319 108q143 17 232.5 19t196 -1t248 -10t359.5 -11t368.5 38.5t206.5 114.5l84 113h-7q-73 23 -85 87q-7 36 14 60q10 10 21.5 5t1.5 -19t-17 -31q-6 -48 28 -69t46 -17t18 12.5t18 4.5t8 -16q-3 -11 -10.5 -13t-15.5 -4l-84 -121
q-105 -146 -283.5 -173t-359.5 -33.5t-279 -18.5q-184 -23 -322 -96.5t-202 -233.5q-82 132 -218.5 218.5t-274.5 86.5z" />
    <glyph glyph-name="seven" unicode="7" horiz-adv-x="3631" 
d="M2939 109q136 0 258 43q145 42 260 194l104 137q-70 0 -105.5 61.5t-30.5 99.5t21 53t33 9t4 -26t-17.5 -26.5t-8.5 -20.5q-18 -68 53 -113q35 -20 60 -10q12 2 21 15t25 7t17.5 -12t-1.5 -18t-44 -19l-104 -147q-96 -137 -237.5 -227.5t-309.5 -102.5l-2652 -180v6
q0 100 -63 178.5t-156 98.5h2873z" />
    <glyph glyph-name="eight" unicode="8" horiz-adv-x="2942" 
d="M86 -289q24 90 110 208q86 117 244 183t318 84t337 18q178 0 463 -22q285 -23 473 -22q187 0 298 6t188 30q142 45 254 191l100 131h-10q-91 19 -108 113q-10 50 8 68q19 18 35 13q16 -6 4 -24t-16 -21t-6 -22q-3 -19 7 -47t39 -47q29 -18 45 -12q15 6 23 17t22 6t15 -15
v-8q-8 -18 -31 -19l-100 -143q-111 -160 -265 -266q-239 -155 -627 -197t-884 31q-260 37 -452 6t-308 -109q-176 -117 -172 -293q9 -117 82 -217q18 -28 7 -24t-34 34q-113 148 -59 369z" />
    <glyph glyph-name="nine" unicode="9" horiz-adv-x="2957" 
d="M2900 547v-8q-8 -18 -31 -19l-100 -143q-111 -163 -266 -266q-233 -155 -624 -197q-390 -42 -886 31q-260 37 -451 6t-293 -99q-196 -130 -188 -303q4 -106 80 -217q19 -28 9 -24t-33 34q-114 149 -60 369q23 90 97 191q100 134 258 200t318 84t337 18q178 0 463 -22
t471 -22q187 0 296 6t189 30q147 45 256 191l101 131h-11q-93 19 -110 113q-9 47 9 66q19 20 35 15q16 -6 5 -24q-12 -18 -15 -21t-8 -18q-6 -65 48 -98q31 -18 49 -8q12 2 19 13q8 11 22 6t14 -15z" />
    <glyph glyph-name="colon" unicode=":" horiz-adv-x="4247" 
d="M901 692h3277v-55q-579 39 -1524 -31q-357 -25 -1203.5 -157t-1067.5 -262.5t-248 -161.5l584 778q8 -23 10 -42t25 -39t52.5 -25t94.5 -5z" />
    <glyph glyph-name="semicolon" unicode=";" horiz-adv-x="4737" 
d="M377 446q723 62 1503 62t1241 -27t791.5 -60.5t629.5 -64.5l84 -8q-70 -9 -130 -51q-60 -43 -85 -92q-16 31 -42.5 48t-69 33t-228.5 53q-382 75 -803 81t-768.5 -29t-597.5 -82t-392 -90t-269 -96q-27 92 -208 175.5t-443 117.5q-195 21 -336 10q-16 4 10.5 8t112.5 12z
" />
    <glyph glyph-name="less" unicode="&#x3c;" horiz-adv-x="5201" 
d="M2748 260q-1142 0 -1617.5 44t-730.5 85t-308 105h4909q-52 -64 -581.5 -149t-1671.5 -85z" />
    <glyph glyph-name="equal" unicode="=" horiz-adv-x="3518" 
d="M97 -156l12 11q-7 -6 -12 -11zM97 -156l-21 -20q7 10 21 20zM1862.5 444.5q401.5 -32.5 587.5 -32.5t321 10t266 48t228 171l79 107q-13 0 -53 16q-43 27 -51 51.5t-15 56.5t19 64q12 8 24 8t11 -10q0 -10 -5 -16t-14.5 -25.5t-9.5 -36.5q0 -42 40 -68t63 -18
q6 0 16 12.5t27 8.5q14 -6 12 -25q-10 -16 -41 -18l-78 -115q-181 -262 -478 -297.5t-640 -48.5t-503 -33t-293.5 -39.5t-609.5 -110t-656 -249.5l659 585q257 37 475 37t619.5 -32.5z" />
    <glyph glyph-name="greater" unicode="&#x3e;" horiz-adv-x="3020" 
d="M782 393q268 0 591 -18t467 -27q446 -31 534 -28q186 7 297 67q90 45 155 131l78 107q-47 -1 -78 35t-40 81t18 72q10 10 22 10t12 -10t-4 -18q-6 -5 -10 -15t-12 -24q-8 -31 10 -58q45 -68 90 -49q2 0 14 10t29 9q17 -6 11 -24t-39 -19l-78 -113q-54 -82 -156 -154
q-124 -81 -301 -90q-178 -10 -356 2q-447 30 -834 -2q-229 -18 -390 -76t-213 -136q-52 -77 -19 -186q6 -24 6 -38l-504 426q27 56 230 95q202 40 470 40z" />
    <glyph glyph-name="question" unicode="?" horiz-adv-x="3506" 
d="M3290 872q13 0 13 -10t-26 -55q-14 -56 49 -98q40 -26 68 2q10 10 26 8q14 -6 12 -25q-10 -16 -38 -18l-80 -115q-154 -223 -406 -270q-235 -44 -787 -48q-200 -1 -437 -3t-346 -15q-286 -36 -436 -150q-110 -87 -133 -157q-13 -39 -15 -86l-342 123l-373 -92
q11 186 200 317q152 107 379 156t472 49t671 -17t556 -19q130 -3 219 -5t232 4t283 47t240 174l78 107q-23 0 -57 20t-45 50q-10 30 -15 40q-6 53 17 78q8 8 21 8z" />
    <glyph glyph-name="at" unicode="@" horiz-adv-x="3817" 
d="M3595 807q20 0 9 -29q-6 -4 -15 -25q-9 -20 -9 -34q0 -43 51 -76q23 -20 51 -10q4 0 16 11t27 9q16 -6 11 -24q-6 -16 -39 -19l-78 -114q-62 -90 -145 -144q-83 -55 -160.5 -74.5t-149.5 -24.5t-136.5 -5t-97.5 2l-177 12q-378 17 -773 8q-213 -8 -350.5 -67t-154.5 -148
q-308 111 -686 111q-379 0 -701 -125q10 78 110 167t260 135t357 65.5t418 17.5t438 -16.5t417 -34t326 -31.5q277 -26 487.5 -42t398 20t296.5 182l78 106q-18 0 -48 16t-41 28t-16 24t-7.5 22.5t-6.5 20.5q-4 55 19 78q8 8 21 8z" />
    <glyph glyph-name="A" unicode="A" horiz-adv-x="2805" 
d="M2189 213q288 0 432 197l76 100h-6q-95 18 -106 106q-4 52 12 68t31.5 11t3.5 -22t-15.5 -21.5t-7.5 -16.5q-14 -55 45 -94q45 -26 59.5 -6t28.5 16t15 -14v-9q-6 -18 -37 -18l-76 -109q-104 -149 -252 -217q-159 -78 -420 -78q-260 0 -478 -24q-439 -49 -726 -170
q-10 10 -23.5 19t-56.5 39q-109 77 -296.5 147.5t-368.5 95.5h2166z" />
    <glyph glyph-name="B" unicode="B" horiz-adv-x="3608" 
d="M907 -53q-121 0 -294 2t-248 -26q-113 -42 -195 -169l-92 -137q-10 -14 -17.5 -11t-3.5 11l90 145q92 150 213 240q37 27 169 123t386 96h995q994 0 1125 5t190 30q130 56 197 154l78 114q-22 0 -56 18q-59 32 -69 99q-9 46 16 76q12 12 28.5 6.5t4.5 -23.5t-16 -23
t-10 -28q-13 -48 51 -90q46 -26 63 -6t31 16t14 -14v-10q-6 -14 -36 -19l-78 -125q-88 -147 -211 -239q-37 -29 -160 -122t-383 -93h-1782z" />
    <glyph glyph-name="C" unicode="C" 
d="M2238 213q102 -1 193 27t145 71t95 99l75 100h-6q-93 18 -104 106q-9 49 9 67q17 17 32.5 12t3.5 -22t-15.5 -21.5t-7.5 -16.5q-14 -55 45 -94q47 -27 60.5 -6.5t27.5 16.5t15 -14v-9q-6 -18 -37 -18l-76 -109q-104 -149 -252 -217q-159 -78 -419 -78q-736 0 -1203 -194
q-12 10 -24.5 19t-56.5 39q-113 78 -299 148t-367 95h2166z" />
    <glyph glyph-name="D" unicode="D" horiz-adv-x="2902" 
d="M2261 213q102 -1 192 27q91 28 145 71t95 99l76 100h-6q-12 4 -23.5 7t-31.5 14q-43 24 -51 80t10 72q18 17 33.5 12t0.5 -26t-20 -34q-12 -57 47 -94q45 -30 58.5 -8t27.5 18t14 -14v-9q-6 -18 -37 -18l-75 -109q-104 -149 -252 -217q-159 -78 -419 -78q-259 0 -478 -24
q-437 -49 -725 -170q-12 10 -24.5 19t-56.5 39q-113 78 -298.5 148t-368.5 95h2167z" />
    <glyph glyph-name="E" unicode="E" horiz-adv-x="3659" 
d="M2939 109q136 0 258 43q145 42 260 194l104 137q-70 0 -105.5 61.5t-30.5 99.5t21 53t33 9t4 -26t-17.5 -26.5t-8.5 -20.5q-18 -68 53 -113q35 -20 60 -10q12 2 21 15t25 7t17.5 -12t-1.5 -18t-44 -19l-104 -147q-96 -137 -237.5 -227.5t-309.5 -102.5l-2652 -180v6
q0 100 -63 178.5t-156 98.5h2873z" />
    <glyph glyph-name="F" unicode="F" horiz-adv-x="2852" 
d="M2066 258q281 0 358 26q140 47 234 173l95 127h-7q-54 5 -81 54q-39 71 -3 110q10 12 24 7t3 -22q-12 -17 -16 -36t5 -44t35 -42t46 -7q10 2 16 11t21 6q10 -4 10 -13v-8q-6 -16 -31 -16l-94 -135q-96 -144 -238 -236q-133 -94 -218 -132q-190 -85 -398 -83l-1751 -2
l157 278l1602 -16h231z" />
    <glyph glyph-name="G" unicode="G" horiz-adv-x="2732" 
d="M1905.5 168q86.5 0 156.5 3q128 5 265.5 62.5t207.5 149.5l107 143h-6q-36 10 -57 23q-21 12 -51 67t12 103q12 12 28 7.5t4 -24.5t-16 -23t-8 -20q0 -68 49 -100q48 -25 64 -4.5t31 15.5t14 -15l-1 -10q-8 -19 -36 -19l-107 -153q-136 -195 -368 -228.5t-475.5 -44
t-371.5 -26.5q-222 -28 -329.5 -80t-202.5 -152q-53 -60 -57 -155q-143 63 -351.5 72t-324.5 -44q11 172 168.5 286.5t351.5 156.5q231 44 437.5 51.5t493 -17t373 -24.5z" />
    <glyph glyph-name="H" unicode="H" horiz-adv-x="3891" 
d="M3189 141q102 0 254 41q148 47 256 193l96 129q-67 0 -103 53.5t-36 90t14 53.5t32.5 12.5t3.5 -32.5t-20 -52q-4 -25 13.5 -51.5t52.5 -43.5q35 -16 53 -8t25.5 21.5t24.5 9.5t18.5 -10t-0.5 -15q-4 -20 -49 -26l-99 -141q-153 -222 -305.5 -272t-234.5 -52l-3128 -111
l244 211h2888z" />
    <glyph glyph-name="I" unicode="I" horiz-adv-x="2086" 
d="M29 211h-11q178 95 372 115q156 17 319 12.5t303.5 -10.5t358.5 -12t368.5 37.5t206.5 115.5l84 113h-5q-51 12 -76.5 62.5t3.5 84.5q10 10 21.5 6t0.5 -20t-16 -31q0 -51 39 -76q21 -14 35 -10t19 13t16 5t12 -12v-6q-4 -10 -12.5 -12t-16.5 -4l-84 -119
q-107 -148 -284.5 -175t-359.5 -33.5t-278 -18.5q-414 -54 -466 -187t-56 -143q-88 135 -222.5 220t-270.5 85z" />
    <glyph glyph-name="J" unicode="J" horiz-adv-x="2766" 
d="M2722 547v-6q-6 -14 -31 -19l-92 -133q-99 -144 -236 -233q-41 -27 -96 -64t-182 -92t-330 -55l-1730 -2l153 274l1585 -14q483 -7 570 21q88 28 143 72t98 103l95 123h-7q-12 4 -22 7t-27 15q-38 25 -47 72q-10 47 7 63q17 17 31.5 13t2.5 -20t-18 -35q-6 -58 41 -86
q45 -23 56.5 -4.5t23.5 13.5t12 -13z" />
    <glyph glyph-name="K" unicode="K" horiz-adv-x="2148" 
d="M1799.5 309.5q118.5 50.5 176.5 128.5l97 129h-9q-10 4 -47.5 16t-50.5 87q-9 40 8 60q16 19 30.5 14t1.5 -23t-16 -37q-3 -18 6 -44t35.5 -42t42.5 -11t21 14t19 5t14 -12v-8q-6 -14 -31 -19l-96 -137q-119 -172 -336.5 -202.5t-421 -39t-311.5 -21.5
q-171 -21 -269 -61.5t-169 -109.5l-455 156q107 62 216 84q369 75 752 41q309 -27 399 -27q91 0 183 4q92 5 210.5 55.5z" />
    <glyph glyph-name="L" unicode="L" horiz-adv-x="3270" 
d="M3230 559q-6 -16 -37 -16l-88 -127q-82 -115 -200 -186.5t-259 -88.5l-2433 -299l-119 391l2577 3q202 0 286 66.5t125 121.5l90 119q-77 17 -92 96q-8 39 8 55t28.5 12t2.5 -19l-7 -11q-7 -10 -11 -23q0 -54 32 -75t47 -17t20 13.5t17 5.5t13 -13v-8z" />
    <glyph glyph-name="M" unicode="M" horiz-adv-x="3434" 
d="M2695 117q124 0 234 33t174.5 86t115.5 118l109 144q-67 9 -100 66t-28.5 94.5t20.5 53.5t34 9t4 -27t-18 -25t-11 -31t8 -54.5t50 -48.5q50 -37 69.5 -10.5t37.5 21.5t18 -11.5t-2 -15.5q-4 -18 -57 -23l-105 -150q-120 -174 -307 -266q-123 -59 -254 -75.5t-336 -16.5
t-486 -30q-538 -58 -892 -206l-62 43q-363 246 -845 322h2629z" />
    <glyph glyph-name="N" unicode="N" horiz-adv-x="2121" 
d="M29 174h-11q176 92 319 108q143 17 232.5 19t196 -1t248 -10t359.5 -11t368.5 38.5t206.5 114.5l84 113h-7q-73 23 -85 87q-7 36 14 60q10 10 21.5 5t1.5 -19t-17 -31q-6 -48 28 -69t46 -17t18 12.5t18 4.5t8 -16q-3 -11 -10.5 -13t-15.5 -4l-84 -121
q-105 -146 -283.5 -173t-359.5 -33.5t-279 -18.5q-184 -23 -322 -96.5t-202 -233.5q-82 132 -218.5 218.5t-274.5 86.5z" />
    <glyph glyph-name="O" unicode="O" horiz-adv-x="3631" 
d="M2939 109q136 0 258 43q145 42 260 194l104 137q-70 0 -105.5 61.5t-30.5 99.5t21 53t33 9t4 -26t-17.5 -26.5t-8.5 -20.5q-18 -68 53 -113q35 -20 60 -10q12 2 21 15t25 7t17.5 -12t-1.5 -18t-44 -19l-104 -147q-96 -137 -237.5 -227.5t-309.5 -102.5l-2652 -180v6
q0 100 -63 178.5t-156 98.5h2873z" />
    <glyph glyph-name="P" unicode="P" horiz-adv-x="2942" 
d="M86 -289q24 90 110 208q86 117 244 183t318 84t337 18q178 0 463 -22q285 -23 473 -22q187 0 298 6t188 30q142 45 254 191l100 131h-10q-91 19 -108 113q-10 50 8 68q19 18 35 13q16 -6 4 -24t-16 -21t-6 -22q-3 -19 7 -47t39 -47q29 -18 45 -12q15 6 23 17t22 6t15 -15
v-8q-8 -18 -31 -19l-100 -143q-111 -160 -265 -266q-239 -155 -627 -197t-884 31q-260 37 -452 6t-308 -109q-176 -117 -172 -293q9 -117 82 -217q18 -28 7 -24t-34 34q-113 148 -59 369z" />
    <glyph glyph-name="Q" unicode="Q" horiz-adv-x="2957" 
d="M2900 547v-8q-8 -18 -31 -19l-100 -143q-111 -163 -266 -266q-233 -155 -624 -197q-390 -42 -886 31q-260 37 -451 6t-293 -99q-196 -130 -188 -303q4 -106 80 -217q19 -28 9 -24t-33 34q-114 149 -60 369q23 90 97 191q100 134 258 200t318 84t337 18q178 0 463 -22
t471 -22q187 0 296 6t189 30q147 45 256 191l101 131h-11q-93 19 -110 113q-9 47 9 66q19 20 35 15q16 -6 5 -24q-12 -18 -15 -21t-8 -18q-6 -65 48 -98q31 -18 49 -8q12 2 19 13q8 11 22 6t14 -15z" />
    <glyph glyph-name="R" unicode="R" horiz-adv-x="2107" 
d="M618 301q118 0 323 -9.5t420 -13.5q214 -3 365.5 39.5t204.5 114.5l86 113h-6q-74 25 -85 87q-7 41 8 55q15 15 26.5 10t2.5 -19t-17 -31q-6 -48 34 -73.5t51 -8.5t23 13t9 -16q-3 -11 -10 -13t-15 -4l-84 -121q-105 -146 -283.5 -173t-360.5 -33.5t-279 -18.5
q-185 -23 -323.5 -97t-167 -148.5t-32.5 -84.5q-81 131 -218.5 218t-275.5 87h-10q90 47 224.5 87t389.5 40z" />
    <glyph glyph-name="S" unicode="S" horiz-adv-x="2971" 
d="M2042 -213q191 0 301 6t188 30q143 45 254 191l101 131q-42 8 -56 19q-52 29 -63 96q-10 44 16 72q11 12 27 8t4 -22t-15 -23q-3 -4 -8 -19q-6 -65 48 -98q46 -29 68 5q7 11 21 6t15 -15v-8q-8 -14 -31 -19l-100 -143q-107 -157 -264 -264q-227 -156 -617 -198t-895 32
q-260 37 -450 5t-310 -109q-176 -117 -172 -293q9 -119 82 -217q18 -29 8 -25q-11 4 -34 34q-114 149 -60 369q23 90 97 191q100 135 258 201q157 66 317 84t344 18t460 -22q275 -22 466 -23z" />
    <glyph glyph-name="T" unicode="T" horiz-adv-x="3182" 
d="M3187 559q-6 -16 -37 -16l-88 -127q-82 -115 -200 -186.5t-259 -88.5l-2433 -299l-119 391l2577 3q111 0 186 23q127 39 225 165l88 119q-53 13 -81 66t3 91q10 10 23.5 6t3.5 -19l-12 -19q-13 -19 -1.5 -49.5t35.5 -46.5t39 -11q15 4 20 13.5t17 5.5t13 -13v-8z" />
    <glyph glyph-name="U" unicode="U" horiz-adv-x="3252" 
d="M3201 563v-6q-4 -12 -15.5 -14t-21.5 -4l-90 -127q-80 -115 -198.5 -186.5t-260.5 -88.5l-2431 -299l-118 391l2576 2q112 -1 186 23q135 42 224 168l90 119q-14 3 -38 15q-41 22 -55 79q-5 43 10 58t28.5 10t1.5 -21t-15 -33q-10 -49 37 -82q43 -22 54 -4.5t26 12.5
q10 -4 10 -12z" />
    <glyph glyph-name="V" unicode="V" horiz-adv-x="2476" 
d="M1740 -223q60 0 128 3q125 6 257.5 60.5t194.5 141.5l105 139q-62 9 -96 63.5t-28.5 91t20.5 52.5t32 10t0 -31q-62 -90 33 -151q51 -33 68.5 -7.5t37.5 18.5t13 -25q-7 -17 -54 -21l-104 -150q-97 -136 -340 -211t-483 -71q-249 0 -567 -38t-463 -183q-34 61 -161 154.5
t-310 47.5q106 63 249 107q239 61 459 58t473 -24q253 -20 309 -24t111.5 -7t115.5 -3z" />
    <glyph glyph-name="W" unicode="W" horiz-adv-x="2914" 
d="M2900 547v-8q-8 -18 -31 -19l-100 -143q-111 -163 -266 -266q-233 -155 -624 -197q-390 -42 -886 31q-260 37 -451 6t-293 -99q-196 -130 -188 -303q4 -106 80 -217q19 -28 9 -24t-33 34q-114 149 -60 369q23 90 97 191q100 134 258 200t318 84t337 18q178 0 463 -22
t471 -22q187 0 296 6t189 30q147 45 256 191l101 131h-11q-93 19 -110 113q-9 47 9 66q19 20 35 15q16 -6 5 -24q-12 -18 -15 -21t-8 -18q-6 -65 48 -98q31 -18 49 -8q12 2 19 13q8 11 22 6t14 -15z" />
    <glyph glyph-name="X" unicode="X" horiz-adv-x="5195" 
d="M33 55l4315 -2q137 0 270 37q169 52 303 227l119 158q-25 5 -61 23q-101 62 -92.5 135.5t21.5 87.5q22 24 41 16t5 -33t-19 -30.5t-10 -22.5q-18 -80 64 -131q55 -35 82.5 -7.5t44.5 19.5q16 -6 15 -18l-1 -12q-6 -18 -22.5 -20.5t-34.5 -6.5l-121 -168
q-115 -158 -278.5 -263t-360.5 -122l-2042 -172q-517 -44 -870 -132t-453 -263l-12 -25q-4 10 -9 19.5t-9 19.5q-99 223 -314 406q-260 227 -571 280z" />
    <glyph glyph-name="Y" unicode="Y" horiz-adv-x="2101" 
d="M2064 604v-6q-4 -10 -28 -16l-84 -119q-106 -148 -284 -175t-360 -33.5t-278 -18.5q-190 -25 -328.5 -99t-164 -147.5t-29.5 -83.5q-87 134 -222.5 219.5t-273.5 85.5h-8q177 95 371 115q155 17 319 12.5t304.5 -10.5t358.5 -12t368.5 37.5t205.5 115.5l84 113h-4
q-52 12 -77.5 62t3.5 85q10 10 21.5 6t0.5 -21t-15 -30q0 -51 30 -71q30 -19 44 -15q13 4 18.5 13t16.5 5t11 -12z" />
    <glyph glyph-name="Z" unicode="Z" horiz-adv-x="2914" 
d="M2900 547v-8q-8 -18 -31 -19l-100 -143q-111 -163 -266 -266q-233 -155 -624 -197q-390 -42 -886 31q-260 37 -451 6t-293 -99q-196 -130 -188 -303q4 -106 80 -217q19 -28 9 -24t-33 34q-114 149 -60 369q23 90 97 191q100 134 258 200t318 84t337 18q178 0 463 -22
t471 -22q187 0 296 6t189 30q147 45 256 191l101 131h-11q-93 19 -110 113q-9 47 9 66q19 20 35 15q16 -6 5 -24q-12 -18 -15 -21t-8 -18q-6 -65 48 -98q31 -18 49 -8q12 2 19 13q8 11 22 6t14 -15z" />
    <glyph glyph-name="bracketleft" unicode="[" horiz-adv-x="3518" 
d="M97 -156l12 11q-7 -6 -12 -11zM97 -156l-21 -20q7 10 21 20zM1862.5 444.5q401.5 -32.5 587.5 -32.5t321 10t266 48t228 171l79 107q-13 0 -53 16q-43 27 -51 51.5t-15 56.5t19 64q12 8 24 8t11 -10q0 -10 -5 -16t-14.5 -25.5t-9.5 -36.5q0 -42 40 -68t63 -18
q6 0 16 12.5t27 8.5q14 -6 12 -25q-10 -16 -41 -18l-78 -115q-181 -262 -478 -297.5t-640 -48.5t-503 -33t-293.5 -39.5t-609.5 -110t-656 -249.5l659 585q257 37 475 37t619.5 -32.5z" />
    <glyph glyph-name="backslash" unicode="\" horiz-adv-x="3020" 
d="M782 393q268 0 591 -18t467 -27q446 -31 534 -28q186 7 297 67q90 45 155 131l78 107q-47 -1 -78 35t-40 81t18 72q10 10 22 10t12 -10t-4 -18q-6 -5 -10 -15t-12 -24q-8 -31 10 -58q45 -68 90 -49q2 0 14 10t29 9q17 -6 11 -24t-39 -19l-78 -113q-54 -82 -156 -154
q-124 -81 -301 -90q-178 -10 -356 2q-447 30 -834 -2q-229 -18 -390 -76t-213 -136q-52 -77 -19 -186q6 -24 6 -38l-504 426q27 56 230 95q202 40 470 40z" />
    <glyph glyph-name="bracketright" unicode="]" horiz-adv-x="3506" 
d="M3290 872q13 0 13 -10t-26 -55q-14 -56 49 -98q40 -26 68 2q10 10 26 8q14 -6 12 -25q-10 -16 -38 -18l-80 -115q-154 -223 -406 -270q-235 -44 -787 -48q-200 -1 -437 -3t-346 -15q-286 -36 -436 -150q-110 -87 -133 -157q-13 -39 -15 -86l-342 123l-373 -92
q11 186 200 317q152 107 379 156t472 49t671 -17t556 -19q130 -3 219 -5t232 4t283 47t240 174l78 107q-23 0 -57 20t-45 50q-10 30 -15 40q-6 53 17 78q8 8 21 8z" />
    <glyph glyph-name="asciicircum" unicode="^" horiz-adv-x="3817" 
d="M3595 807q20 0 9 -29q-6 -4 -15 -25q-9 -20 -9 -34q0 -43 51 -76q23 -20 51 -10q4 0 16 11t27 9q16 -6 11 -24q-6 -16 -39 -19l-78 -114q-62 -90 -145 -144q-83 -55 -160.5 -74.5t-149.5 -24.5t-136.5 -5t-97.5 2l-177 12q-378 17 -773 8q-213 -8 -350.5 -67t-154.5 -148
q-308 111 -686 111q-379 0 -701 -125q10 78 110 167t260 135t357 65.5t418 17.5t438 -16.5t417 -34t326 -31.5q277 -26 487.5 -42t398 20t296.5 182l78 106q-18 0 -48 16t-41 28t-16 24t-7.5 22.5t-6.5 20.5q-4 55 19 78q8 8 21 8z" />
    <glyph glyph-name="underscore" unicode="_" horiz-adv-x="1163" 
d="M594 541h-55v147q0 14 32 33h-133q29 -18 29 -33v-147h-51v94q0 8 18 20h-78q16 -10 17 -20v-215q0 -10 -19 -19h80q-18 8 -18 19v90h51v-170q0 -14 -31 -33h266l56 76q-35 -27 -76 -27h-143v154h55v-90q0 -10 -19 -19h80q-20 8 -20 19v90h43q23 0 35 -14v61
q-14 -14 -35 -14h-43v80h119q14 -1 43 -15l-21 47h-201q18 -12 19 -20v-94zM561 221v-6q-4 4 -10 2t-6 -6q22 -33 22 -50.5t2 -21.5q2 4 2 17t21 55v4q-10 4 -17 0q4 13 0 22q-3 9 -8 9v-2q-6 -6 -6 -23zM299 707v59q93 0 183 36t152 10q92 -38 189 -44h17v-61h82
q95 -258 -23 -324q-72 -35 -57.5 -77t24.5 -54q-203 -76 -297 -143q-106 74 -295 141q18 27 19.5 65.5t-46.5 64.5q-124 67 -28 327h80zM856 302q0 45 47 70q129 70 27 347h-78v59h-29q-88 5 -170 38q-82 32 -162 0t-141 -35l-61 -3v-61h-78q-66 -164 -44.5 -242t69.5 -103
t49 -61q0 -36 -29 -65q20 -8 123 -46t190 -106q68 53 224 117q49 23 92 35q-29 35 -29 56zM252 754v63q4 0 60 -4.5t157 35.5q100 40 178 9q78 -30 133.5 -37t80 -5t28.5 2v-63h63q12 -12 34 -91t27 -173.5t-91 -147.5q-35 -18 -25 -46t29.5 -45.5t23.5 -19.5l-45 -15
q-239 -80 -334 -165l-2 -4q-67 67 -176.5 110.5t-155.5 57.5l-47 14q4 2 22.5 20.5t29 46.5t-32.5 50t-70 95t4.5 187.5t42.5 125.5h66z" />
    <glyph glyph-name="grave" unicode="`" horiz-adv-x="4534" 
d="M4266 891q14 0 14 -11t-6 -18t-22 -39q-2 -7 -2 -25q0 -36 51 -73q27 -18 51 -8q2 0 18 10q10 10 25 8q16 -6 12 -22q-8 -18 -39 -21l-77 -112q-112 -165 -269 -230q-344 -146 -1121.5 -191t-1476 -2.5t-1361.5 220.5l3666 2q186 0 313 39q128 39 224 168l78 106
q-32 0 -53 19q-54 37 -63 90t18 80q6 10 20 10z" />
    <glyph glyph-name="a" unicode="a" horiz-adv-x="3227" 
d="M455 283h1988q184 1 311 37t226 169l78 107q-25 0 -54 16q-41 25 -60 81.5t15 88.5q7 10 21 10t14 -10t-5 -16t-10 -16.5t-13 -22.5q-2 -8 -3 -22q0 -41 52 -76q27 -18 51 -11q2 0 15 12t28 9q14 -6 12 -25q-8 -14 -39 -18l-78 -115q-106 -151 -268 -229
q-78 -37 -161 -52.5t-167 -25.5l-2334 -254q143 39 248 121q63 49 97 117.5t40 96.5t-4 28z" />
    <glyph glyph-name="b" unicode="b" horiz-adv-x="4083" 
d="M55 483h3236q174 0 305 38t232 171l78 105q-21 -1 -58 21t-47 52q-28 83 6 115q7 10 21 10t14 -10t-5 -16q-5 -7 -10 -17t-14 -22q-2 -8 -2 -23q0 -41 52 -76q29 -20 51 -10q2 -1 15 11t28 10q14 -6 12 -25q-6 -14 -39 -20l-78 -113q-162 -230 -429 -282
q-83 -15 -167 -25l-2334 -254q28 8 26 36q-2 29 -45 59t-141 54t-222 16q-124 -7 -191 12q-144 41 -238 139q-43 44 -56 44z" />
    <glyph glyph-name="c" unicode="c" horiz-adv-x="2971" 
d="M2812 870q14 0 14 -10t-6 -18q-24 -25 -24 -63t40 -65t62 -18q8 0 17 12t26 9q14 -6 12 -25q-10 -16 -39 -18l-78 -115q-106 -151 -272 -231t-446 -80q-766 0 -1258 -203q-328 254 -788 315h2285q103 0 231 39t224 168l78 107q-25 0 -48 14q-52 31 -66 82q-3 10 -3 14
q-8 49 16 78q9 8 23 8z" />
    <glyph glyph-name="d" unicode="d" horiz-adv-x="4534" 
d="M4266 891q14 0 14 -11t-6 -18t-22 -39q-2 -7 -2 -25q0 -36 51 -73q27 -18 51 -8q2 0 18 10q10 10 25 8q16 -6 12 -22q-8 -18 -39 -21l-77 -112q-112 -165 -269 -230q-344 -146 -1121.5 -191t-1476 -2.5t-1361.5 220.5l3666 2q186 0 313 39q128 39 224 168l78 106
q-32 0 -53 19q-54 37 -63 90t18 80q6 10 20 10z" />
    <glyph glyph-name="e" unicode="e" horiz-adv-x="5701" 
d="M5394 964q0 -11 -6 -18t-22 -39q-2 -7 -2 -25q0 -36 51 -73q27 -18 51 -8q2 0 19 10q10 10 24 8q16 -6 12 -22q-8 -18 -39 -21l-79 -112q-113 -167 -267 -230q-196 -81 -585 -135l-4404 -143l1031 305l3666 2q185 0 310 39q126 39 226 168l78 106q-46 0 -81.5 41
t-35.5 72q-9 47 9 67t31 19q13 0 13 -11z" />
    <glyph glyph-name="f" unicode="f" horiz-adv-x="4663" 
d="M979 485h2720q94 0 186 -1t255 7t265 142l78 106q-21 -1 -47 15q-68 41 -73 93t13 71q17 20 29 20q13 0 13 -9t-14.5 -35.5t-14.5 -43.5q0 -43 51 -78q27 -18 51 -8q3 0 15 10t28 8q16 -6 13 -22q-8 -18 -39 -21l-80 -112q-61 -92 -154.5 -148.5t-226.5 -70.5
q-136 -14 -655.5 -22t-656.5 -18q-136 -11 -279.5 -23.5t-930.5 -104.5t-1036 -242t-274 -180l584 778q6 -20 8 -39.5t20 -36.5q29 -25 57.5 -30t94.5 -5z" />
    <glyph glyph-name="g" unicode="g" horiz-adv-x="3518" 
d="M97 -156l12 11q-7 -6 -12 -11zM97 -156l-21 -20q7 10 21 20zM1862.5 444.5q401.5 -32.5 587.5 -32.5t321 10t266 48t228 171l79 107q-13 0 -53 16q-43 27 -51 51.5t-15 56.5t19 64q12 8 24 8t11 -10q0 -10 -5 -16t-14.5 -25.5t-9.5 -36.5q0 -42 40 -68t63 -18
q6 0 16 12.5t27 8.5q14 -6 12 -25q-10 -16 -41 -18l-78 -115q-181 -262 -478 -297.5t-640 -48.5t-503 -33t-293.5 -39.5t-609.5 -110t-656 -249.5l659 585q257 37 475 37t619.5 -32.5z" />
    <glyph glyph-name="h" unicode="h" horiz-adv-x="3020" 
d="M782 393q268 0 591 -18t467 -27q446 -31 534 -28q186 7 297 67q90 45 155 131l78 107q-47 -1 -78 35t-40 81t18 72q10 10 22 10t12 -10t-4 -18q-6 -5 -10 -15t-12 -24q-8 -31 10 -58q45 -68 90 -49q2 0 14 10t29 9q17 -6 11 -24t-39 -19l-78 -113q-54 -82 -156 -154
q-124 -81 -301 -90q-178 -10 -356 2q-447 30 -834 -2q-229 -18 -390 -76t-213 -136q-52 -77 -19 -186q6 -24 6 -38l-504 426q27 56 230 95q202 40 470 40z" />
    <glyph glyph-name="i" unicode="i" horiz-adv-x="3506" 
d="M3290 872q13 0 13 -10t-26 -55q-14 -56 49 -98q40 -26 68 2q10 10 26 8q14 -6 12 -25q-10 -16 -38 -18l-80 -115q-154 -223 -406 -270q-235 -44 -787 -48q-200 -1 -437 -3t-346 -15q-286 -36 -436 -150q-110 -87 -133 -157q-13 -39 -15 -86l-342 123l-373 -92
q11 186 200 317q152 107 379 156t472 49t671 -17t556 -19q130 -3 219 -5t232 4t283 47t240 174l78 107q-23 0 -57 20t-45 50q-10 30 -15 40q-6 53 17 78q8 8 21 8z" />
    <glyph glyph-name="j" unicode="j" horiz-adv-x="3817" 
d="M3595 807q20 0 9 -29q-6 -4 -15 -25q-9 -20 -9 -34q0 -43 51 -76q23 -20 51 -10q4 0 16 11t27 9q16 -6 11 -24q-6 -16 -39 -19l-78 -114q-62 -90 -145 -144q-83 -55 -160.5 -74.5t-149.5 -24.5t-136.5 -5t-97.5 2l-177 12q-378 17 -773 8q-213 -8 -350.5 -67t-154.5 -148
q-308 111 -686 111q-379 0 -701 -125q10 78 110 167t260 135t357 65.5t418 17.5t438 -16.5t417 -34t326 -31.5q277 -26 487.5 -42t398 20t296.5 182l78 106q-18 0 -48 16t-41 28t-16 24t-7.5 22.5t-6.5 20.5q-4 55 19 78q8 8 21 8z" />
    <glyph glyph-name="k" unicode="k" horiz-adv-x="3180" 
d="M92 -65q0 179 155 312.5t336 177.5t350 48t317 -10t273.5 -30.5t368 -45.5t402.5 -29q159 0 253.5 9.5t186.5 38.5q133 39 229 169l78 105q-23 0 -64 25t-50 82q-10 57 16 81q6 10 20 10q15 0 15 -10t-5 -16t-10.5 -16.5t-13.5 -22.5q-14 -59 49 -98q27 -20 51 -10
q1 0 15 10t28 10q14 -6 13 -25q-8 -18 -39 -20l-78 -113q-106 -151 -268 -229q-82 -41 -171 -53.5t-185 -18.5t-209 -7t-230 1t-231 4t-226 -1q-264 -7 -457 -48.5t-311 -146.5q-145 -131 -130.5 -220.5t49 -120t77.5 -30.5l-32 -21q-98 -61 -200 -62t-184.5 40t-135 114.5
t-52.5 166.5z" />
    <glyph glyph-name="l" unicode="l" horiz-adv-x="3414" 
d="M119 -73q0 76 123.5 259.5t535.5 268.5q265 57 746 57q128 0 501.5 -28.5t517.5 -28.5t238 9t187 38q129 37 229 170l78 106q-47 0 -91 49.5t-28.5 98.5t39.5 49q14 0 14 -12q0 -4 -4 -17q-6 -4 -10 -14t-9 -20t-5 -25q0 -41 45 -71t73 -3q14 10 27 8q14 -6 12 -24
q-8 -14 -39 -19l-80 -114q-106 -154 -266 -230q-84 -39 -173.5 -52.5t-235.5 -23.5t-369 -14t-386 -8q-291 -7 -577 -93.5t-410.5 -269t-104.5 -246t63 -61.5l-4 -4q-47 -25 -101.5 -9.5t-99.5 54.5t-72.5 94.5t-23.5 108.5l2 22q-170 0 -338 -77q-4 -4 -4 72z" />
    <glyph glyph-name="m" unicode="m" horiz-adv-x="3833" 
d="M1626 428q143 0 566.5 -31.5t596.5 -31.5q174 0 309.5 9t267.5 49t228 169l78 106q-21 0 -52 18q-54 31 -63 87q-10 57 17 84q6 10 20 10t14 -11t-5 -18q-6 -7 -23 -39q-6 -29 9 -56.5t40 -41.5q27 -18 51 -8q2 0 19 10q10 10 24 8q16 -6 13 -22q-8 -18 -39 -21l-78 -112
q-147 -210 -323.5 -258t-283 -56t-253.5 -18t-374.5 -20.5t-416.5 -32.5q-320 -37 -488 -117.5t-302 -226.5q-73 -80 -82 -224q0 -17 -35 0q-79 39 -253 70t-381 31t-349 -68q-4 -4 -9.5 0t-5.5 10q10 145 91.5 260t249 234.5t446.5 177.5q384 80 776 80z" />
    <glyph glyph-name="n" unicode="n" horiz-adv-x="3401" 
d="M2590.5 246q-57.5 0 -109.5 3t-95.5 7t-103.5 7t-159.5 9.5t-272 11.5t-321.5 -17q-316 -47 -545.5 -131t-297.5 -181q-34 68 -195.5 182t-412.5 88q-10 -2 -20.5 -3t-20.5 -5q197 96 374 134q176 38 363 50.5t380.5 6t402 -26t374.5 -35.5q305 -29 440 -39.5t272 -4.5
q136 5 211 18.5t130 43.5q105 57 168 138l78 106q-19 0 -64 25q-44 25 -53 80q-8 55 9 75q16 20 30 19q14 0 14 -11t-16 -27t-15 -55q0 -38 47 -70t65 -10.5t34 17.5q16 -6 12 -22q-8 -18 -39 -21l-78 -112q-57 -87 -143 -144t-163.5 -76.5t-149.5 -24.5t-129.5 -5z" />
    <glyph glyph-name="o" unicode="o" horiz-adv-x="3753" 
d="M584 -234q0 50 -28 114.5t-103.5 140t-210.5 75.5t-236 -80q148 188 422.5 277.5t545.5 104t444 14.5t316.5 -10.5t445.5 -32t463 -21.5t296 9.5t267 49.5t228 171l80 104q-23 0 -63 24t-55 89q-8 49 18 75q10 10 22 10t12 -10t-7 -19q-8 -9 -14.5 -25.5t-6.5 -41.5
t40 -59.5t65 -16.5q25 19 41 17q12 -6 10 -23q-8 -18 -39 -20l-78 -113q-99 -145 -266 -229q-121 -57 -251 -72.5t-333 -29.5t-889 -25q-439 -13 -736.5 -159.5t-403.5 -362.5q4 25 4 75z" />
    <glyph glyph-name="p" unicode="p" horiz-adv-x="4247" 
d="M901 692h3277v-55q-579 39 -1524 -31q-357 -25 -1203.5 -157t-1067.5 -262.5t-248 -161.5l584 778q8 -23 10 -42t25 -39t52.5 -25t94.5 -5z" />
    <glyph glyph-name="q" unicode="q" horiz-adv-x="4737" 
d="M377 446q723 62 1503 62t1241 -27t791.5 -60.5t629.5 -64.5l84 -8q-70 -9 -130 -51q-60 -43 -85 -92q-16 31 -42.5 48t-69 33t-228.5 53q-382 75 -803 81t-768.5 -29t-597.5 -82t-392 -90t-269 -96q-27 92 -208 175.5t-443 117.5q-195 21 -336 10q-16 4 10.5 8t112.5 12z
" />
    <glyph glyph-name="r" unicode="r" horiz-adv-x="5201" 
d="M2748 260q-1142 0 -1617.5 44t-730.5 85t-308 105h4909q-52 -64 -581.5 -149t-1671.5 -85z" />
    <glyph glyph-name="s" unicode="s" horiz-adv-x="4440" 
d="M4356 567q-210 -71 -413.5 -263t-329.5 -413q-61 92 -191.5 187.5t-430 230t-802.5 172.5q-1388 97 -1910 -20q-8 10 -18.5 19t-20.5 20q-61 51 -131 67h4247z" />
    <glyph glyph-name="t" unicode="t" horiz-adv-x="2805" 
d="M2189 213q288 0 432 197l76 100h-6q-95 18 -106 106q-4 52 12 68t31.5 11t3.5 -22t-15.5 -21.5t-7.5 -16.5q-14 -55 45 -94q45 -26 59.5 -6t28.5 16t15 -14v-9q-6 -18 -37 -18l-76 -109q-104 -149 -252 -217q-159 -78 -420 -78q-260 0 -478 -24q-439 -49 -726 -170
q-10 10 -23.5 19t-56.5 39q-109 77 -296.5 147.5t-368.5 95.5h2166z" />
    <glyph glyph-name="u" unicode="u" horiz-adv-x="3608" 
d="M907 -53q-121 0 -294 2t-248 -26q-113 -42 -195 -169l-92 -137q-10 -14 -17.5 -11t-3.5 11l90 145q92 150 213 240q37 27 169 123t386 96h995q994 0 1125 5t190 30q130 56 197 154l78 114q-22 0 -56 18q-59 32 -69 99q-9 46 16 76q12 12 28.5 6.5t4.5 -23.5t-16 -23
t-10 -28q-13 -48 51 -90q46 -26 63 -6t31 16t14 -14v-10q-6 -14 -36 -19l-78 -125q-88 -147 -211 -239q-37 -29 -160 -122t-383 -93h-1782z" />
    <glyph glyph-name="v" unicode="v" 
d="M2238 213q102 -1 193 27t145 71t95 99l75 100h-6q-93 18 -104 106q-9 49 9 67q17 17 32.5 12t3.5 -22t-15.5 -21.5t-7.5 -16.5q-14 -55 45 -94q47 -27 60.5 -6.5t27.5 16.5t15 -14v-9q-6 -18 -37 -18l-76 -109q-104 -149 -252 -217q-159 -78 -419 -78q-736 0 -1203 -194
q-12 10 -24.5 19t-56.5 39q-113 78 -299 148t-367 95h2166z" />
    <glyph glyph-name="w" unicode="w" horiz-adv-x="2902" 
d="M2261 213q102 -1 192 27q91 28 145 71t95 99l76 100h-6q-12 4 -23.5 7t-31.5 14q-43 24 -51 80t10 72q18 17 33.5 12t0.5 -26t-20 -34q-12 -57 47 -94q45 -30 58.5 -8t27.5 18t14 -14v-9q-6 -18 -37 -18l-75 -109q-104 -149 -252 -217q-159 -78 -419 -78q-259 0 -478 -24
q-437 -49 -725 -170q-12 10 -24.5 19t-56.5 39q-113 78 -298.5 148t-368.5 95h2167z" />
    <glyph glyph-name="x" unicode="x" horiz-adv-x="3659" 
d="M2939 109q136 0 258 43q145 42 260 194l104 137q-70 0 -105.5 61.5t-30.5 99.5t21 53t33 9t4 -26t-17.5 -26.5t-8.5 -20.5q-18 -68 53 -113q35 -20 60 -10q12 2 21 15t25 7t17.5 -12t-1.5 -18t-44 -19l-104 -147q-96 -137 -237.5 -227.5t-309.5 -102.5l-2652 -180v6
q0 100 -63 178.5t-156 98.5h2873z" />
    <glyph glyph-name="y" unicode="y" horiz-adv-x="2852" 
d="M2276 258q71 0 148 26q140 47 234 173l95 127h-7q-54 5 -87 65t3 99q10 12 24.5 7t2.5 -22t-16 -36t5 -43t35 -42t46 -8q10 2 16 11.5t21 5.5q10 -4 10 -13v-8q-6 -16 -31 -16l-94 -135q-96 -144 -238 -236q-129 -91 -265.5 -153t-350.5 -62l-1751 -2l157 278l1602 -16
h441z" />
    <glyph glyph-name="z" unicode="z" horiz-adv-x="2732" 
d="M1905.5 168q86.5 0 156.5 3q128 5 265.5 62.5t207.5 149.5l107 143h-6q-36 10 -57 23q-21 12 -51 67t12 103q12 12 28 7.5t4 -24.5t-16 -23t-8 -20q0 -68 49 -100q48 -25 64 -4.5t31 15.5t14 -15l-1 -10q-8 -19 -36 -19l-107 -153q-136 -195 -368 -228.5t-475.5 -44
t-371.5 -26.5q-222 -28 -329.5 -80t-202.5 -152q-53 -60 -57 -155q-143 63 -351.5 72t-324.5 -44q11 172 168.5 286.5t351.5 156.5q231 44 437.5 51.5t493 -17t373 -24.5z" />
    <glyph glyph-name="braceleft" unicode="{" horiz-adv-x="3608" 
d="M907 -53q-121 0 -294 2t-248 -26q-113 -42 -195 -169l-92 -137q-10 -14 -17.5 -11t-3.5 11l90 145q92 150 213 240q37 27 169 123t386 96h995q994 0 1125 5t190 30q130 56 197 154l78 114q-22 0 -56 18q-59 32 -69 99q-9 46 16 76q12 12 28.5 6.5t4.5 -23.5t-16 -23
t-10 -28q-13 -48 51 -90q46 -26 63 -6t31 16t14 -14v-10q-6 -14 -36 -19l-78 -125q-88 -147 -211 -239q-37 -29 -160 -122t-383 -93h-1782z" />
    <glyph glyph-name="bar" unicode="|" 
d="M2238 213q102 -1 193 27t145 71t95 99l75 100h-6q-93 18 -104 106q-9 49 9 67q17 17 32.5 12t3.5 -22t-15.5 -21.5t-7.5 -16.5q-14 -55 45 -94q47 -27 60.5 -6.5t27.5 16.5t15 -14v-9q-6 -18 -37 -18l-76 -109q-104 -149 -252 -217q-159 -78 -419 -78q-736 0 -1203 -194
q-12 10 -24.5 19t-56.5 39q-113 78 -299 148t-367 95h2166z" />
    <glyph glyph-name="braceright" unicode="}" horiz-adv-x="2902" 
d="M2261 213q102 -1 192 27q91 28 145 71t95 99l76 100h-6q-12 4 -23.5 7t-31.5 14q-43 24 -51 80t10 72q18 17 33.5 12t0.5 -26t-20 -34q-12 -57 47 -94q45 -30 58.5 -8t27.5 18t14 -14v-9q-6 -18 -37 -18l-75 -109q-104 -149 -252 -217q-159 -78 -419 -78q-259 0 -478 -24
q-437 -49 -725 -170q-12 10 -24.5 19t-56.5 39q-113 78 -298.5 148t-368.5 95h2167z" />
    <glyph glyph-name="asciitilde" unicode="~" horiz-adv-x="3608" 
d="M907 -53q-121 0 -294 2t-248 -26q-113 -42 -195 -169l-92 -137q-10 -14 -17.5 -11t-3.5 11l90 145q92 150 213 240q37 27 169 123t386 96h995q994 0 1125 5t190 30q130 56 197 154l78 114q-22 0 -56 18q-59 32 -69 99q-9 46 16 76q12 12 28.5 6.5t4.5 -23.5t-16 -23
t-10 -28q-13 -48 51 -90q46 -26 63 -6t31 16t14 -14v-10q-6 -14 -36 -19l-78 -125q-88 -147 -211 -239q-37 -29 -160 -122t-383 -93h-1782z" />
  </font>
</defs>
</svg>
