<?xml version="1.0" standalone="no"?>
<!DOCTYPE svg PUBLIC "-//W3C//DTD SVG 1.1//EN" "http://www.w3.org/Graphics/SVG/1.1/DTD/svg11.dtd" >
<svg xmlns="http://www.w3.org/2000/svg">
<metadata>
Created by FontPrep 20130207 at Mon Oct 20 17:10:05 2014
 By Jarvis
\251 2002 Letterhead Fonts, by Tom Kennedy
</metadata>
<defs>
<font id="20c6bd30104d55e36c28205cc9be5266" horiz-adv-x='1024' >
  <font-face 
    font-family="LHFEphemera-Alternates"
    font-weight="400"
    font-stretch="normal"
    units-per-em="2048"
    panose-1="2 0 5 6 8 0 0 2 0 2"
    ascent="1638"
    descent="-410"
    x-height="510"
    cap-height="1100"
    bbox="-635.006 -741.45 2203.26 1366"
    underline-thickness="36"
    underline-position="-227"
    unicode-range="U+0020-2122"
  />
<missing-glyph horiz-adv-x="2457" 
 />
    <glyph glyph-name=".notdef" horiz-adv-x="2457" 
 />
    <glyph glyph-name=".null" horiz-adv-x="0" 
 />
    <glyph glyph-name="nonmarkingreturn" horiz-adv-x="417" 
 />
    <glyph glyph-name="space" unicode=" " horiz-adv-x="417" 
 />
    <glyph glyph-name="space" unicode="&#xa0;" horiz-adv-x="417" 
 />
    <glyph glyph-name="exclam" unicode="!" horiz-adv-x="899" 
d="M55.5 127q24.5 33 60.5 44t61.5 -6t27.5 -53t-23.5 -69t-60.5 -44t-61.5 6t-27.5 53t23.5 69zM761 1055q21 0 53.5 3t43.5 3l-653 -834q-3 0 -7 3t-10 3l502 832q50 -10 71 -10z" />
    <glyph glyph-name="quotedbl" unicode="&#x22;" horiz-adv-x="335" 
d="M257 1059q32 0 3 -49q-4 -6 -7 -12.5t-7 -12.5l-166 -242h-14l102 242q8 34 32.5 54t56.5 20zM419.5 1059q22.5 0 22.5 -18.5t-26 -55.5l-166 -242h-14l104 242q8 34 32.5 54t47 20z" />
    <glyph glyph-name="numbersign" unicode="#" horiz-adv-x="2220" 
d="M1679 477q27 53 31 101t-22 70t-89 4.5t-135 -103.5q-53 -60 -66.5 -137.5t14.5 -102t74 -15.5t99 56q-29 25 -31 58v6q-4 29 19 61.5t51 34.5q54 4 55 -33zM1210 295q0 92 71 182.5t187 154.5t172 60t71 -28q65 -101 -58 -283q-2 0 -2 -2q2 -2 4 -2q36 -32 82 2
q23 27 53 36t54 -6.5t25 -49.5t-21.5 -63.5t-55.5 -39.5t-62 8.5t-16 71.5q-29 -16 -59 -12t-39 8q-73 -92 -149.5 -147t-146.5 -41q-70 15 -90 56.5t-20 94.5zM928 279q0 108 5 200t34 169q78 206 129 298l-15 -14q-148 -155 -213 -239q-93 -120 -169.5 -231.5
t-117.5 -167.5q-129 -176 -229 -236t-143 -70q-100 -27 -153.5 6t-64.5 85q-23 108 52.5 205.5t204.5 108.5l16 2q-9 -9 -28 -23t-26 -36.5t-3 -42t18.5 -34.5t44.5 -20q62 -10 154 37t139 101q115 119 232 272t201 242q85 90 123.5 133.5t55.5 53.5q17 9 31.5 0t-0.5 -23
l-58 -138q-58 -138 -58 -366q0 -53 4 -107.5t2 -107.5q23 39 44 78t62 104q232 368 461 496q152 87 281 18q39 -20 59 -60t15 -71q-9 -55 -55 -84t-89 -6q-20 10 -30.5 29.5t-8.5 39.5t12 29q8 -14 27 -23t38 3t24 39q6 26 -20 52q-103 103 -266 -12t-281.5 -275.5
t-159.5 -240.5t-71 -140t-78 -147t-124 -153q-9 -9 -29 -22t-18 -6q4 16 11.5 43.5t17.5 85.5t10 166z" />
    <glyph glyph-name="dollar" unicode="$" horiz-adv-x="720" 
d="M598 772q0 -20 10 -35l51 78q-33 8 -47 -7.5t-14 -35.5zM641 707q41 -18 94 -5.5t77 38.5q46 50 65.5 115.5t-56.5 123.5zM224 39h50q38 0 95 17.5t98 62.5q47 47 63 114t-10 123t-53 86l-264 -401q10 -2 21 -2zM573 684q-51 33 -51 91t35.5 92.5t72.5 24.5
q38 -10 48 -48l100 151q-85 23 -139 4q-186 -63 -207 -168.5t19.5 -154.5t64.5 -78zM218 340q-30 0 -46 21t-10 39t7 19t3 5q-37 -16 -70 -53q-63 -66 -63 -152t80 -141q10 -6 19 -12.5t22 -10.5l276 422q-43 47 -86 97.5t-52 111.5q-18 124 96 234q115 110 242.5 121.5
t174.5 2.5l143 218q4 8 31 6q17 -9 6 -31l-135 -205q39 -16 69 -46q57 -57 33.5 -143.5t-108.5 -137.5q-112 -74 -236 -39l-65 -101q41 -47 73.5 -97t32.5 -128t-39.5 -141.5t-99.5 -111.5q-105 -85 -236 -85h-71q-14 0 -31 4l-141 -217q-4 -8 -31 -6q-20 10 -6 31l131 198
q-106 21 -153.5 84.5t-47.5 123.5q0 126 93 198q93 71 186.5 71t93.5 -65q2 -39 -26.5 -61.5t-58.5 -22.5z" />
    <glyph glyph-name="percent" unicode="%" horiz-adv-x="868" 
d="M560 55q72 0 181 158.5t109 235.5q0 31 -14.5 43t-26.5 12q-31 0 -65 -21.5t-102 -107.5q-68 -85 -98 -163t-31 -104t14.5 -39.5t32.5 -13.5zM799 526q59 0 84.5 -36t21.5 -86q-10 -121 -100 -230q-112 -143 -248 -143q-53 0 -85 33.5t-28 95.5q9 135 136 258
q117 108 219 108zM174 545q58 35 149 201t61 190.5t-45 24.5q-58 0 -140 -103q-92 -111 -122 -188.5t-31 -105.5t14.5 -41t35.5 -13t78 35zM92 487q-53 0 -86 33.5t-29 95.5q9 139 131 253t224 114q59 0 84.5 -37t21.5 -82q-9 -100 -63 -182q110 41 151 73.5t116.5 103
t139.5 167.5q27 35 38 45t22.5 8t1.5 -14l-41 -57l-621 -1028q-70 17 -118 13.5t-67.5 -5.5t-21.5 -2l611 780q-36 -29 -82 -57q-86 -44 -152 -62q-8 -12 -12 -16q-117 -144 -248 -144z" />
    <glyph glyph-name="ampersand" unicode="&#x26;" horiz-adv-x="919" 
d="M633 410q6 -55 6 -129t-25 -148q68 57 83 128.5t-12.5 105t-38.5 37.5t-13 6zM618 686q119 61 156 84t81 68t63 94q18 61 -21 78q-67 29 -148.5 -54.5t-102.5 -151t-28 -118.5zM555 370.5q0 -28.5 12 -44.5h-8q-49 0 -68.5 30.5t-18.5 64.5t34 61.5t76 31.5l-2 53
q-2 16 -2 32v32q-29 -16 -63.5 -33.5t-90.5 -57.5q-109 -78 -142.5 -185.5t-2.5 -180.5q50 -107 194 -100q45 0 86 22q51 119 33 312q-37 -9 -37 -37.5zM618 547q0 -15 3 -31q70 -14 101.5 -60t29.5 -104q0 -98 -52 -162t-106 -104q-110 -220 -297 -213h-13q-12 0 -23 6
t5 12q6 4 9.5 2t25.5 3q144 12 229 149q-60 -35 -158 -53t-182 17.5t-106 131.5t47.5 210t265.5 229q59 35 102.5 53t78.5 35v8q7 123 71 221q38 60 73 88t53 42.5t51 33t88 17.5t84.5 -33.5t7.5 -96.5t-80 -108.5t-100 -72.5t-61.5 -39t-44 -24.5t-52 -26.5t-52.5 -26
q-2 -19 0 -54t2 -50z" />
    <glyph glyph-name="quotesingle" unicode="'" horiz-adv-x="387" 
d="M244 845q24 30 56 40q32 11 56 -5t24 -53q1 -37 -23 -69q-79 -106 -206 -160q-49 -20 -52 -9t7 15q71 17 128 68q22 20 29 31t16 22q-54 4 -56 57q-2 33 21 63z" />
    <glyph glyph-name="parenleft" unicode="(" horiz-adv-x="382" 
d="M668 1108q-199 -68 -365 -264q-120 -147 -179 -313q-92 -264 -40.5 -406.5t96.5 -194.5q-6 -4 -10 -10q-2 0 -6 4q-115 99 -156 266q-32 164 15 340q54 183 235 355q188 174 292.5 206.5t115.5 36.5q0 -14 2 -20z" />
    <glyph glyph-name="parenright" unicode=")" horiz-adv-x="559" 
d="M-141 -61q201 69 362 264q123 150 181 312t45 330q-14 168 -103 269q6 4 10 10l2 -2q2 0 4 -2q117 -98 156 -266q32 -163 -14 -338q-53 -180 -236 -354q-180 -166 -287.5 -203t-117.5 -39q0 13 -2 19z" />
    <glyph glyph-name="asterisk" unicode="*" horiz-adv-x="468" 
d="M616 748q0 -31 -29 -31q-16 0 -44 33l-76 90l-8 -119q-2 -31 -9 -44t-24 -13q-29 0 -29.5 22.5t5.5 32.5t6 14l41 111l-107 -51q-30 -15 -47 -15q-25 0 -25 22.5t10 28.5t46 13l116 20l-98 66q-37 25 -37 40q0 33 25 33q18 0 32 -16t15 -18l76 -88l8 116q3 57 24 57.5
t31 -5.5q8 -12 8 -19t-12 -43l-39 -111l105 52q10 4 16 6t14 5t18 3t16 -9q7 -9 7 -23t-11 -20q-11 -7 -44 -14l-115 -20l99 -66q36 -25 36 -40z" />
    <glyph glyph-name="plus" unicode="+" horiz-adv-x="780" 
d="M315.5 211q-26.5 0 -26.5 29v252h-246q-18 0 -27.5 8t-9.5 18t9.5 18.5t27.5 8.5h246v250q0 8 8 14t26.5 6t18.5 -20v-250h244q14 0 22 -8.5t8 -26.5t-30 -18h-244v-252q0 -29 -26.5 -29z" />
    <glyph glyph-name="comma" unicode="," horiz-adv-x="176" 
d="M59 108q23 30 56 40t57 -6q24 -15 25 -52q2 -37 -23 -70q-80 -106 -208 -159q-24 -9 -36 -13t-14 6t8 13q41 10 93 41q51 32 77 80q-54 5 -56 61q-1 29 21 59z" />
    <glyph glyph-name="hyphen" unicode="-" horiz-adv-x="737" 
d="M188 276q-44 0 -98 -26q0 -4 -7 -5t-10 2t1 8q17 22 108 54.5t146 32.5t132 -16t104 -15q28 0 51 2.5t41 12.5t26 10t-1 -14q-10 -14 -106 -50q-83 -24 -153 -24q-71 0 -130 14q-60 14 -104 14z" />
    <glyph glyph-name="period" unicode="." horiz-adv-x="256" 
d="M55.5 127q24.5 33 60.5 44t61.5 -6t27.5 -53t-23.5 -69t-60.5 -44t-61.5 6t-27.5 53t23.5 69z" />
    <glyph glyph-name="slash" unicode="/" horiz-adv-x="927" 
d="M33 -160q-13 -16 -30 -5t-5 28l815 1224q4 6 16 7h13q6 -6 4 -29z" />
    <glyph glyph-name="zero" unicode="0" horiz-adv-x="925" 
d="M315 93.5q88 56.5 209.5 266.5t158 333t30.5 185t-39.5 88.5t-59.5 26.5q-58 0 -124.5 -40.5t-158.5 -167.5q-153 -211 -213.5 -387.5t-52.5 -239.5q7 -64 41.5 -92.5t77.5 -28.5t131 56.5zM586 1040q127 0 188.5 -77.5t65.5 -198.5q0 -166 -83.5 -337.5t-233 -306
t-337.5 -134.5q-121 0 -196.5 70.5t-78.5 202.5t54 276.5t183 275.5t242 180t196 49z" />
    <glyph glyph-name="one" unicode="1" horiz-adv-x="720" 
d="M45 0q-78 0 -135 -12l713 903l-217 -90q-31 -12 -37.5 1t1.5 22.5t32 15.5t55.5 19t64.5 26.5t61.5 27t50.5 23.5q27 12 100 55t83 43t8 -2q-420 -604 -581 -938l-54 -108q-67 14 -145 14z" />
    <glyph glyph-name="two" unicode="2" horiz-adv-x="991" 
d="M729 1038q104 0 159.5 -49t66.5 -109q20 -108 -42.5 -236t-174 -182t-259.5 -117q-147 -64 -188 -91l-35 -23l47 7q111 18 195 -17q151 -63 220 -63t89 22.5t24 24.5l-6 -15q-119 -204 -333 -204q-92 0 -168 45q-165 96 -265 47q-39 -19 -71 -76q-6 -14 -16 -7t-3 28
q51 119 250 229q90 49 179.5 95.5t153.5 88.5q109 73 175 172q39 55 56 119t5 111q-24 100 -142 100t-202 -82q-83 -73 -90.5 -152.5t25.5 -107.5t55 -22t33.5 23t1.5 34q-8 10 -20 14l2 2l20 8q39 12 60 -24q21 -35 -2 -72t-59 -46t-69 3t-57 52t-22.5 133t116.5 208
q123 129 291 129z" />
    <glyph glyph-name="three" unicode="3" horiz-adv-x="843" 
d="M330 934q109 88 263 88t206 -121q27 -61 8 -133t-73 -115q-101 -80 -226 -100l-16 -4q33 -8 55 -27q87 -68 78 -182q-4 -70 -42.5 -136.5t-102.5 -110.5q-134 -93 -276 -103q-142 -11 -216 45q-83 59 -60 166q21 87 109 123q53 18 83 2t35 -43t-11 -45t-39 -18t-32 14
q-21 34 1 51q4 2 6 4t6 4q-18 14 -46 2q-61 -26 -71 -83t29 -96q71 -69 178 -37t179 121q72 88 98 169t8 129q-14 29 -37 32q-12 2 -37 -5t-49 -3q-37 6 -25.5 27.5t45.5 17.5t47 -8t41 1q62 11 120 84q123 152 50 269q-37 57 -106.5 55t-149.5 -50q-70 -46 -89 -117
q-19 -72 30 -113q21 -20 45 -14t34.5 23.5t0.5 33.5q-4 10 -19 14q11 11 23 11q39 13 60 -24q21 -36 -3 -72t-60 -46t-68 2t-50 43q-40 66 -24 140t90 135z" />
    <glyph glyph-name="four" unicode="4" horiz-adv-x="944" 
d="M373 348l190 262q15 22 68 82t162 197l61 78q4 4 -10.5 -2.5t-57.5 -38.5t-184 -136t-389 -317q-26 -19 -90 -74l-19 -14l144 -18zM387 -14q-72 10 -131 10t-113 -8q4 4 5.5 8t11.5 24t37.5 56.5t62.5 91.5l84 133l-141 16l-148 15q-6 2 -20.5 -10.5t-34.5 -23.5
t-49 -12.5t-39 26.5t8.5 48.5t42.5 26.5t56 5t34 1h4v2q540 461 844 652q29 18 46 18t24.5 -5t1.5 -13q-68 -90 -119 -169t-58.5 -87.5t-22.5 -34t-46 -76.5t-84 -148l-100 -184h92q105 0 108 45q-20 -10 -33.5 3.5t-16.5 31.5t13 31.5t40 13.5t39.5 -24.5t4.5 -61.5
t-58 -61q-47 -23 -116 -23h-96l-74 -164z" />
    <glyph glyph-name="five" unicode="5" horiz-adv-x="872" 
d="M80 160q-14 58 -50 45.5t-53 -40.5t7 -71q36 -74 157 -74t258 156q102 119 111 252q4 66 -24 113t-80 55q-127 19 -201 -43q-18 -16 -25.5 -26.5t-19.5 -1.5t2 24l305 493q12 23 24.5 15t-4.5 -37q82 20 164 4q137 -28 199 -16t88 49q8 10 16 16l-2 -14
q-39 -106 -106 -168q-70 -70 -181 -90t-181 23t-89 32l-153 -248q58 29 178 37q123 4 195.5 -56.5t82.5 -141.5q22 -174 -145 -310q-86 -68 -203.5 -108.5t-197.5 -41.5q-147 -2 -220 68q-35 35 -42.5 81t10.5 79q33 63 92 81t94 -17q18 -16 25 -48.5t-31 -70.5z" />
    <glyph glyph-name="six" unicode="6" horiz-adv-x="821" 
d="M209 25q139 0 231 157q86 142 76 277q-8 104 -117 104t-169.5 -49t-73.5 -68q-29 -72 -55.5 -140t-29.5 -136t38 -106.5t100 -38.5zM438 616q177 0 218.5 -87t39.5 -138q-6 -147 -142 -276t-351 -129q-70 0 -133.5 26.5t-98.5 73.5q-75 96 -67 223q17 250 233 484
q87 94 177 148q171 103 309 103q137 0 198 -94q39 -72 9 -134q-31 -62 -89 -80t-94 18q-16 16 -21.5 44.5t25.5 69.5q0 2 2 4q4 -8 6.5 -16t15.5 -21t38.5 -4t38.5 33q14 31 1 68t-50 54.5t-78 14.5q-90 -4 -150.5 -50t-114.5 -111t-170 -287l-10 -23l6 7q106 79 252 79z
" />
    <glyph glyph-name="seven" unicode="7" horiz-adv-x="778" 
d="M14 775q0 7 2 11q30 95 171 202q63 48 80 48q35 0 9 -20l-18 -17l43 11q96 26 175 2q156 -46 211 -41q54 6 87 45q16 18 22.5 25t17.5 3t7 -12q-123 -145 -185.5 -242.5t-97 -158t-68.5 -117.5q-139 -233 -230 -420l-54 -108q-152 29 -280 2l745 882q-82 -64 -161 -72
q-80 -8 -147 23q-167 79 -251 25q-33 -20 -57 -76q-9 -14 -15 -8t-6 13z" />
    <glyph glyph-name="eight" unicode="8" horiz-adv-x="872" 
d="M502 621q76 29 155 92q80 67 72 180q-4 53 -39 79.5t-82 31.5q-77 0 -154 -53t-62 -134q14 -81 91 -205zM360.5 406.5q-47.5 70.5 -59.5 89.5q-62 -18 -164 -82q-93 -61 -114 -166t49 -170q51 -47 130.5 -47t138.5 41q60 41 63.5 152.5t-44 182zM399 39q-75 -53 -200 -53
t-211 61q-47 33 -68.5 84t-13.5 107q19 132 166 202q47 23 124 54.5t83 33.5q-29 47 -50.5 94.5t-17.5 102.5q4 90 62.5 163t150.5 118t182 41t148.5 -44.5t63.5 -104.5t-24.5 -120.5t-87.5 -97.5t-182 -92l-20 -8q46 -73 65 -127q40 -112 -14.5 -230t-155.5 -184z" />
    <glyph glyph-name="nine" unicode="9" horiz-adv-x="970" 
d="M623 993q-137 2 -232 -147t-89 -265t110 -120q141 -3 252 108q29 72 58.5 138.5t33.5 134.5t-35 108.5t-98 42.5zM152 160q-14 57 -49 46t-50 -36q-14 -26 -2 -64t48 -57.5t77 -19.5q92 4 152.5 47t122.5 114t174 273l12 22l-8 -4q-109 -77 -240 -73t-200.5 67.5
t-63.5 165.5q8 143 148 271t356 120q157 -9 229 -106q72 -100 61 -228t-83 -256q-59 -113 -166 -219q-80 -84 -177 -139q-260 -149 -370.5 -99t-134.5 93q-44 79 -6 151q23 49 82.5 67.5t97.5 -17.5q51 -58 -10 -119z" />
    <glyph glyph-name="colon" unicode=":" horiz-adv-x="256" 
d="M276.5 439.5q24.5 33.5 60.5 43.5t62.5 -7t27.5 -52t-23.5 -68.5t-60.5 -43.5t-62.5 6t-27.5 52t23.5 69.5zM151.5 128q24.5 34 60.5 44t61.5 -7.5t27.5 -52t-23.5 -68.5t-60.5 -44t-61.5 8t-27.5 52t23.5 68z" />
    <glyph glyph-name="semicolon" unicode=";" horiz-adv-x="256" 
d="M278.5 483.5q34.5 10.5 61.5 -7t28 -52.5t-23.5 -68.5t-60.5 -43.5t-61.5 6t-27.5 52t23.5 69.5t60 44zM231.5 173q22.5 -15 24.5 -53t-60.5 -120t-207.5 -123q-10 -2 -12.5 6t8.5 13q82 20 137 79q20 16 33 43q-51 0 -56 58q-2 33 20.5 62.5t56.5 39.5t56.5 -5z" />
    <glyph glyph-name="less" unicode="&#x3c;" horiz-adv-x="737" 
d="M545 715q26 11 32 -4q15 -32 -22 -43l-418 -170l414 -168q29 -13 21 -35q-3 -8 -13 -13t-22 1l-471 194q-16 5 -18 19t18 22z" />
    <glyph glyph-name="equal" unicode="=" horiz-adv-x="776" 
d="M551 403h-506q-23 0 -22.5 23t22.5 23h506q9 0 22 -21q1 -25 -22 -25zM672 539h-506q-25 -1 -25 23t25 24h506q9 0 22 -23q1 -24 -22 -24z" />
    <glyph glyph-name="greater" unicode="&#x3e;" horiz-adv-x="737" 
d="M162 715l481 -197q21 -8 19 -21t-19 -20l-471 -194q-24 -12 -36 12q-8 22 22 35l413 168l-417 170q-36 12 -28 36q8 23 36 11z" />
    <glyph glyph-name="question" unicode="?" horiz-adv-x="860" 
d="M58.5 126q25.5 34 62.5 45t63.5 -7t27.5 -54t-24.5 -70t-62.5 -45t-63.5 6t-26.5 54q-2 37 23.5 71zM446 795q43 0 59.5 -21.5t17.5 -45.5q2 -47 -44 -74t-92 -16q-88 21 -96 124q-8 81 37 142q101 139 239 173q92 23 161 -2.5t97 -95.5q46 -110 -34 -214.5
t-235.5 -201.5t-285.5 -262l-57 -74l-8 6q-6 0 -10 3l45 75q88 155 211.5 262t169.5 154t59.5 101.5t-6.5 99.5q-39 88 -166 73q-108 -16 -160 -131q-39 -81 2.5 -122.5t73 -23.5t30.5 38t-14 33h6z" />
    <glyph glyph-name="at" unicode="@" horiz-adv-x="1150" 
d="M704.5 735.5q-40.5 1.5 -97.5 -22t-121 -100.5t-78.5 -159t28.5 -116q27 -23 90.5 10t141.5 145t77.5 176.5t-41 66zM1069 563q0 39 -3 83t-31.5 84t-89 73t-175.5 33q-116 0 -227 -35t-193 -90q-233 -174 -233 -381q0 -156 151.5 -232t377.5 -39t362 160q10 10 16 6
t-2 -14q-77 -77 -188 -129q-195 -96 -411.5 -90.5t-311.5 100t-95 186.5t50 209.5t245 239.5q237 148 480 152q216 0 292.5 -89.5t46 -223t-181.5 -253t-242 -125.5q-90 -6 -111.5 47t-8.5 97q0 6 2 11t4 11q-107 -125 -159.5 -155t-109.5 -22q-105 16 -110 151
q-2 98 70.5 196.5t210.5 175.5q98 58 190 58q33 2 56.5 -16.5t27.5 -53.5q5 -15 -4 -57l65 102q24 -8 64 -8q41 0 65 10l-124 -198q-91 -152 -50 -203q32 -41 120 -2.5t126.5 115.5t38.5 116z" />
    <glyph glyph-name="A" unicode="A" horiz-adv-x="1292" 
d="M1053 152q5 -21 26 -21t47 30q25 30 42.5 86t17.5 120t-23 131q-17 -28 -50 -97q-79 -163 -60 -249zM748 539q0 -20 8 -37q12 12 71 66t113 108q-90 9 -141 -38.5t-51 -98.5zM1010 696q78 -33 143 -121q38 52 104 146l203 274q-73 58 -231 -84.5t-219 -214.5zM915 419
q0 -30 -25.5 -60.5t-70.5 -42.5t-98 14q-88 -134 -125 -174q-181 -217 -408 -187q-88 10 -137 52t-64.5 96.5t0 113t83.5 135t231 40.5q-10 -6 -12 -8.5t-20 -10.5t-27 -27.5t-6 -57t87.5 -52.5t241.5 104l74 56q-23 41 -23 80q0 72 49 134t133 87t173 0q5 1 27 29
q57 73 204.5 184t215 121t83.5 6l70 96q28 40 32.5 27t-12.5 -39l-65 -95q16 -10 18 -20q18 -37 -6.5 -65.5t-52.5 -49.5l-21 -14q4 4 5 7t6 7q11 37 4 66l-187 -273q-63 -90 -112 -170q6 -14 12 -27.5t10 -29.5q37 -117 4.5 -233.5t-120.5 -204.5t-150 -63t-53 102
q18 163 252 479q-10 10 -17 22q-49 68 -131 95l-31 -37q-35 -47 -70.5 -93t-72.5 -94q14 -6 41 -6t55 29q6 -18 6 -48z" />
    <glyph glyph-name="B" unicode="B" horiz-adv-x="1185" 
d="M844 530q82 -16 155 21q-35 51 -94 78q-2 2 -6 2q-14 -25 -27.5 -50.5t-27.5 -50.5zM1028 567l4 4q18 12 46 47.5t43 81.5q36 110 -11 198q-14 26 -20 38q-61 -76 -181 -289q3 -2 41 -18q38 -17 78 -62zM887 1020q-145 0 -202.5 -65.5t-72.5 -112.5l-18 -60h-2
q-72 25 -117 25q-44 0 -143 -27l33 41q85 101 217.5 163.5t265.5 62.5t229 -58v2q119 111 195 111t109 -20q62 -39 46 -93q-8 -29 -37.5 -46t-58.5 -1q-27 16 -20 49l6 13l4 4q11 -32 32 -21.5t25 29.5t-12 35q-37 50 -111 25q-74 -24 -143 -111q6 -4 32 -31t48 -79.5
t17 -112.5q-11 -132 -160 -199q41 -55 59 -137q18 -118 -29 -207q-68 -141 -216.5 -204t-251.5 -22t-122 52q105 56 226 239l6 15q25 -34 73 -49t103 5q55 21 96 80.5t37 147.5q0 33 -16 65q-94 -33 -180 -14q-92 -166 -150 -252q-84 -125 -208 -210t-277 -101
q-70 -8 -125.5 10.5t-69.5 54.5q-8 20 -2 41t26 28q43 15 54 -15q14 -41 -14.5 -45.5t-42.5 2.5q-4 -2 -5 -13q8 -16 49.5 -31.5t98.5 -10.5q137 12 243.5 144t122.5 157l134 203q20 30 31.5 46.5t21.5 32.5q-96 59 -96 125q-2 31 21.5 49.5t44.5 12.5q43 -13 34 -48
q-11 -24 -31 -20t-23 8t-5 7t-7 3q-13 -44 18.5 -74t42.5 -36t13 -9q171 251 322 396q-66 51 -168 51z" />
    <glyph glyph-name="C" unicode="C" horiz-adv-x="714" 
d="M437 765.5q-23 -28.5 -23 -70.5t45 -68q2 2 2 4l69 112q-4 12 -11 25.5t-33 19.5t-49 -22.5zM46 579.5q77 161.5 194 274.5t198 163.5t185 64.5t174.5 -44t70.5 -157q-4 -120 -102 -211.5t-238 -91.5q-39 0 -67 10q-59 -105 -105 -100q-28 3 -40.5 14.5t-9.5 24.5
q7 29 32 32q14 0 24.5 -11.5t-1.5 -21.5t-5 -10q36 0 84 80q-80 41 -88 125q-6 51 20.5 96t67.5 69.5t87 22.5t77 -43l25 41l26 4l-174 -290q-2 -2 -2 -5q117 -44 219.5 71t104.5 195.5t-25.5 131.5t-160.5 34q-132 -17 -270.5 -168.5t-158.5 -316.5q-12 -149 54 -247.5
t174 -110.5q147 -18 272 88l23 20q-29 -76 -74 -133q-78 -104 -189.5 -158.5t-227.5 -46.5t-183.5 99t-67.5 218q0 126 77 287.5z" />
    <glyph glyph-name="D" unicode="D" horiz-adv-x="1044" 
d="M623 1018q-163 0 -284 -98.5t-155 -249.5q-20 -94 23.5 -185.5t116.5 -126.5q20 31 36.5 59.5t65.5 105.5q179 281 334 429q6 6 12 12.5t14 12.5q-78 41 -163 41zM446 305q-8 0 -18 -2q-19 -32 -29 -45q-76 -119 -189.5 -203t-252.5 -102q-66 -10 -116 5.5t-60 41.5
q-21 56 20 74q14 6 28.5 3t18.5 -18q4 -10 0 -23t-18 -20t-31 0h-4q-8 0 -2 -10q6 -16 44 -29.5t89 -6.5q135 19 231.5 150.5t143.5 203.5q-2 2 -4 2l-2 2q-76 39 -120 143t-22 192q43 177 170 280.5t308 103.5q96 -1 186 -46q128 98 227 41q49 -26 35 -84
q-6 -26 -33.5 -42.5t-52.5 -0.5q-29 14 -20 43q2 4 3 6.5t3 6.5l2 2q12 -27 42 -10t3 51q-51 64 -110.5 27t-75.5 -54q19 -10 43 -29q130 -104 164 -305.5t-46 -365.5q-167 -322 -538 -322q-96 0 -157.5 24.5t-84.5 45.5q49 27 105 82t82 94t29 45t7 10q106 -46 247 -2.5
t200 146.5q73 127 66 279.5t-113 246.5q-8 6 -14.5 12t-16.5 10q-62 -72 -124 -182t-97 -174.5t-70 -130t-73 -131.5q114 7 181.5 82.5t96.5 146.5l2 2q0 2 5 10t10 6q5 -3 4 -14q-27 -91 -95.5 -168t-189.5 -98q-9 -2 -17 -2z" />
    <glyph glyph-name="E" unicode="E" horiz-adv-x="706" 
d="M600 889q0 23 -18.5 17t-18.5 -22t10 -36l5 4q22 10 22 37zM475 657q-24 0 -49 -6q43 -37 96 -37q20 0 23 19q0 24 -70 24zM600 225q-6 21 -43 21t-103 -30q-67 -30 -122 -85q86 -61 158 -22t94 67t16 49zM584 924q41 0 41 -38q0 -20 -37 -57q30 -35 76 -35t84 35t52 79
t1 83t-65 61t-150.5 -22t-163.5 -170q40 -15 67 -18q4 35 35 58.5t60 23.5zM283 982q0 24 14.5 40t34.5 16t35.5 -13t5.5 -35t-29 -16q-18 7 -21.5 11t-7.5 8q-2 -5 -2 -21t19.5 -44t62.5 -51q28 54 79 99q175 156 304 83q60 -35 60 -102t-47 -130q-45 -53 -105.5 -80.5
t-107.5 -27.5t-76 49q-14 25 -15 51q-35 6 -75 23q-43 -98 -9 -164q39 8 63 8q125 0 112 -65q-12 -47 -84.5 -33.5t-100.5 49.5h-2q-4 -4 -37.5 -23.5t-69.5 -62.5q-56 -68 -57 -199q0 -131 86 -209q96 115 248 125q35 2 53.5 -20t12.5 -58q-11 -69 -123 -153t-248 -76h-8
v-12q0 -77 43 -92v2l-2 8q0 16 11.5 28.5t29.5 12.5t25 -18.5t-1 -34.5q-18 -35 -48 -35t-46 12q-34 27 -35 96q0 15 4 35q-103 11 -164 82t-66 166q-5 96 84 236t284 221q2 0 3 1t3 1q-38 89 12 186q-6 4 -11 6t-29 18t-43 47t-19 55z" />
    <glyph glyph-name="F" unicode="F" horiz-adv-x="946" 
d="M678 492q-25 2 -73 6t-103 0l-23 -2q6 -29 6 -56q4 -72 -35.5 -122t-107.5 -57t-97.5 28t-25.5 78t55.5 88t103.5 52t64 9q-10 30 -46 62t-91 40t-104 -8q-91 -31 -126 -98.5t-31 -125.5q6 -100 79 -157t178 -53q127 4 272 184q65 75 105 132zM453 494
q-114 -18 -145 -80.5t1.5 -85.5t73.5 -16t62.5 56.5t7.5 125.5zM625.5 628.5q36.5 8.5 60.5 48.5t39.5 108t-20.5 137q-125 -87 -134.5 -161.5t4.5 -107.5t50.5 -24.5zM821 524q50 9 89 40t38 45q-4 28 -31 12q-52 -30 -96 -97zM776 326q0 12 15.5 13t21.5 -15
q9 -38 -17 -41.5t-38 11.5q-22 28 -16 86t32 112q-18 0 -29 2q-41 -102 -60 -168t-37 -110q-45 -108 -90 -167t-150 -80q-104 -22 -180 8.5t-127.5 90t-77 138t-23.5 166.5t60.5 171.5t169.5 100.5t184 -52q39 -33 55 -72q43 6 82 6l151 4q23 35 43.5 66t50.5 78
q92 142 170 208q77 66 152 76q22 5 56 -6q16 -8 9 -17t-21 0q-27 18 -148.5 -39.5t-251.5 -365.5q-2 0 -2 -4l33 -2q72 107 137 123q18 4 34.5 -9t16.5 -47t-37 -64.5t-102 -34.5l-41 -3q-53 -97 -27 -163q0 -4 1 -3t1 3zM1688.5 1131.5q34.5 -21.5 42.5 -57.5t-12.5 -78
t-71.5 -66q-89 -41 -193.5 -23t-244.5 70q-140 51 -265 31.5t-213 -70.5q43 -69 39.5 -182t-80.5 -158.5t-128 14.5q-20 24 -23.5 76.5t20.5 106.5q45 85 129 147q-37 41 -85 37t-75.5 -30.5t-29.5 -51.5h-2q-41 4 -80 -19.5t-58 -62.5q0 59 41 119.5t107 85.5t121 6.5
t90 -63.5q94 56 236 73t280 -30q60 -24 151 -25.5t137 7.5t52 36q10 46 -32 55t-81 -14q-4 -2 -10 -4q2 2 3 4t10 10t45 36t91 35t89.5 -14.5z" />
    <glyph glyph-name="G" unicode="G" horiz-adv-x="720" 
d="M342 735q84 21 81 49.5t-26 33.5t-39 -20.5t-16 -62.5zM-4.5 -510q63.5 0 160.5 109q52 56 119 176.5t92 156.5q-76 -7 -129 -26q-144 -54 -262.5 -142t-100.5 -192q6 -39 31.5 -60.5t89 -21.5zM283 729v14q0 88 53.5 130t97.5 42t60 -12t27 -41t-22 -68
q-55 -67 -155 -81q10 -47 50 -71t94 -18q112 11 179.5 74t96.5 146q29 84 -14.5 158t-158.5 63q-115 -10 -226 -94q-119 -95 -195 -219q57 -23 113 -23zM80 778q-81 57 -76 123q0 33 25 51.5t47 11.5t31.5 -21.5t0.5 -35.5t-32 -15t-31 19l-4 2q-12 -29 8.5 -62.5
t46.5 -53.5q67 77 147.5 140.5t154 106.5t180.5 52q107 10 170 -48t55 -167q-8 -108 -110.5 -199.5t-241.5 -87.5q-55 0 -102.5 31.5t-61.5 83.5q-66 0 -127 24q-76 -139 -54.5 -273.5t106 -195t189.5 -45t141 41.5t46 36l10 17q10 18 30 42t38 18.5t22 -29t-11 -55.5
t-59 -52q-33 -18 -74.5 -91t-65 -115t-40.5 -65q45 -5 70 -27t20.5 -56t-39.5 -54q-14 -8 -34.5 -6t-30.5 24t14 39q25 18 34 15q9 -2 11 0q-16 31 -67 32q-61 -90 -86 -145q-138 -260 -320.5 -418t-294.5 -94q-78 49 -43.5 167t97.5 187q111 123 250 208t274 114
q49 12 98 16q4 6 66.5 114t67.5 113q-86 -98 -197 -153t-227 -43t-204.5 146t4.5 331t179 301z" />
    <glyph glyph-name="H" unicode="H" horiz-adv-x="1093" 
d="M819 655q138 73 232 182q95 109 104.5 158t-3.5 61q-27 26 -112 -64t-142 -187q-57 -96 -79 -150zM592 549q-8 0 -17 -2q-93 -221 -142.5 -296t-79.5 -114q-67 -87 -166 -141t-187 -16q35 29 70.5 90t57.5 134t22 122q95 -39 186.5 31.5t161.5 187.5q-97 0 -114 -20.5
t-15 -41.5q41 20 41 -11.5t-22 -36.5t-37 12.5t-11 45.5q7 49 47 60.5t127 17.5q35 59 68.5 121t68.5 123.5t59.5 112.5t55.5 92q-76 4 -195 -22t-189.5 -98.5t-78.5 -110.5q-13 -61 51 -104t203 101q26 26 82 117q2 -10 0 -13t-5 -18q-8 -41 -116 -161t-205.5 -145t-118 19
t-9.5 91q20 85 94.5 161.5t136.5 111.5q179 100 366 91q4 4 8.5 9.5t12.5 13.5t23.5 13t31.5 -6t0 -29.5t-38 -21.5t-34 -16.5t-22 -31t-20 -35.5t-34 -60t-53 -117t-47 -120t-24 -64q77 9 118 28.5t62 27.5q60 129 134 233q150 213 239 221q33 2 41 -23.5t-3 -61.5
q-25 -81 -119 -194t-163.5 -146t-89.5 -44q-48 -141 -28 -253q19 -112 77.5 -151.5t126.5 28.5q30 30 45.5 65t17.5 39q14 37 13.5 18.5t-28.5 -112t-106.5 -207.5t-177.5 -82q-114 35 -101.5 219t85.5 365q4 12 10 24.5t11 24.5q-25 -12 -73.5 -26.5t-62.5 -16.5t-22 -2z
" />
    <glyph glyph-name="I" unicode="I" horiz-adv-x="751" 
d="M668 451q74 -8 124 46.5t43 119.5t-51 112q-14 -29 -39.5 -79t-76.5 -199zM756 758q-67 49 -124 53t-73 2q-56 -83 -40 -179.5t56 -137.5q68 92 177 254zM582 846q114 0 192 -62q104 159 197 238q10 10 22.5 19.5t22.5 17.5q-311 -72 -434 -213zM82 -10q-82 39 -82 166
q0 126 78 179.5t153 55.5h19q-8 -6 -10 -8t-11 -10q-35 -35 -20 -75t53 -44q108 -18 246 156q26 31 43 55q-43 41 -65.5 113.5t6.5 181.5q6 25 18 49q-31 -4 -90 -27q-58 -22 -95.5 -60t-33.5 -79q4 0 10 8t37 8t37 -34q4 -20 -11.5 -36t-45.5 -19t-68.5 46t45.5 127.5
t235 98.5q108 155 328 208.5t239 49.5t7.5 -15.5t-40.5 -24.5t-77 -59q-102 -95 -184 -239q63 -63 65 -149q2 -85 -60 -147t-153 -50q-20 -55 -57.5 -162.5t-133.5 -193t-198 -97.5t-184 27z" />
    <glyph glyph-name="J" unicode="J" horiz-adv-x="585" 
d="M418 223q-53 0 -90 -14q-173 -65 -245 -171q-30 -44 -28 -90q4 -91 62 -93q84 -6 173 140q47 77 78 137q32 61 50 91zM200 242q-34 0 -63 14q-61 32 -86 104t8 150q59 140 238 219q247 107 367 184q24 13 34 23t27 22q4 20 10 60t33 66q48 48 76 23q12 -11 8 -55t-25 -63
q-22 -18 -33 -26q-12 -8 -24 -43t-28 -76l-32 -82q-17 -41 -40 -89t-87 -197t-114 -228q29 -6 46 -29t12 -53t-31 -45q-10 -6 -25 -3q-14 4 -19 24t10 32t21 12t11 -4l4 2q-8 27 -45 37q-36 -60 -80 -147q-43 -88 -108 -178q-137 -191 -246 -229q-56 -19 -89 12
q-32 31 -34 75q-3 84 62 200t203 208q139 92 273 92q69 121 153 310t134 349q-13 -9 -26 -15t-85 -50q-72 -43 -164 -86q-93 -43 -129 -70q-36 -26 -66 -71q-30 -46 -34 -96t25 -80q30 -31 72 -31t77 33t41 51q2 -28 -9 -78t-42 -95t-111 -71q-36 -12 -70 -12z" />
    <glyph glyph-name="K" unicode="K" horiz-adv-x="1112" 
d="M733 614q8 -2 30 5t-2 31q-23 23 -39 4q-7 -7 -7 -15q-5 -19 18 -25zM817 618h-2q29 -74 26 -122t-8 -110t3 -116q19 -127 143 -135q51 0 99 51q19 20 30 38t25 36q-36 -89 -144 -209q-127 -127 -235 -78q-125 61 -99 220q10 69 41 136q30 66 60 129t30 113
q-94 -138 -226 -280t-218 -209q-144 -119 -303 -122q-57 -1 -109 26q98 50 187 198q28 49 47 113q147 -81 452 160q82 72 127 125q-29 -2 -55 22t12 69q10 11 32 15q41 8 65 -37q63 88 89 165t22 124q-3 47 -40 76q-70 43 -181 7q-34 -11 -57 -25q-24 -14 -44 -24
q-70 -38 -103 -112q-21 -47 17 -85q48 -51 159 -7q31 12 66 37l-47 -47q-125 -117 -224 -125q-102 -8 -126 64q-12 36 12 89q43 99 165 174t244 99q74 12 125 -17q27 -14 47 -48q33 -56 -1 -167q-19 -67 -70 -153q23 18 38 34q173 178 316 261q144 83 247 75q48 -5 71 -49
q10 -18 5 -43q-8 -38 -57 -41q-12 0 -23 20t11 40q19 12 35 6h2q6 2 2 10q-16 33 -63 34t-95 -15q-169 -51 -428 -310q-20 -18 -47 -43t-45 -34z" />
    <glyph glyph-name="L" unicode="L" horiz-adv-x="700" 
d="M369 201q-93 93 -179 98q-36 3 -58 -19t-10 -59q19 -55 120 -58q35 -1 61 9l39 15q12 5 27 14zM715 625q125 31 249 152q40 40 72 90t37 84q6 34 -8 43t-46 3t-72 -44q-40 -39 -61 -69t-44 -61q-24 -31 -46 -63t-41 -67q-19 -34 -40 -68zM555 851q0 -38 25 -67v-2
q-23 -14 -31 -48q-14 -60 45 -93q24 -16 63 -16q25 49 51 107t60 127q59 121 156 190q59 41 109 45q51 4 71 -14q38 -32 15 -118q-22 -87 -84 -154q-135 -145 -267 -195l-72 -19q-8 -16 -15 -32t-37 -79q-30 -64 -71 -172q-40 -108 -92 -174l25 -18q16 -14 94 -86
q77 -72 122 -101t86 -37q42 -7 69 5t28 40q2 28 -28 42l-17 8q101 34 163 -31q62 -64 44 -139q-19 -84 -133 -105q-150 -27 -292 156q-56 72 -117 154q-61 81 -66 81q-25 -35 -53 -59q-142 -130 -281 -70q-91 39 -114 118q-34 115 31 187q65 71 164 56q58 -8 144 -78
q17 -14 45 -45q75 52 129 137q34 50 60 108t59 130q-19 0 -34 3t-23 4q-40 5 -69 38q-80 89 -22 195q31 62 85 94q-25 -35 -25 -73z" />
    <glyph glyph-name="M" unicode="M" horiz-adv-x="1327" 
d="M1203 526q-9 -58 -9 -142q0 -180 90 -247q-50 -35 -92 -92q-53 -65 -85 -137t-36 -123q-89 70 -100 195t17 216q63 204 132 351q69 148 203 336q4 8 9 13t9 11q-91 -79 -227 -264q-121 -177 -201 -358q-43 -105 -63 -146q-2 -1 -36 -17t-94 -62q-58 -46 -95 -93
q-18 37 13 86q32 49 151 273t171 362t46 232q-13 -98 -85 -220q-73 -123 -165 -244t-206 -235q-114 -113 -191 -176t-160 -87t-143 -26t-113 27q47 23 112 92t115 183q12 30 20 55q57 -30 122 -21q137 17 356 191q164 130 247 294q68 126 64 218q-2 51 -34 73
q-52 36 -127 30q-76 -6 -138 -44q-112 -49 -152 -141q-21 -51 19 -92t108 -25q68 10 129 57l-51 -49q-124 -124 -236 -133t-133 67q-11 38 13 95q44 99 190 197q181 112 323 90q169 -27 150 -240q-8 -86 -53 -194q-46 -108 -160 -332q91 138 207 278q246 299 382 396
q93 65 173 61q43 -1 73 -21q61 -42 42 -94q-10 -29 -40 -45t-56 0q-25 16 -19 47q7 14 10 17q15 -30 33 -21q42 23 15 64q-38 45 -121 20q-106 -38 -172 -151q-64 -97 -103 -197t-48 -158z" />
    <glyph glyph-name="N" unicode="N" horiz-adv-x="1310" 
d="M1196 598q0 -112 4 -171.5t2 -117.5q25 43 47.5 85t68.5 114q268 416 501 536q84 45 159 52q74 2 144 -31q41 -23 63.5 -67t16.5 -77q-11 -58 -60 -89t-96 -9q-23 10 -37.5 39t4.5 62l2 2q0 2 2 4q4 -4 9.5 -12.5t21.5 -15.5t38 6.5t28 43.5t-16 50q-85 85 -223 25
q-137 -59 -233 -161q-164 -174 -307 -411q-40 -72 -80 -155t-92.5 -176t-132.5 -165q-8 -8 -19 -15t-23.5 -15.5t-10.5 -0.5q4 16 13.5 46t19.5 82t11 180t7 228.5t30 167.5q84 230 144 339l-14 -17q-182 -192 -241 -272q-60 -79 -105 -141t-111.5 -156t-117.5 -164
t-165 -168t-187 -117q-122 -33 -183.5 1t-72.5 93q-22 115 57 223t221 120h20q-10 -8 -13 -10.5t-21 -15.5t-25.5 -37.5t-1 -59.5t50.5 -43q80 -18 172 30t162 115q69 72 214 255t245 293q101 109 118.5 126.5t43.5 48.5t39 38q21 11 34.5 -0.5t1.5 -25.5l-6 -14
q-121 -238 -121 -475z" />
    <glyph glyph-name="O" unicode="O" horiz-adv-x="845" 
d="M514 727q16 14 11 32.5t-27 23.5t-38 -22.5t-14 -64.5q39 11 68 31zM387 688q-14 98 47.5 150.5t117.5 54.5t81 -43.5t-28.5 -103.5t-153.5 -74q12 -47 56.5 -69.5t98.5 -16.5q112 12 178 82t91 155q24 85 -26 161.5t-169 60.5t-225 -107q-96 -77 -160 -240
q49 -12 92 -10zM393 666q-42 -3 -106 12q-38 -110 -39.5 -151.5t2 -90.5t27.5 -84q52 -74 143 -96.5t203 29.5q75 34 158 138t96 251q4 31 0 63q-41 -78 -122 -131t-186 -53q-59 -2 -109.5 29t-66.5 84zM897 784q6 0 11 -36q13 -94 -28.5 -231.5t-95.5 -223.5
q-99 -160 -234.5 -256t-248.5 -100q-139 -8 -226 98.5t-91 231.5q-8 238 178 472q-72 56 -76 115q-2 35 23 55.5t49 13.5q51 -15 40 -47q-11 -33 -44 -26q-14 2 -19.5 10t-11.5 8q-14 -49 53 -110q16 23 34.5 41t37.5 37q100 100 199.5 162.5t228.5 78.5q155 20 205.5 -86
t15.5 -207z" />
    <glyph glyph-name="P" unicode="P" horiz-adv-x="1001" 
d="M918 1020q-17 11 -76 27q-52 7 -110 -28.5t-79 -90.5q-24 -75 37 -146q10 -10 25 -20q98 154 184 242q4 4 9.5 8t9.5 8zM907 711q8 0 17 2q23 4 13.5 -5.5t-36.5 -14.5q-78 -14 -176 22q-10 -23 -22.5 -47.5t-22.5 -51.5t-21.5 -51t-21.5 -47q157 -35 272 72
q18 18 64 111t27.5 182.5t-64.5 124.5q-6 -6 -52.5 -46t-142.5 -219q59 -33 150 -32h16zM1122 1048q0 18 -24 30q-45 25 -142 -52q59 -43 99.5 -104.5t42.5 -130.5q5 -158 -147 -249q-151 -92 -324 -48q-106 -234 -195 -352.5t-209.5 -215t-275.5 -47.5q41 29 103.5 126
t72.5 231q57 -20 100 -8q91 24 161.5 77t114.5 120t60 89q-61 25 -98 61.5t-43 71.5t17 59.5t49 21.5t39.5 -17.5t8.5 -30.5q-6 -29 -31 -28t-32.5 8.5t-11.5 5.5q-6 -35 32.5 -75.5t83.5 -51.5q35 51 67 102t54 86q-78 36 -119 94q-29 37 -33 87t28 91t98.5 63.5
t143.5 13.5t126 -40q59 50 105 60q45 10 71 1q54 -19 53 -71q-2 -27 -21.5 -43t-48 -6t-28.5 37l2 12q2 2 2 4q4 -8 16 -12t22.5 4t10.5 26z" />
    <glyph glyph-name="Q" unicode="Q" horiz-adv-x="929" 
d="M228 -2q38 0 46 2q-10 10 -21 18t-27 22q-60 49 -99 28q-25 -24 33 -54q30 -16 68 -16zM87 143q46 0 87 -25t75 -54t73 -58q113 20 214 85q176 113 240 306q27 82 32 161q10 160 -67 271q-53 78 -126 101q-144 45 -293 -97q-72 -69 -120 -171t-51 -181q-3 -78 17 -135
q38 -107 128 -142q91 -35 197 22q92 52 142 159q29 61 39 139q15 117 -49 192q-18 22 -43 25q25 -25 11 -50q-13 -25 -36 -33t-45 2q-44 19 -29 64q14 46 54 58q53 12 93 -18t54 -73q24 -72 17 -168q-10 -144 -111 -268q-101 -123 -220 -160q-58 -17 -117 3t-99 78
q-83 121 -45 321q39 200 197 379q158 178 361 216q101 18 177 -21q211 -107 154 -387q-44 -229 -248 -455q-173 -200 -398 -245q66 -43 124 -77q129 -76 182 -54q13 4 29 13t16 37q1 28 -31 42q-8 2 -17 6q100 36 157 -17q56 -53 45 -134q-11 -82 -91 -115
q-163 -67 -350 158q-80 96 -94 108t-17 17q-4 5 -6 5l-2 2q-154 -19 -237 36q-36 24 -48 56t8 54t67 22z" />
    <glyph glyph-name="R" unicode="R" horiz-adv-x="1341" 
d="M983 633v2q-19 48 -61 53q-23 0 -28 -23.5t26 -35.5q22 -6 61 4h2zM1022 649q2 2 16 8t47 39t47 62q26 51 24 128.5t-36 123.5q-67 -72 -119 -158t-79 -129q61 0 100 -74zM1198 137q50 0 85.5 41t47.5 60.5t17 23.5l8 14q-23 -58 -70 -125t-76 -98q-135 -144 -245 -96
q-76 31 -95.5 90t-10.5 115t24.5 101.5t34 86.5t34.5 77.5t32 76.5t9 88q-12 -2 -15 -2h-36q-46 5 -74 33q0 2 -2 4q-147 -272 -232 -399q-85 -128 -214 -217t-289 -105q-74 -8 -132 10t-73 59q-8 20 -1 42t25 29q45 17 58 -15q15 -45 -17 -48t-44 3q-6 -4 -2 -13
q6 -18 49 -34.5t102 -10.5q143 15 256 151.5t180.5 240.5t129.5 197q203 306 387 478q10 10 22 18.5t25 18.5q-30 26 -104 44t-191 -14t-188.5 -117.5t-39 -146.5t93.5 -51q60 10 146 66q20 14 54.5 54t37.5 40q5 -2 -7 -18q-11 -16 -36.5 -51.5t-85.5 -87.5t-126 -82
t-109 -26.5t-71 25t-35 61.5t15 89q41 89 144 166q240 182 379 139t166 -59q132 84 237 22q54 -35 38 -96q-7 -27 -39 -44t-61 0t-20 50q0 12 8 16l1 1q17 -33 37 -22t24 31t-11 37q-47 53 -132 21q-29 -7 -58 -30q30 -19 84 -92.5t6 -179.5t-135 -146q-39 -20 -78 -29
q18 -80 8 -179t-0.5 -155.5t42 -93.5t108.5 -37z" />
    <glyph glyph-name="S" unicode="S" horiz-adv-x="843" 
d="M1111 968q-62 26 -181 -182q-52 -86 -113 -221q20 2 43 13q100 33 185.5 120.5t106.5 165.5t-41 104zM295.5 666q116.5 0 165.5 -24q85 -41 121.5 -135t-32.5 -171t-124 -75.5t-94 23.5t-54.5 67t-1.5 75q38 78 99 72q29 -4 42 -27t13 -41t-8 -27q-4 5 -19 15t-35 4
t-27 -24t1 -45t39 -44q49 -22 96.5 4.5t65.5 70.5q35 86 -8.5 157t-142.5 89q-99 17 -181 -38t-94 -146q-20 -112 52 -189t207 -69t228 117q68 82 144 217l2 4q-128 5 -183 93t-14.5 160t89 79.5t80.5 -4.5t50.5 -39t15.5 -51t-7 -34q-5 -9 -5 -11l-2 -4q-12 22 -40 33
t-55.5 -9t-31.5 -60t35 -73t88 -43q33 61 90 169.5t109 171.5q53 63 82.5 89.5t77.5 54.5t87 26t62 -30t8.5 -95t-68.5 -137q-88 -116 -223 -208q-77 -49 -192 -76q-35 -78 -59.5 -158.5t-51.5 -146.5q-59 -141 -156.5 -208.5t-199.5 -70.5t-189.5 54t-128.5 172
q-58 156 50 328q111 168 227.5 168z" />
    <glyph glyph-name="T" unicode="T" horiz-adv-x="651" 
d="M406 954q-23 -16 -63 -54t-59 -79q-41 -88 -16 -147q16 -39 54 -31t64 51q60 99 40 209q-8 33 -20 51zM-49 107q0 52 23.5 98.5t70.5 79t115 34.5h16q-52 -39 -38 -82.5t86 -40t184 137.5q67 84 110 147.5t67.5 99t56.5 85.5q87 137 181 221q140 116 221 76
q16 -8 9 -18.5t-21 -0.5q-28 19 -93 -10.5t-103 -69.5q-185 -173 -257.5 -398.5t-111.5 -306.5t-113 -147t-164 -78t-140 12.5t-74.5 66.5t-24.5 94zM1356 973q56 0 92 18q-128 -100 -288 -50t-228 76q-124 48 -257.5 32.5t-238.5 -76.5q4 -10 24.5 -48.5t16.5 -131.5
t-57 -156q-29 -38 -80.5 -44.5t-77.5 28.5q-29 33 -32.5 89t20.5 106q43 88 139 161q-39 43 -90 39t-81 -32t-32 -56q-47 4 -87 -20.5t-60 -65.5q0 63 43.5 127.5t113.5 90.5t127.5 5t94.5 -68q163 100 319 85.5t200 -30.5q56 -21 153 -30.5t157 0.5q53 -49 109 -49z" />
    <glyph glyph-name="U" unicode="U" horiz-adv-x="845" 
d="M414 1028q-4 -2 -4 -14t-18 -21q-40 -22 -60 18q-20 39 15 62q34 24 78.5 6t36.5 -104t-53 -163q-44 -77 -97.5 -140.5t-87.5 -133.5t-19.5 -134t45.5 -97q45 -53 139 -30.5t211 137.5q61 63 113.5 135.5t106.5 148.5t115 153t119 125t101 73.5t88 31.5t71 -6t39 -35.5
t10 -49.5t-26.5 -42t-54.5 -1t-22 54l2 3v2q4 -4 7 -7.5t13 -8.5t21.5 3t12.5 28q2 20 -18 33q-35 23 -96.5 -5.5t-126.5 -85.5q-102 -90 -217 -287q-51 -90 -99 -183.5t-136 -236.5t-238 -242q-179 -118 -305 -20q-91 73 -84.5 225t139.5 322q53 70 171 194.5t128 235.5
q6 45 -20 57z" />
    <glyph glyph-name="V" unicode="V" horiz-adv-x="927" 
d="M406 -23q82 135 169 354t87 346t-17 173q-51 162 -219 140q-168 -23 -291 -187q-95 -125 -123 -260q-14 -67 10.5 -138t73.5 -88q4 4 1 11q-13 26 8.5 60t76.5 20q27 -6 34 -40t-5 -57q-29 -53 -114 -62.5t-114.5 116.5t3.5 240t99 203q126 170 303 243q176 72 319 6
q85 -39 147 -162t29 -324q-23 -118 -95 -268l-14 -33q41 51 84 96.5t79 86.5t55 63t123 132t181 179q156 136 271 200.5t224 60.5q201 -9 246.5 -118t-4.5 -166t-112.5 -61t-85.5 39t-12 72q1 4 16 35q31 -61 69 -41t45 44q19 67 -37 103.5t-110 42.5q-112 12 -220.5 -48
t-209.5 -152q-10 -10 -22.5 -19.5t-77.5 -69.5t-160 -165q-96 -105 -189.5 -213.5t-291.5 -317.5q-158 -158 -217 -199q-58 -41 -88.5 -65.5t-46.5 -12.5t0.5 28t122.5 173z" />
    <glyph glyph-name="W" unicode="W" horiz-adv-x="1241" 
d="M748 338q0 -49 8 -80q65 65 143 171q78 105 95 173t-4 88.5t-64 -9.5t-110 -124q-68 -95 -68 -219zM674 940q0 53 -38 78q-70 46 -206 -6q-154 -64 -177.5 -128.5t-23.5 -113.5t69.5 -41.5t125.5 66.5l-12 -19q-46 -75 -155.5 -165.5t-215.5 -41.5q-69 35 -59 111
q13 144 190 272q92 71 255 113t243 -18q47 -35 47.5 -102.5t-59.5 -145.5t-112 -124t-129 -117t-108 -146q-54 -129 -16 -207q40 -90 158 -90q7 0 32 6q-4 106 75 242t157 206q110 104 143 126q87 59 146 52t26 -135q-49 -183 -256 -381q-4 -4 -6 -8q8 -24 31 -45
q48 -42 120 -14q71 27 137 99t110 153.5t114 212.5t124 197q157 189 242.5 185.5t123.5 -28.5t55.5 -73t-5.5 -102t-73 -73q8 6 12 25q10 53 -27.5 83.5t-90.5 36.5q-97 10 -203 -96q-71 -75 -136 -188t-137.5 -247.5t-185.5 -231.5q-203 -174 -336 -172q-111 0 -147 98
q-16 -10 -67 -44.5t-134.5 -48t-138.5 3.5q-107 33 -138 144q-36 163 72 290.5t178 179.5t113 74t104 56.5t125 111.5t64 130z" />
    <glyph glyph-name="X" unicode="X" horiz-adv-x="1191" 
d="M564 400q86 43 130 197q45 154 -51 275q-1 -2 -23 -14q-47 -26 -106 -115q-58 -88 -66 -194q-9 -106 21 -139q14 -18 40 -22t55 12zM1500 891q-40 0 -40 41q0 16 10 29q16 12 37 10h6q6 2 -2 10q-29 47 -100 39t-167 -55q-95 -47 -178 -144q-83 -96 -123 -179
q-78 -162 -69 -298q4 -99 59 -145q72 -64 162 33q37 42 55 78q19 36 16 18q-10 -58 -63 -150q-53 -91 -97 -145q-113 -127 -211 -84q-121 54 -74 280q14 67 61 189q-313 -421 -569 -472q-128 -26 -213 29q43 17 95 65t95 110q39 63 52 106q47 -33 100 -32q126 2 254 81
q176 108 268 311q68 160 12 254q-49 83 -212 11q51 -66 62 -147q12 -80 -14 -156q-46 -136 -124 -188q-77 -51 -122 -6t-43 153q4 216 140 391q-47 14 -92 -6q-27 -14 -36 -43t1 -45v-3q-33 -11 -51 -39t-14 -61q-29 41 -25 96t44 95t92 46q52 5 98 -18q83 100 160 136
q76 36 138 16t85 -80q39 -100 -2 -254q-9 -32 -19 -55q149 206 291 276q132 74 245 50q42 -9 64 -50q10 -16 12 -42t-15 -41t-39 -15z" />
    <glyph glyph-name="Y" unicode="Y" horiz-adv-x="722" 
d="M414 920q8 -4 -14 -44q-21 -40 -66 -95t-93 -94q-94 -77 -154 -48t-40 121q30 122 114.5 191t142.5 101t103 36q77 6 135 -20t70 -78q27 -115 -88 -281q-51 -78 -56 -141.5t27 -85.5q62 -42 134 18q48 33 113 113.5t97 122.5t81 100q21 64 53.5 112.5t45.5 69.5t32.5 28
t29.5 3q46 -12 -22 -97l-62 -78q-107 -138 -196 -313q-55 -102 -105.5 -205.5t-73 -149.5t-56.5 -115t-99.5 -145.5t-130.5 -119.5q-96 -66 -180 -62.5t-131 72.5q-35 47 -22 117t52 119q75 94 181 118l18 5l-23 -23q-36 -42 -19.5 -88t72.5 -48q66 -2 146 58.5t148 154.5
t186 316q14 23 26.5 46.5t26.5 45.5q-16 -18 -50 -66t-112 -147q-78 -98 -127 -139q-105 -88 -198 -57q-70 23 -85 102q-16 80 66 199q33 45 70 86t95 105t83 130t15 112t-57.5 67.5t-92.5 18.5q-93 -6 -176 -75q-57 -46 -86 -112q-23 -66 14 -100t92 -3q54 32 77 56
t36.5 41.5t21.5 30.5t11 14z" />
    <glyph glyph-name="Z" unicode="Z" horiz-adv-x="974" 
d="M1064 1102q-36 0 -89 -166q45 20 76 60t31 73t-18 33zM365 462q0 -30 58 -32.5t191 74.5q-102 64 -214 6q-36 -18 -35 -48zM543 205q-285 -33 -464 -253q-58 -71 -67.5 -131.5t22.5 -75.5q54 -25 155 23.5t171 125.5q125 125 199 288q2 6 4 11.5t4 11.5h-24zM1001 1090
q33 51 74 51t41 -72q0 -41 -43 -91t-112 -81q-109 -236 -277 -381q4 -4 8 -6t16 -11q41 -30 79.5 -100.5t-1.5 -189.5q98 -24 103.5 -81.5t-16 -88.5t-64.5 -21q-16 4 -32.5 21t-9.5 37t22.5 28.5t29.5 4.5q19 0 21 -3q4 33 -14.5 49.5t-49.5 26.5q-12 -34 -57 -102
q-97 -133 -311 -263q-213 -130 -334 -130q-129 4 -114 92t53.5 150.5t88.5 109.5q87 82 211 137.5t242 67.5q16 0 27 2q12 25 34.5 67.5t22.5 90.5t-8 71q-164 -94 -235.5 -77.5t-71.5 62.5t48 74q92 53 210 29q35 -8 69 -24q78 60 133 131q54 71 60 84l76 145
q-149 37 -223 44t-129.5 10t-81.5 -21q-58 -55 -33 -109q10 -18 36.5 -28.5t44.5 -2.5q19 9 31 15q-49 -113 -150 -123t-165 60q-33 36 -34 97.5t30 112.5q72 119 205 115q113 0 223 -41t147 -54t62.5 -23.5t50.5 -18.5q35 106 67 158z" />
    <glyph glyph-name="bracketleft" unicode="[" horiz-adv-x="956" 
d="M121 -111h270l-20 -34h-359l862 1376h343l-19 -37h-260z" />
    <glyph glyph-name="backslash" unicode="\" horiz-adv-x="987" 
d="M92 1094q12 0 17 -7l815 -1224q12 -18 -6 -27q-16 -12 -29 4l-813 1225q-2 22 4 29h12z" />
    <glyph glyph-name="bracketright" unicode="]" horiz-adv-x="1107" 
d="M143 -111l813 1305h-260l29 37h342l-858 -1376h-359l23 34h270z" />
    <glyph glyph-name="asciicircum" unicode="^" horiz-adv-x="460" 
d="M375 1157l-115 94l-162 -94h-37l177 141h67l107 -141h-37z" />
    <glyph glyph-name="underscore" unicode="_" horiz-adv-x="1390" 
d="M733 645h-71v191q0 18 43 43h-173q37 -25 37 -45v-189h-67v121q0 12 26 25h-102q23 -12 23 -25v-277q0 -10 -23 -26h102q-27 14 -26 26v115h67v-219q0 -18 -39 -43h344l72 100q-49 -37 -98 -36h-186v198h71v-115q0 -10 -22 -26h102q-27 14 -27 26v115h58q27 0 43 -16v78
q-23 -18 -45 -19h-56v103h154q22 -1 55 -17l-26 58h-258q23 -12 22 -25v-121zM705 231q0 20 -11 31h-2q-8 -16 -8 -31v-8q-6 6 -13 3t-5 -7t3 -9.5t8 -19.5t10 -32t7 -33q2 6 2 14t4 20t10 29q7 17 9 22t4 9q4 4 0 4q-12 6 -18 0v8zM346 858v78q117 0 258 55q97 33 190 -4
t228 -49h22v-78h105q80 -201 53.5 -296t-82.5 -124q-94 -48 -74.5 -100.5t31.5 -69.5q-23 -8 -47 -18t-126 -51t-210 -115q-101 70 -205 113q-104 42 -128.5 51.5t-47.5 19.5q80 106 -53 176q-45 24 -73.5 120.5t55.5 291.5h104zM1065 348.5q0 47.5 63 79.5q103 58 92 193
t-61 253h-100v76h-19q-112 0 -249 56q-92 36 -194 -4t-228 -52h-37v-78h-101q-131 -361 33 -444q62 -32 62 -78t-37 -86q264 -93 405 -196q98 74 289 151q33 12 62.5 23.5t56.5 21.5q-37 37 -37 84.5zM285 920v81q4 0 36.5 -3t103.5 6.5t141 37.5q127 50 228 12t171.5 -48.5
t103.5 -7.5t37 3v-79h84q27 -54 79 -249t-120 -286q-57 -30 -28.5 -71.5t47.5 -56.5l20 -15l-59 -20q-138 -45 -259.5 -107t-171.5 -107l-4 -2q-90 90 -282 162t-207 72l18 16q48 43 49.5 77t-30.5 52q-123 65 -117 215.5t40 231.5t36 86h84z" />
    <glyph glyph-name="grave" unicode="`" horiz-adv-x="290" 
d="M289 553q-2 0 -2 -2h-2l-203 213q-66 66 -63 89t30 17q8 -2 25 -14q17 -17 51 -70l166 -231q0 -2 -2 -2z" />
    <glyph glyph-name="a" unicode="a" horiz-adv-x="692" 
d="M395 485q-90 0 -186 -116q-66 -78 -68 -161t54 -83q79 0 165 125t88 180t-53 55zM584 502q33 0 59 10l-119 -186q-61 -98 -61 -136q0 -61 53 -61q31 0 59 31l123 147q8 12 14 11q17 -3 7 -13l-144 -180q-111 -137 -190 -137q-100 2 -100 96q0 20 6 43
q-137 -158 -221 -137q-98 20 -101 135q0 186 254 330q84 49 162 50t84 -65v-12l51 84q31 -10 64 -10z" />
    <glyph glyph-name="b" unicode="b" horiz-adv-x="526" 
d="M365 256l13 30q13 31 15 64q2 32 -11 50q-26 35 -54 20q-27 -16 -32 -49t7 -68t32.5 -40t29.5 -7zM262 512q282 201 416 385q27 39 21.5 60.5t-39.5 4.5q-67 -34 -170 -151q-103 -118 -155 -191t-58.5 -84.5t-14.5 -23.5zM80 429q168 248 287 374q97 108 192 172
q141 84 181 37q41 -47 -74 -172q-165 -184 -340 -308q-41 -26 -84 -57q-2 -4 -5.5 -9.5t-12.5 -19.5t-29.5 -44.5t-36.5 -71.5q-59 -120 -23 -183q10 -18 35 -26t77.5 4t100.5 102l6 9q-66 7 -90 66.5t-14 120.5t47 77q68 29 108 -19q39 -48 11 -166q-14 -36 -27 -57
q31 10 54.5 32.5t32.5 42.5t18.5 18.5t-2.5 -25.5q-27 -55 -76 -78q-14 -8 -39 -12l-27 -52q-72 -126 -156 -167t-131 -27q-78 23 -89.5 83.5t6.5 148.5q19 87 100 207z" />
    <glyph glyph-name="c" unicode="c" horiz-adv-x="430" 
d="M295 387q0 23 18 47t35 23q17 0 33 -8q-2 35 -47 40q-29 6 -75 -17.5t-84 -75.5t-51 -119.5t26 -120.5q23 -35 79 -40t110 32t103 88t66 77t29 19q12 -2 -1 -19q-28 -37 -50 -60t-52 -56q-191 -209 -327 -210q-77 -1 -113.5 48t-36.5 139t124.5 213t248.5 123
q29 0 51 -17.5t22 -50.5t-20.5 -61.5t-54.5 -28.5t-33 35z" />
    <glyph glyph-name="d" unicode="d" horiz-adv-x="651" 
d="M412 473q-29 33 -96 5.5t-123 -96.5q-55 -69 -64 -141t29 -106q25 -20 86.5 10t134 156.5t33.5 171.5zM575 424q13 13 51 55t136 151t141 181q44 73 29 82q-27 20 -88 -43q-95 -112 -152 -216t-96 -173zM993 920q0 -34 -21.5 -68t-42.5 -64t-51 -67t-70 -83t-86 -99.5
t-86 -97.5t-69.5 -76.5t-58.5 -63.5q-63 -107 -35 -158q16 -27 48 -19.5t54 36.5l105 135q10 14 19.5 12t2.5 -12l-127 -178q-49 -68 -100 -98.5t-88 -28.5t-76.5 36t0.5 138q-103 -127 -153 -153t-101 -17q-93 15 -102 135q-4 90 58.5 177.5t166.5 145.5t191 58
q64 0 78 -66v-30q41 81 111.5 187t95 136.5t56 70.5t111 117.5t125 53t45.5 -58.5z" />
    <glyph glyph-name="e" unicode="e" horiz-adv-x="397" 
d="M334 496q-66 0 -128 -60t-79 -164q83 0 128.5 37t66.5 56q40 45 40 88t-28 43zM410 455q0 -94 -144 -170q-86 -45 -139 -49q10 -121 100 -119q77 4 160 92q54 54 72 78t28 35q8 6 15 2q12 -2 -3 -20t-29 -36q-13 -19 -33.5 -41t-47.5 -52q-87 -97 -145 -146.5t-125 -46.5
q-67 4 -106.5 46t-40.5 98q-2 96 64 196t157 153q132 69 174.5 38.5t42.5 -58.5z" />
    <glyph glyph-name="f" unicode="f" horiz-adv-x="241" 
d="M794.5 995q0.5 33 -26.5 20t-66 -49t-114 -124q-74 -88 -121 -164q-4 -4 -7 -10t-7 -11q79 55 157 129q184 176 184.5 209zM590 614q12 0 12 -8l-2 -12q0 -8 -10 -8h-178l-574 -903q-45 13 -99 7l-26 -3l582 899h-78q-14 0 -10 8v12q0 8 10 8h98q124 189 205 275
q176 190 277 190q18 0 32.5 -11.5t15.5 -39.5t-71 -115q-136 -152 -280 -256q-10 -10 -25.5 -19t-34.5 -24h156z" />
    <glyph glyph-name="g" unicode="g" horiz-adv-x="608" 
d="M168 -33q-12 -4 -31.5 -10t-127 -46.5t-170 -110.5t-60.5 -150q0 -14 10 -38t49 -46t129 80q67 72 130 189.5t71 131.5zM424 424q0 35 -12 50q-27 34 -97 5.5t-128 -96.5t-71.5 -141.5t23.5 -104.5q25 -20 87 10.5t130 136t68 140.5zM-61 131q0 90 66.5 177t191.5 155
q84 49 174 49q29 0 62.5 -29t-5.5 -114l76 114q37 -11 94 -6l25 2l-232 -348q-16 -27 -36.5 -53.5t-41.5 -54.5q87 23 131.5 54.5t77.5 78.5l107 139q10 14 19 12t3 -12l-104 -150l-31 -34q-30 -43 -99.5 -74.5t-125.5 -42.5q-35 -47 -72 -93t-77 -103t-109.5 -129
t-193.5 -162t-197 -21q-60 57 -16.5 139t104.5 133q135 125 243.5 163t134 47t46 15.5t28.5 10.5l119 182q-109 -131 -162.5 -160t-104.5 -20q-95 15 -95 135z" />
    <glyph glyph-name="h" unicode="h" horiz-adv-x="550" 
d="M289 518q139 103 248 212t140 160q32 52 25.5 73.5t-30.5 7.5l-44 -25q-43 -26 -149 -157q-106 -132 -138 -184t-38 -64.5t-14 -22.5zM270 481q-12 -18 -20 -33t-37 -63q31 31 98 80q68 49 120 53t73 -37q22 -50 -60.5 -170.5t-46.5 -163.5q21 -28 62.5 -15t64.5 46
l90 119q10 14 19.5 12t1.5 -12l-125 -176q-49 -68 -100.5 -98.5t-87.5 -29.5t-58 20.5t-36 65.5t16 101.5t77 124t74 113.5t19 62.5t-37 1.5q-80 -45 -137 -105q-71 -66 -125 -156l-135 -229h-134q90 147 245 407t274 394q220 247 290.5 244t90.5 -25q36 -40 -70 -166
q-173 -198 -324 -307q-16 -10 -35.5 -25t-46.5 -33z" />
    <glyph glyph-name="i" unicode="i" horiz-adv-x="428" 
d="M377 676q31 0 47 -19.5t8 -48t-35.5 -48t-57.5 -19.5t-46.5 19.5t-8 48t35 48t57.5 19.5zM297.5 380q-25.5 -48 -47.5 -86q-55 -97 -27 -142q16 -29 49 -22t56 38l104 139q12 16 21.5 13t3.5 -13l-129 -182q-47 -70 -99.5 -102.5t-90.5 -30.5t-60.5 21.5t-36 66.5
t24.5 119t124 190q29 48 18 58q-19 17 -58 -15q-39 -31 -64 -63l-102 -136q-10 -16 -20.5 -11t-2.5 14l135 178q61 78 110.5 89t69.5 1q31 -12 39 -44t-17.5 -80z" />
    <glyph glyph-name="j" unicode="j" horiz-adv-x="495" 
d="M611 770q30 0 46.5 -19.5t8 -48t-35 -48t-57 -19.5t-46 19.5t-7.5 48t34.5 48t56.5 19.5zM158 41q-114 -38 -156 -59q-123 -55 -179 -117t-52 -141q0 -14 9 -38t48.5 -45t128.5 78q59 63 126 185.5t75 136.5zM305 96q139 37 209 133l104 140q10 14 19.5 12t3.5 -12
l-102 -150l-33 -37q-39 -56 -117 -82t-106 -32q-88 -111 -139 -182q-121 -166 -281 -280.5t-232 -45.5q-57 54 -17 130.5t105 141.5q139 126 246 163.5t132.5 46.5t46 15t28.5 11l236 344q47 64 45 82t-25 25t-96 -87l-103 -135q-12 -16 -21 -11t-3 13l137 178q67 81 139 97
q72 17 90 -21q25 -40 -34 -119z" />
    <glyph glyph-name="k" unicode="k" horiz-adv-x="520" 
d="M315 518q105 75 234 191t182 196q27 37 20 68t-108 -53q-145 -145 -206 -227.5t-81 -110.5t-26.5 -40t-14.5 -24zM197 274l14 31l-137 -164l-2 -2l-97 -147h-131l181 276q94 141 186.5 279.5t202.5 256.5q221 238 293.5 235t91.5 -25q36 -42 -80 -168
q-167 -186 -340 -307q-16 -10 -36.5 -24.5t-47.5 -33.5q-4 -6 -11.5 -15.5t-13.5 -19.5l-82 -127l43 46q150 163 236 157q55 -6 60 -49t-31 -76q-23 -18 -44.5 -16t-34.5 18t-7 40t21 36t22.5 18.5t15.5 6.5q-4 4 -25.5 -1t-49.5 -24q-73 -49 -101 -115q-26 -76 -14 -127
q25 -107 88 -97q103 16 200 161l27 37q4 6 16 4t-2 -20t-33.5 -46t-44.5 -60q-86 -110 -143.5 -164t-120.5 -54t-89 92q-25 92 20 188z" />
    <glyph glyph-name="l" unicode="l" horiz-adv-x="323" 
d="M211 371q105 93 240 245q127 150 170 234q25 45 15.5 69.5t-76 -28t-184.5 -231.5q-118 -178 -165 -289zM193 328q-20 -48 -39 -102q-18 -54 -2 -79q14 -29 45.5 -21.5t56.5 36.5l111 135q12 14 21 12t1 -12l-135 -176q-53 -68 -105.5 -98.5t-88.5 -29.5t-56 19.5
t-29.5 53.5t7.5 69q25 90 67.5 170t104.5 191t139 211q106 146 190 211q141 112 197 65q66 -66 -132.5 -297.5t-352.5 -357.5z" />
    <glyph glyph-name="m" unicode="m" horiz-adv-x="960" 
d="M22.5 289q-10.5 0 -6.5 6l99 125q37 49 79 72.5t68 23.5q46 0 59.5 -44.5t-18.5 -98.5q29 29 71 59t78 56t90 29t69 -36t-17 -96q68 59 118 94t103 38t73 -42t-71.5 -164.5t-56.5 -163.5q21 -28 62 -15t69 46l94 119q12 14 20.5 12t2.5 -12l-136 -176q-53 -68 -105 -98.5
t-89 -29.5t-57.5 20.5t-29.5 56t2 67.5t30.5 65t46 70.5t54.5 74.5t54 77t17 56.5t-37 1.5q-111 -64 -165 -126.5t-77 -91.5l-174 -270h-131l293 428q29 41 20.5 58.5t-38.5 1.5q-79 -43 -140 -105q-53 -48 -110 -119q-10 -16 -18.5 -30.5t-18.5 -28.5l-133 -205h-134
l248 373q16 23 8 39t-32 11t-45 -34l-68 -84q-10 -10 -20.5 -10z" />
    <glyph glyph-name="n" unicode="n" horiz-adv-x="704" 
d="M51.5 287q-10.5 0 -6.5 6l96 125q39 49 80 72.5t64 23.5q88 -6 63 -106q-2 -17 -20 -46q35 36 154 122q42 30 95.5 33t69.5 -36q24 -47 -44 -135.5t-80.5 -133t0.5 -61.5q24 -31 64 -18t66 47l95 117q12 16 21 13t1 -13l-135 -176q-53 -68 -105 -98.5t-88 -29.5t-58 20.5
t-31 56t2 67.5q21 60 84.5 147.5t95.5 132.5q31 46 23.5 63.5t-37.5 1.5q-112 -62 -166.5 -127t-88 -108.5t-39.5 -49.5l-133 -205h-133l248 373q16 23 7.5 38t-32.5 10t-45 -32l-69 -84q-8 -10 -18.5 -10z" />
    <glyph glyph-name="o" unicode="o" horiz-adv-x="491" 
d="M392 442q-66 -34 -110 -103t-25 -115t34 -58q100 70 130 157.5t17 111.5q-12 25 -46 7zM-37 128q-1 110 73 196t162 133t144 54t79 0t15 -17q-4 -6 -26.5 1t-59.5 -7t-67.5 -34t-66.5 -62q-65 -76 -77.5 -147.5t25.5 -101.5q12 -10 36 -10t52 12q-31 27 -31 69
q0 107 79 188.5t122 72t43 -52.5q6 -101 -129 -270q83 -4 126.5 53t48.5 65t15.5 20.5t16.5 18.5t14 4t-3 -17l-22 -30q-22 -30 -46 -60t-75 -62.5t-104 -22.5q-129 -152 -261 -123q-83 19 -83 130z" />
    <glyph glyph-name="p" unicode="p" horiz-adv-x="688" 
d="M406 282q0 56 -19.5 82t-63.5 24t-124 -79l-117 -180q-16 -60 22 -104q23 -29 88.5 -35t139.5 87.5t74 204.5zM-162 -66q-98 -72 -198 -168t-140.5 -144t-65 -87t-19.5 -61t39 -2q82 47 193 189q111 141 163 228q8 10 14 21.5t14 23.5zM306 575h24q24 0 45 5l-127 -195
q69 61 125 72q92 25 136 -7q81 -59 40 -208q-27 -104 -127 -189q-43 -39 -98 -65q68 10 147 59q61 34 135 117q30 32 55 67t35.5 46.5t16.5 17.5t14 5t2 -11q-27 -35 -52.5 -70t-44.5 -58q-81 -98 -176 -147q-95 -50 -233 -57q-86 0 -131 39q-32 32 -41 86l-174 -266
q-42 -68 -140 -182q-155 -180 -244.5 -211.5t-115.5 -4.5q-43 46 68 176q172 201 278.5 280t133.5 99l155 242l244 369q31 -9 50 -9z" />
    <glyph glyph-name="q" unicode="q" horiz-adv-x="581" 
d="M254 -53l-31 -43q-67 -102 -129 -219t-82 -177t-24 -98.5t18.5 -35.5t60.5 63.5t99 218.5q61 159 88 291zM392 478q-18 22 -85 -0.5t-128 -93.5t-76 -144t24 -105q25 -20 87 10t142.5 154.5t35.5 178.5zM-74 127q0 90 66.5 177t191.5 155q84 49 174 49q66 0 74 -66
q2 -23 -10 -61l63 96q25 -8 47 -8h35q16 0 37 4l-285 -436q16 8 33 15.5t33 17.5t46 33.5t37 30.5l54 54q57 67 77 96q20 28 28 35q8 6 16 5.5t2 -11.5q-87 -122 -146 -181t-111 -85t-87 -37l-18 -30q-8 -31 -13.5 -56.5t-21.5 -96.5q-35 -150 -146 -376q-73 -153 -135 -134
t-28 181q32 177 190 439q27 41 54.5 82.5t54.5 82.5l28 41q-23 -25 -44.5 -48t-37.5 -37q-44 -39 -78.5 -57t-84.5 -9q-95 15 -95 135z" />
    <glyph glyph-name="r" unicode="r" horiz-adv-x="466" 
d="M412 481q39 0 65 8l-80 -104q-45 -59 -87 -121t-47 -110q-5 -49 30 -56q37 -5 76 39l131 158q12 14 20 12t0 -12l-143 -189q-94 -127 -187 -135q-52 -4 -82 28t-28 79q0 78 100 166l156 143q-79 15 -117 74l-158 -203q-12 -12 -20 -10q-12 4 -4 12l172 219q-6 16 0 27
l35 49q6 10 22 10t16 -16t-6 -19l-12 -16q40 -33 148 -33z" />
    <glyph glyph-name="s" unicode="s" horiz-adv-x="450" 
d="M223 238h-8q-58 7 -118 -22q-60 -30 -78.5 -62.5t-19.5 -53t17 -44t62 -16.5t72 40q66 78 73 158zM223 260q0 25 -12.5 75.5t-16.5 70.5t-6 24q-2 -2 -3 -4t-5 -6l-102 -133q-10 -16 -20.5 -12t-2.5 14l131 170q-8 130 50 157q33 20 59.5 5t11.5 -42t-82 -104
q0 -56 21.5 -95.5t37.5 -65.5q74 -127 54 -193q12 16 23.5 28.5t27.5 30.5t45 56t39 49.5t16.5 17.5t14.5 5t2 -11q-27 -35 -52.5 -70t-45.5 -59t-40 -46t-62 -60.5t-80 -57t-98 -19.5q-112 -2 -155 87q-16 39 10.5 83t73.5 68q88 41 158 39q4 -2 8 -2z" />
    <glyph glyph-name="t" unicode="t" horiz-adv-x="333" 
d="M451 614q10 0 10 -8l-2 -12q0 -8 -8 -8h-93l-180 -275q-87 -117 -57 -170q14 -27 46 -19.5t56 36.5l111 133q12 16 20 13t2 -13l-135 -176q-53 -66 -106 -97.5t-89 -29.5q-66 4 -79 55t-1 83q20 57 72.5 132t98.5 139l123 189h-134q-10 0 -10 8v12q0 8 10 8h152l84 127
q26 -6 60 -6t61 8l-86 -129h74z" />
    <glyph glyph-name="u" unicode="u" horiz-adv-x="673" 
d="M8.5 283q-10.5 0 -6.5 6l70 90q108 136 172.5 134.5t79.5 -36.5q2 -8 6 -17t0 -36t-84 -132t-45 -149q21 -28 59 -15.5t70 46.5l123 150q29 37 51 73l61 92q25 -10 61 -10t56 8l-117 -176q-87 -117 -57 -170q16 -27 48 -19.5t56 36.5l111 135q12 14 20.5 11t1.5 -11
l-137 -176q-51 -68 -103 -99.5t-89 -29.5t-57.5 20.5t-28.5 56.5t20 101l-39 -49q-53 -68 -104 -99.5t-88 -29.5q-68 4 -86 66.5t20 126t92 134t76 99.5q37 49 15 61t-55 -13t-85 -85l-69 -84q-8 -10 -18.5 -10z" />
    <glyph glyph-name="v" unicode="v" horiz-adv-x="600" 
d="M465 223l23 29q24 29 30 37.5t26 32.5t29 52.5t-1 53.5t-43 9q-34 -15 -48 -30.5t-32 -45.5t-15.5 -72.5t27.5 -61.5q0 -4 4 -4zM255 -12q-50 0 -80 55t-28 119q4 122 101 254q18 23 18 37t-24 27.5t-125 -107.5l-68 -84q-8 -10 -18.5 -10t-5.5 6l69 90q42 59 96 98
t98 37t58 -37q9 -34 -5.5 -65.5t-28.5 -57.5q-50 -91 -28.5 -171t70 -51.5t88.5 71.5q-42 21 -39 74t24 90q38 67 101 106q64 36 93 -3t-13 -105t-82 -103q-14 -17 -37 -43h9q66 -8 82 14l63 84q4 6 12.5 15.5t12.5 15.5q4 4 11 3t-2 -13t-22 -31.5t-33 -43.5t-62 -51.5
t-85 -19.5q-6 0 -10 2q-80 -84 -131 -143t-79 -59z" />
    <glyph glyph-name="w" unicode="w" horiz-adv-x="864" 
d="M717 242q12 12 37 47q37 45 41 84t-12.5 49t-50 -5.5t-45 -81.5t25.5 -91q2 -2 4 -2zM570.5 127.5q38.5 -0.5 95.5 60.5l28 29q-32 16 -38 64q-5 47 24 102q69 114 154 117q31 0 43 -22q21 -39 -10.5 -92t-70.5 -93t-55 -60h9q68 -8 103.5 41.5t40.5 55.5t13.5 16
t12.5 15t11 4.5t-10 -26.5t-42 -56q-25 -31 -67 -57.5t-85 -18.5h-6l-72 -90q-117 -150 -217 -127q-86 19 -86 121q-107 -127 -190 -123q-69 4 -82.5 58t-2.5 86t31.5 66.5t47 71.5t57.5 76t52 68q37 50 13.5 62.5t-47.5 -7.5t-47.5 -45t-44.5 -47l-67 -84
q-10 -10 -20.5 -10t-4.5 6l70 90q41 55 95 95t98 39t58 -36q2 -8 6.5 -17t1 -31.5t-27.5 -56.5t-81 -108.5t-24 -118.5q23 -31 58.5 -19.5t62.5 36.5q23 63 71 124.5t85 114.5l59 91q23 -9 59 -9t58 6l-115 -174q-94 -125 -58 -169q15 -18 53.5 -18.5z" />
    <glyph glyph-name="x" unicode="x" horiz-adv-x="663" 
d="M305.5 3q-24.5 15 -45 45.5t-20.5 64.5t10 92q-29 -39 -56.5 -76t-75.5 -95t-112 -36q-25 10 -35.5 37t5.5 43t34.5 20t31.5 -16t3 -28q-10 -9 -10 -13q0 -2 -4 -2q42 -30 100 47q29 35 61.5 79t67.5 91q41 186 -14 197q-50 12 -131 -103l-49 -57q-8 -10 -18.5 -10
t-6.5 6l49 63q35 43 66.5 87.5t55.5 58.5q43 26 88.5 23.5t66.5 -42.5q18 -49 18 -87v-32q0 -33 -2 -47q87 111 132 148q90 72 144 43q23 -14 29 -44t-13 -42t-37 -12t-29 21q-12 21 9 34q2 2 3.5 4t5.5 4q-37 41 -103 -29q-54 -51 -143 -161q-10 -124 53.5 -146.5
t120.5 23.5q43 31 113 118l34 45q6 6 16.5 5.5t4.5 -9.5q-37 -47 -82 -109t-73 -94q-54 -62 -97.5 -93t-92.5 -31q-48 0 -72.5 15z" />
    <glyph glyph-name="y" unicode="y" horiz-adv-x="651" 
d="M62 -80q-55 -18 -126 -96t-69 -160q0 -14 10 -38.5t48.5 -47t131.5 81.5q68 73 203 326zM650 502q20 0 47 2l26 2l-236 -352q-16 -29 -35.5 -53.5t-41.5 -57.5q136 36 211 133l106 141q12 16 21.5 13.5t3.5 -13.5l-107 -149q-59 -71 -104 -98.5t-154 -57.5
q-37 -47 -74 -94.5t-77 -103.5t-111.5 -129.5t-197 -165.5t-199.5 -21q-60 57 -18.5 138t115.5 148q73 67 143 103.5t110 54.5t68 28t53.5 19t47 15t29.5 10l121 183q-126 -126 -199 -161.5t-109 -32.5t-56.5 22.5t-27 51t4.5 65.5q12 34 30.5 67t43.5 68.5t51.5 71.5
t48.5 69l62 92q20 -8 58 -8t61 6l-119 -178q-90 -119 -58 -172q4 -8 47.5 -24t157.5 93q20 20 37 36t31 30l141 217q28 -8 48 -8z" />
    <glyph glyph-name="z" unicode="z" horiz-adv-x="536" 
d="M374.5 496q50.5 -33 89.5 -33t50 18q16 20 42 30.5t36 -11.5q14 -21 -28 -54.5t-60 -44.5l-338 -239q36 -4 56 -14q20 -9 40 -15t52 -21t64 -1t46 26t22.5 18.5t14.5 14.5l92 123q12 14 20.5 11t1.5 -11l-102 -146q-114 -163 -187.5 -160t-93.5 13t-39.5 15t-35.5 14
q-29 10 -74 6t-70 -23l-24 -18q-10 -10 -20.5 -5t1.5 29t44 53q86 76 159 91l258 184q-73 -29 -110 -9.5t-53.5 30t-44 9.5t-52.5 -30l-68 -88q-12 -16 -21 -13t-1 13l209 285q10 14 19.5 11t2.5 -11l-39 -54q4 2 6.5 2.5t6.5 2.5q78 35 128.5 2z" />
    <glyph glyph-name="braceleft" unicode="{" horiz-adv-x="495" 
d="M426 -117q-153 0 -215 51q-57 53 -57 197v158q0 121 -46 167t-161 54v31q121 12 164 57t43 164v158q0 143 57 196q59 53 215 53v-24q-102 -4 -141 -44t-39 -159v-104q0 -164 -42 -224t-204 -90q158 -28 202 -89q44 -60 44 -222v-104q0 -119 39 -159t141 -44v-23z" />
    <glyph glyph-name="bar" unicode="|" horiz-adv-x="395" 
d="M154 1325h79v-1542h-79v1542z" />
    <glyph glyph-name="braceright" unicode="}" horiz-adv-x="567" 
d="M362 289v-158q0 -143 -57 -197q-59 -51 -215 -51v23q102 4 141 44t39 159v104q0 162 45 223q48 61 201 88q-151 27 -201 88q-45 61 -45 226v104q0 119 -39 159t-141 44v24q156 0 214 -53t58 -196v-158q0 -119 46 -164q41 -45 161 -57v-31q-116 -10 -161.5 -55t-45.5 -166
z" />
    <glyph glyph-name="asciitilde" unicode="~" horiz-adv-x="737" 
d="M425 360q-70 0 -131 14q-60 14 -108 13q-44 0 -77 -16.5t-36 -13.5t1 12q23 23 113 53q90 31 148 31q58 -1 124 -15q65 -14 99 -14t57 1t43 12t23 11t5 -3t-2 -9q-22 -25 -105 -51q-84 -25 -154 -25z" />
    <glyph glyph-name="exclamdown" unicode="&#xa1;" horiz-adv-x="899" 
d="M833.5 936.5q-24.5 -33.5 -60.5 -43.5t-61.5 7.5t-27.5 52t23.5 68.5t60.5 45t61.5 -6.5t27.5 -53.5t-23.5 -69.5zM132 10q-26 0 -58.5 -3t-42.5 -3l653 834q7 -7 16 -7l-501 -833q-41 12 -67 12z" />
    <glyph glyph-name="cent" unicode="&#xa2;" horiz-adv-x="399" 
d="M887 948q-9 66 -145 66q-68 0 -155 -31t-196 -116.5t-141 -270.5q-17 -102 121 -201l188 273h72l-203 -289q149 -56 286.5 61t182.5 161t78 75t48 31q15 1 15 -7t-20 -28t-69.5 -72.5t-242.5 -239t-415 -186.5h-6l-174 -252h-72l178 258q-121 20 -174 97t-53 175
t71.5 203t184 192t252 142t272.5 55q66 0 118 -22.5t52 -76.5t-47.5 -105.5t-120.5 -51.5q-35 0 -54.5 18t-19.5 40t11.5 42.5t31 37t44 27t53 10.5t49.5 -15z" />
    <glyph glyph-name="sterling" unicode="&#xa3;" horiz-adv-x="724" 
d="M215 209q-88 0 -88 -62t53 -73t72 -11q73 0 145 39q-35 37 -88 72t-94 35zM1124 967q-77 0 -191 -159t-165 -249q78 15 183 91.5t157 160.5q49 70 49 113t-33 43zM496 2q-126 -160 -264 -160q-95 0 -163.5 62t-68.5 153t54.5 143t133.5 52q115 0 238 -133q113 77 205 266
h-271l33 45h258q18 41 41 92q-74 -2 -128 43t-54 113t31.5 121t81.5 82q-25 -35 -25 -83t27 -67q-35 -26 -35 -76q0 -49 39 -71.5t80 -24.5q29 57 56.5 121.5t79.5 166t148 169.5q76 49 127 49t72.5 -17.5t21.5 -69.5q0 -104 -118.5 -241.5t-213 -168.5t-132.5 -42
q-37 -74 -45 -96h385l-35 -45h-369q-35 -86 -77 -182.5t-91 -167.5q238 -189 328 -189q25 0 48.5 12.5t23.5 38.5t-15.5 37t-34.5 19q35 10 66 10q65 0 113.5 -50t48.5 -100q0 -82 -53 -120.5t-130 -38.5q-76 0 -135 36t-108 89t-91 113.5t-83 109.5z" />
    <glyph glyph-name="currency" unicode="&#xa4;" horiz-adv-x="399" 
d="M877 926q-11 82 -144 82q-120 0 -256.5 -91t-222.5 -221h381l-27 -75h-399q-32 -72 -39 -101h465l-27 -76h-446q0 -167 89 -213.5t152.5 -46.5t130 33t130 81t121 105.5t106.5 105.5t85 81t54 33t19 -13q0 -4 -24 -32t-79 -93t-277.5 -297.5t-459.5 -232.5
q-169 0 -254.5 98t-85.5 247q0 69 27 144h-209l28 76h213q36 64 64 101h-305l28 75h338q134 150 324 250.5t368 100.5q128 0 159.5 -45.5t31.5 -77.5t-13.5 -67.5t-38 -64t-59 -47t-75.5 -18.5t-63.5 21.5t-22.5 49.5q0 54 48 100t95 46t70 -18z" />
    <glyph glyph-name="yen" unicode="&#xa5;" horiz-adv-x="1148" 
d="M627 297h239v-66h-237q2 -59 5 -97l3 -38q0 -25 26.5 -47t48 -32.5t25.5 -12.5q-35 -4 -78 1t-83 5t-54 -1t-29.5 -2t-39 -4t-68.5 -5q4 2 28.5 13.5t54.5 35t30 49.5l2 39q2 39 4 96h-248v66h248v41q0 41 -2 68h-246v63h221q-14 20 -34.5 52t-63.5 97t-125.5 170
t-123.5 151l-15 17q-20 24 -56 42t-39 20q43 0 63.5 -2t33 -3l25 -2t46.5 -1t77.5 6t84.5 4q-31 0 -54.5 -23.5t-6.5 -50.5q2 -4 37 -57t94 -147t114 -156l54 -64l17 24q25 35 77 104t74 100t44.5 62.5t42 59t33.5 46.5l13 18q23 33 -5 57.5t-69 24.5l35 1q35 1 79 -3t87 1
t92 3q-16 0 -53 -22.5t-54 -43.5l-19 -21q-156 -181 -229 -289.5t-122 -174.5h235v-63h-235q-4 -58 -4 -109z" />
    <glyph glyph-name="brokenbar" unicode="&#xa6;" horiz-adv-x="446" 
d="M223 236q-11 11 -62 -2t-77 -26t-43.5 -30.5t-29 -37t-12.5 -40t17 -44t62 -16.5t69 38q68 72 76 158zM223 260q-1 20 -9 55t-16 73q-8 37 -10 42q-4 -8 -6 -10l-104 -135q-10 -14 -19.5 -10t-3.5 14l131 170q-5 79 15 116q11 28 40 44q28 15 54.5 0t11.5 -42t-82 -104
q0 -56 21.5 -95.5t39.5 -67.5t31 -68q77 -28 120.5 -70.5t32.5 -77.5t-34.5 -49t-41.5 -3t-23.5 30.5t9.5 38.5t40 0q2 -2 5 -2t5 -5q12 20 -9.5 45t-43.5 37t-31.5 17.5t-19.5 9.5q10 -69 2 -96q-43 -140 -199 -144q-45 -2 -91 19.5t-62 69.5t9 92t93 78t139 28h6z" />
    <glyph glyph-name="section" unicode="&#xa7;" horiz-adv-x="614" 
d="M160 527q0 -62 31 -96t70.5 -60.5t84.5 -55.5q31 -8 76 27t44 93.5t-32 95.5t-70.5 63.5t-82.5 54.5q-35 8 -78 -26t-43 -96zM543 894q0 -42 -9 -68l-10 -25q0 102 -72 164t-131 42t-87.5 -49.5t-36.5 -69.5t3.5 -64t33.5 -46t136 -86.5t139 -114.5q39 -78 25 -130
t-36 -74q-4 -6 -36 -34t-87 -44q51 -33 86 -65q60 -55 45 -127.5t-51 -109.5q-101 -104 -312 -38q-23 6 -33 -12l-12 -19q0 40 -8 81.5t-8 74.5t9 58l9 26q0 -102 72 -164t154.5 -35t101.5 117q19 83 -133.5 169.5t-178.5 136.5q-25 50 -26.5 84t6 65t49 72.5t105.5 60.5
q-51 32 -86 64q-96 86 2 233q65 69 157.5 67t157.5 -24q23 -6 34 12l11 18q0 -47 8.5 -75.5t8.5 -70.5z" />
    <glyph glyph-name="dieresis" unicode="&#xa8;" 
d="M540.5 700.5q22.5 8.5 39 -4t17.5 -34.5t-15.5 -43t-39 -29t-39 4t-16.5 35q-2 23 14.5 43t39 28.5zM422 661.5q0 -22.5 -15.5 -43t-38 -28.5t-40 4t-17.5 35q-2 23 14.5 43t39 28.5t40 -4t17.5 -35z" />
    <glyph glyph-name="copyright" unicode="&#xa9;" horiz-adv-x="1112" 
d="M858 225q0 11 -24.5 11t-53.5 -19l-31 -16q-81 -41 -206 -37.5t-247 106.5t-81.5 273.5t156 231.5t207.5 57.5t152 -22.5t78 -4l19 15l4 -28q10 -73 -4 -113l-8 -27q-11 57 -58.5 106t-185.5 46t-202 -100t-64 -216t81 -209t206 -90t188.5 73t79.5 107l17 33
q-23 -80 -23 -178zM6 510q0 117 44 219t121 179t179.5 121t219 44t219 -44t179 -121t121 -179t44.5 -219t-44.5 -219.5t-121 -179t-179 -120.5t-219 -44t-219 44t-179.5 120.5t-121 179t-44 219.5zM63 510q0 -104 40 -196.5t109 -160t161 -107.5t196.5 -40t196.5 40
t159.5 107.5t107.5 160t40 196.5t-40 196.5t-107.5 161t-159.5 108.5t-196.5 40t-196.5 -40t-161 -108.5t-109 -161t-40 -196.5z" />
    <glyph glyph-name="ordfeminine" unicode="&#xaa;" horiz-adv-x="727" 
d="M518 -31q-37 -14 -75 -27t-72 -30q-123 -56 -178 -116t-54 -142q1 -12 11 -32t32 -28q59 -25 132 34q146 120 196 300q4 10 5 20t3 21zM635 -76q0 14 8 24t19 9q8 4 12 2q-10 39 -47 35t-84 -19q-2 -12 -4 -26q-26 -182 -228 -365q-213 -185 -315 -89q-54 51 -2 150
q25 50 94 119q82 72 180 124t155 71q58 18 97 33q0 37 -4 61q-62 -54 -116 -57q-54 -4 -83 31t-12 76q27 67 101 77q35 7 70 -17q34 -24 50 -63q8 14 38 62t36 134q6 85 -27 115q-33 31 -65 23q-69 -16 -115 -78l-47 -59q-10 -10 -20 -10t-7 8l50 63q170 208 315 154
q41 -16 59 -56q53 -118 -188 -366q-10 -12 -18 -18l6 -35v-37q49 12 95 14t69 -39q10 -25 4 -49t-35 -28q-12 -2 -27 5q-14 7 -14 21z" />
    <glyph glyph-name="guillemotleft" unicode="&#xab;" horiz-adv-x="989" 
d="M545 715q26 11 32 -4q15 -32 -22 -43l-418 -170l414 -168q29 -13 21 -35q-3 -8 -13 -13t-22 1l-471 194q-16 5 -18 19t18 22zM862 715q28 12 36 -10q3 -7 -3 -19t-25 -18l-415 -170l411 -168q30 -13 22 -36q-9 -23 -34 -11l-473 194q-17 5 -19 19t19 22z" />
    <glyph glyph-name="logicalnot" unicode="&#xac;" horiz-adv-x="956" 
d="M782 448q0 34 -18 56t-86 0q-66 -23 -137 -107q-27 -31 -43 -65q-57 -125 4 -175q21 -17 89 16q67 33 163 195q28 46 28 80zM864 506q28 -8 54 -8t63 4l-229 -348q-50 -75 -78 -109q107 26 133 -31q12 -26 6 -50q-5 -24 -27 -26q-50 -6 -49 29q0 9 7 19t18 10q8 4 12 2
q-8 36 -43 34t-78 -14q-102 -129 -146 -192q-44 -62 -114 -134q-152 -157 -284 -201q-68 -22 -105 14q-62 60 -10 157q26 51 94 119q144 130 328 191q26 8 52 18t46 16t29 10l18 31l101 152q-112 -135 -167 -162t-105 -19q-96 16 -93 136q0 88 68 176t192 155q81 47 174 50
q29 1 49 -17q42 -37 8 -129z" />
    <glyph glyph-name="registered" unicode="&#xae;" horiz-adv-x="319" 
d="M155 489q-56 0 -96.5 40.5t-40.5 96.5t40 96t96 40t96.5 -40t40.5 -96t-40 -96.5t-96 -40.5zM155 508q48 0 81.5 35t33.5 83t-33.5 82.5t-81.5 34.5t-83 -34.5t-35 -82.5t35 -83t83 -35zM137.5 693q-6.5 -3 -7.5 -24t1 -32h23q31 4 30 29q-3 28 -34 28q-6 2 -12.5 -1z
M131 629v-62q0 -8 14 -14h-17q-17 0 -21.5 -1t-12.5 1q14 6 17 14v121q-2 5 -17 14q16 -2 23 -2l19 1q20 1 39.5 0t26.5 -25t-8.5 -34.5t-19.5 -10.5l14 -26q23 -43 43 -48q-8 -8 -20.5 -5t-22.5 20t-22 37t-21 20h-14z" />
    <glyph glyph-name="degree" unicode="&#xb0;" horiz-adv-x="389" 
d="M201 1069q-41 0 -69 -28.5t-28 -69.5t28 -69t69 -28t68.5 28t27.5 69t-27.5 69.5t-68.5 28.5zM200.5 1106q55.5 0 94.5 -40t39 -95.5t-39 -94t-94.5 -38.5t-95 38.5t-39.5 94t39.5 95.5t95 40z" />
    <glyph glyph-name="plusminus" unicode="&#xb1;" horiz-adv-x="661" 
d="M438 478q-18 22 -85.5 -0.5t-128.5 -93.5t-76 -144t24 -105q23 -20 86 10t144 154.5t36 178.5zM-31 127q0 90 67.5 177t192.5 155q84 49 174 49q66 0 74 -66q4 -23 -8 -55l61 92q43 -12 117 -4l-293 -442q16 8 35 16.5t37 18.5t36.5 24t41 34t63.5 66t59 71
q19 26 29.5 38t16.5 18.5t14 4.5t2 -13q-27 -35 -52.5 -69t-45.5 -58q-31 -38 -81.5 -82t-87.5 -61q-37 -18 -85 -35l-131 -201q-56 -84 -6 -161q10 -16 33.5 -28.5t76 -7t99.5 90.5l-2 -14l-5 -4q-108 -189 -207.5 -209.5t-148 44t-16.5 175.5q18 55 44.5 95t65.5 99
l166 254q-80 -100 -134.5 -128t-104.5 -19q-97 16 -97 135z" />
    <glyph glyph-name="twosuperior" unicode="&#xb2;" horiz-adv-x="972" 
d="M186 -401v-11q-58 44 -84 3.5t-18 -70.5q10 -45 60 -61q92 -30 178 44q59 49 99 113.5t107 188.5t156 255l64 97q-233 -220 -321 -213t-102.5 73.5t37 152.5t91 138.5t63.5 89.5l68 101q26 -10 66 -10t63 8l-129 -195q-96 -128 -64 -186q17 -28 80 -17t145 90
q23 23 39.5 40.5t32.5 33.5l154 236l63 -11q14 0 41 4l27 3l-254 -385l-62 -82q-49 -70 -99 -137.5t-102 -138.5t-155.5 -206t-284.5 -141q-72 -4 -116.5 33t-54.5 78q-19 74 18 129t104 51q31 -2 56.5 -20.5t29.5 -38.5t4 -39z" />
    <glyph glyph-name="threesuperior" unicode="&#xb3;" horiz-adv-x="651" 
d="M266 -397q76 106 76 224.5t-6 172.5q-2 0 -4 -2l-127 -193q-53 -80 -58 -139.5t9 -83.5q26 -42 55.5 -30t54.5 51zM438 478q-18 22 -85.5 -0.5t-128.5 -93.5t-76 -144t24 -105q23 -20 86 10t144 154.5t36 178.5zM18 -374q0 38 14 78t41 81t66 100l166 254
q-80 -100 -134.5 -128t-104.5 -19q-97 16 -97 135q0 90 67.5 177t192.5 155q84 49 174 49q66 0 74 -66q4 -23 -8 -55l61 92q43 -12 117 -4l-297 -448q16 6 32.5 15t55.5 29q63 33 168 171q42 55 51 64t18 7.5t-7 -23.5q-82 -112 -114 -143.5t-74.5 -70t-125.5 -70.5
q28 -131 -4.5 -264t-78.5 -203q-46 -69 -126 -69t-103.5 59t-23.5 97z" />
    <glyph glyph-name="acute" unicode="&#xb4;" horiz-adv-x="686" 
d="M231 1153q0 2 -4 6l258 107q100 47 113.5 28.5t9.5 -29.5t-15 -17t-83 -23z" />
    <glyph glyph-name="mu1" unicode="&#xb5;" horiz-adv-x="1116" 
d="M1084 770q30 0 46.5 -19.5t8 -48t-34.5 -48t-56 -19.5t-46.5 19.5t-8.5 48t34.5 48t56.5 19.5zM-8 -317q-4 0 -4 -11q6 -18 48 -33.5t102 -10.5q163 14 311.5 192.5t255.5 342t155 225.5q69 89 67.5 108.5t-31.5 16.5t-91 -81l-103 -135q-12 -16 -21 -11t-3 13l137 178
q67 80 139 97q74 18 92 -20t-28 -112l-8 -8l-283 -424q141 81 285 254l104 139q12 16 21.5 13.5t3.5 -13.5l-105 -149l-30 -35q-30 -43 -146 -145t-188 -137q-173 -209 -340.5 -284t-257.5 -46.5t-105 67.5q-6 20 0.5 41t26.5 28q44 16 57 -17q4 -10 -1 -24.5t-19 -18.5
q-16 -8 -37 0h-4z" />
    <glyph glyph-name="paragraph" unicode="&#xb6;" horiz-adv-x="679" 
d="M629 1047v-56h-88v-991h-68v991h-129v-991h-68v553q-125 6 -194 74q-72 66 -72 174t76 177t203 69h340z" />
    <glyph glyph-name="cedilla" unicode="&#xb8;" horiz-adv-x="399" 
d="M59 -176l11 33q35 -25 69.5 -21t58.5 28t14.5 52.5t-60.5 24.5q-10 0 -52 -11l27 74h31l-19 -45q66 10 91.5 -8.5t23.5 -41.5q-4 -41 -38 -70t-60 -30q-27 -1 -42 -1t-23.5 2t-14 5t-17.5 9z" />
    <glyph glyph-name="onesuperior" unicode="&#xb9;" horiz-adv-x="882" 
d="M586 199q98 46 213.5 207t109.5 335t-31 205q-45 58 -115 66t-128 -24q-168 -94 -236 -287.5t-11.5 -254.5t79.5 -65q-16 20 -17 31.5t9 30.5t35.5 27.5t46.5 -1.5q62 -25 51 -143q-8 -70 -6 -127zM498 180h18q10 0 21 4q4 16 25.5 84t0.5 144q0 -65 -51 -76.5t-94 16.5
q-67 37 -83 168.5t91 315.5q70 120 205 202t207.5 46.5t101.5 -76.5q58 -82 34 -223.5t-89 -295.5q-114 -233 -285 -387q4 -8 5 -16t5 -16q20 -61 49 -89t78 -25q86 5 137 101v-4l-6 -21q-51 -188 -145.5 -232.5t-156.5 -5t-74.5 98.5t-6.5 89t7 38q-114 -71 -237 -63
q-124 8 -189.5 95t-65.5 231q0 143 102 342q123 220 251 315.5t204 125.5t81 20.5t-60 -39.5t-114 -73q-119 -101 -185 -242t-40 -281t94 -205.5t165 -65.5z" />
    <glyph glyph-name="ordmasculine" unicode="&#xba;" horiz-adv-x="745" 
d="M289 1213q0 44 30.5 76t75.5 32t76 -32t31 -76t-31 -74.5t-76 -30.5t-75.5 30.5t-30.5 74.5zM328 1214.5q0 -28.5 19.5 -48t48 -19.5t48 19.5t19.5 48t-19.5 48t-48 19.5t-48 -19.5t-19.5 -48z" />
    <glyph glyph-name="guillemotright" unicode="&#xbb;" horiz-adv-x="989" 
d="M446 715l482 -197q20 -8 18 -21t-18 -20l-473 -194q-13 -6 -23 -1t-13 13q-8 21 23 35l412 168l-416 170q-35 12 -27 35q8 24 35 12zM129 715l481 -197q20 -8 18 -21t-18 -20l-471 -194q-24 -12 -36 12q-8 22 22 35l414 168l-418 170q-36 12 -28 36q8 23 36 11z" />
    <glyph glyph-name="onequarter" unicode="&#xbc;" horiz-adv-x="1175" 
d="M553 129q-11 -65 17 -99t72 -38t85 18q76 40 127 156q22 49 23.5 96t-3 67.5t-37.5 64t-167 -84.5zM776 575q20 0 45 3l25 2l-127 -195q75 62 115 71q107 25 149 -7q78 -57 37 -207q-27 -104 -127 -189q-45 -41 -98 -65q133 18 201.5 91t93.5 99t47 57t32.5 42.5
t14.5 17.5q6 6 15 4.5t-7 -23.5t-42 -57t-46 -58q-90 -103 -180 -150t-230 -54q-84 0 -125 37t-45 88l-422 -647h-133l760 1149q27 -9 47 -9z" />
    <glyph glyph-name="onehalf" unicode="&#xbd;" horiz-adv-x="1013" 
d="M981 770q31 0 47 -19.5t8 -48t-35.5 -48t-57.5 -19.5t-46 19.5t-8 48t34.5 48t57.5 19.5zM526 41q-60 -16 -169 -65q-222 -100 -218 -252q0 -14 9.5 -38t49 -45t130.5 78q64 68 128 188t70 134zM821 496q0 20 -29 17t-92 -81l-102 -135q-10 -16 -20.5 -11t-2.5 13
l136 178q67 81 139 98q71 16 92 -25t-35 -116l-233 -338q134 36 209 133l104 140q12 14 21.5 12t1.5 -12l-103 -150l-30 -37q-39 -56 -117 -82t-109 -32q-90 -114 -139 -184q-114 -162 -276.5 -278t-235.5 -46q-92 92 88 272q164 148 305.5 189.5t149.5 46.5l18 30l217 314
q43 64 43 84z" />
    <glyph glyph-name="threequarters" unicode="&#xbe;" horiz-adv-x="964" 
d="M788 444q0 34 -18 58t-85 -0.5t-129 -95.5t-75 -145.5t25 -102.5q23 -20 90.5 12t129.5 136t62 138zM305 154q0 88 67.5 176t192.5 155q85 50 174 50q29 0 60 -26.5t-2 -119.5l75 117q28 -8 48 -8t46 2l25 2l-231 -348q-55 -86 -112.5 -158t-105.5 -140t-144.5 -197
t-264.5 -134q-66 -4 -107.5 29.5t-49.5 70.5q-15 67 18.5 116.5t94.5 47.5t79 -63q4 -14 0 -27v-8q-16 12 -41 14t-41 -23.5t-10 -54.5q10 -39 58 -56t94 2t95 68t130 199.5t116 206.5l101 152q-111 -134 -165 -162t-105 -19q-95 15 -95 136z" />
    <glyph glyph-name="questiondown" unicode="&#xbf;" horiz-adv-x="860" 
d="M801.5 945q-25.5 -34 -62.5 -45t-63.5 7.5t-27.5 54.5t24.5 69.5t61.5 44.5t62.5 -6t28.5 -54t-23.5 -71zM412 276q-42 0 -58 23t-18 47q-4 44 43 71.5t92 15.5q89 -23 98 -124q7 -77 -37 -140q-99 -141 -239 -175q-92 -23 -179.5 10t-93 178t207.5 278t360 310l59 74
q6 -6 19 -6l-48 -78q-40 -80 -145 -195q-66 -66 -127 -120t-107 -100t-59.5 -100.5t4.5 -98.5q38 -94 157 -77t171 132q24 66 12 92q-22 47 -49 54t-48 -5t-20 -32t13 -34h-8z" />
    <glyph glyph-name="Agrave" unicode="&#xc0;" horiz-adv-x="1189" 
d="M1053 152q5 -21 26 -21t47 30q25 30 42.5 86t17.5 120t-23 131q-17 -28 -50 -97q-79 -163 -60 -249zM748 539q0 -20 8 -37q12 12 71 66t113 108q-90 9 -141 -38.5t-51 -98.5zM1010 696q78 -33 143 -121q38 52 104 146l203 274q-73 58 -231 -84.5t-219 -214.5zM915 419
q0 -30 -25.5 -60.5t-70.5 -42.5t-98 14q-88 -134 -125 -174q-181 -217 -408 -187q-88 10 -137 52t-64.5 96.5t0 113t83.5 135t231 40.5q-10 -6 -12 -8.5t-20 -10.5t-27 -27.5t-6 -57t87.5 -52.5t241.5 104l74 56q-23 41 -23 80q0 72 49 134t133 87t173 0q5 1 27 29
q57 73 204.5 184t215 121t83.5 6l70 96q28 40 32.5 27t-12.5 -39l-65 -95q16 -10 18 -20q18 -37 -6.5 -65.5t-52.5 -49.5l-21 -14q4 4 5 7t6 7q11 37 4 66l-187 -273q-63 -90 -112 -170q6 -14 12 -27.5t10 -29.5q37 -117 4.5 -233.5t-120.5 -204.5t-150 -63t-53 102
q18 163 252 479q-10 10 -17 22q-49 68 -131 95l-31 -37q-35 -47 -70.5 -93t-72.5 -94q14 -6 41 -6t55 29q6 -18 6 -48zM748 1294l227 -161q0 -1 -2 -3t-2 -4l-256 134q-82 40 -86 55q-4 16 11.5 30.5t50 -10.5t57.5 -41z" />
    <glyph glyph-name="Aacute" unicode="&#xc1;" horiz-adv-x="1189" 
d="M1053 152q5 -21 26 -21t47 30q25 30 42.5 86t17.5 120t-23 131q-17 -28 -50 -97q-79 -163 -60 -249zM748 539q0 -20 8 -37q12 12 71 66t113 108q-90 9 -141 -38.5t-51 -98.5zM1010 696q78 -33 143 -121q38 52 104 146l203 274q-73 58 -231 -84.5t-219 -214.5zM915 419
q0 -30 -25.5 -60.5t-70.5 -42.5t-98 14q-88 -134 -125 -174q-181 -217 -408 -187q-88 10 -137 52t-64.5 96.5t0 113t83.5 135t231 40.5q-10 -6 -12 -8.5t-20 -10.5t-27 -27.5t-6 -57t87.5 -52.5t241.5 104l74 56q-23 41 -23 80q0 72 49 134t133 87t173 0q5 1 27 29
q57 73 204.5 184t215 121t83.5 6l70 96q28 40 32.5 27t-12.5 -39l-65 -95q16 -10 18 -20q18 -37 -6.5 -65.5t-52.5 -49.5l-21 -14q4 4 5 7t6 7q11 37 4 66l-187 -273q-63 -90 -112 -170q6 -14 12 -27.5t10 -29.5q37 -117 4.5 -233.5t-120.5 -204.5t-150 -63t-53 102
q18 163 252 479q-10 10 -17 22q-49 68 -131 95l-31 -37q-35 -47 -70.5 -93t-72.5 -94q14 -6 41 -6t55 29q6 -18 6 -48zM901 1157q-2 0 -4 2l258 107q87 40 109 28q23 -8 16 -28q-4 -4 -8 -9.5t-11 -10t-81 -21.5l-279 -72v4z" />
    <glyph glyph-name="Acircumflex" unicode="&#xc2;" horiz-adv-x="1189" 
d="M1053 152q5 -21 26 -21t47 30q25 30 42.5 86t17.5 120t-23 131q-17 -28 -50 -97q-79 -163 -60 -249zM748 539q0 -20 8 -37q12 12 71 66t113 108q-90 9 -141 -38.5t-51 -98.5zM1010 696q78 -33 143 -121q38 52 104 146l203 274q-73 58 -231 -84.5t-219 -214.5zM915 419
q0 -30 -25.5 -60.5t-70.5 -42.5t-98 14q-88 -134 -125 -174q-181 -217 -408 -187q-88 10 -137 52t-64.5 96.5t0 113t83.5 135t231 40.5q-10 -6 -12 -8.5t-20 -10.5t-27 -27.5t-6 -57t87.5 -52.5t241.5 104l74 56q-23 41 -23 80q0 72 49 134t133 87t173 0q5 1 27 29
q57 73 204.5 184t215 121t83.5 6l70 96q28 40 32.5 27t-12.5 -39l-65 -95q16 -10 18 -20q18 -37 -6.5 -65.5t-52.5 -49.5l-21 -14q4 4 5 7t6 7q11 37 4 66l-187 -273q-63 -90 -112 -170q6 -14 12 -27.5t10 -29.5q37 -117 4.5 -233.5t-120.5 -204.5t-150 -63t-53 102
q18 163 252 479q-10 10 -17 22q-49 68 -131 95l-31 -37q-35 -47 -70.5 -93t-72.5 -94q14 -6 41 -6t55 29q6 -18 6 -48zM1194 1157l-115 94l-161 -94h-37l176 141h67l107 -141h-37z" />
    <glyph glyph-name="Atilde" unicode="&#xc3;" horiz-adv-x="1189" 
d="M1053 152q5 -21 26 -21t47 30q25 30 42.5 86t17.5 120t-23 131q-17 -28 -50 -97q-79 -163 -60 -249zM748 539q0 -20 8 -37q12 12 71 66t113 108q-90 9 -141 -38.5t-51 -98.5zM1010 696q78 -33 143 -121q38 52 104 146l203 274q-73 58 -231 -84.5t-219 -214.5zM915 419
q0 -30 -25.5 -60.5t-70.5 -42.5t-98 14q-88 -134 -125 -174q-181 -217 -408 -187q-88 10 -137 52t-64.5 96.5t0 113t83.5 135t231 40.5q-10 -6 -12 -8.5t-20 -10.5t-27 -27.5t-6 -57t87.5 -52.5t241.5 104l74 56q-23 41 -23 80q0 72 49 134t133 87t173 0q5 1 27 29
q57 73 204.5 184t215 121t83.5 6l70 96q28 40 32.5 27t-12.5 -39l-65 -95q16 -10 18 -20q18 -37 -6.5 -65.5t-52.5 -49.5l-21 -14q4 4 5 7t6 7q11 37 4 66l-187 -273q-63 -90 -112 -170q6 -14 12 -27.5t10 -29.5q37 -117 4.5 -233.5t-120.5 -204.5t-150 -63t-53 102
q18 163 252 479q-10 10 -17 22q-49 68 -131 95l-31 -37q-35 -47 -70.5 -93t-72.5 -94q14 -6 41 -6t55 29q6 -18 6 -48zM1166 1276q7 0 -4 -12t-65 -30t-106 -17q-51 0 -88 9t-72 9q-34 0 -67 -18l-2 -2q-6 -3 -9 0.5t0 6.5q14 14 74.5 36t108.5 22l147 -20q50 0 63 8t20 8z
" />
    <glyph glyph-name="Adieresis" unicode="&#xc4;" horiz-adv-x="1189" 
d="M1053 152q5 -21 26 -21t47 30q25 30 42.5 86t17.5 120t-23 131q-17 -28 -50 -97q-79 -163 -60 -249zM748 539q0 -20 8 -37q12 12 71 66t113 108q-90 9 -141 -38.5t-51 -98.5zM1010 696q78 -33 143 -121q38 52 104 146l203 274q-73 58 -231 -84.5t-219 -214.5zM915 419
q0 -30 -25.5 -60.5t-70.5 -42.5t-98 14q-88 -134 -125 -174q-181 -217 -408 -187q-88 10 -137 52t-64.5 96.5t0 113t83.5 135t231 40.5q-10 -6 -12 -8.5t-20 -10.5t-27 -27.5t-6 -57t87.5 -52.5t241.5 104l74 56q-23 41 -23 80q0 72 49 134t133 87t173 0q5 1 27 29
q57 73 204.5 184t215 121t83.5 6l70 96q28 40 32.5 27t-12.5 -39l-65 -95q16 -10 18 -20q18 -37 -6.5 -65.5t-52.5 -49.5l-21 -14q4 4 5 7t6 7q11 37 4 66l-187 -273q-63 -90 -112 -170q6 -14 12 -27.5t10 -29.5q37 -117 4.5 -233.5t-120.5 -204.5t-150 -63t-53 102
q18 163 252 479q-10 10 -17 22q-49 68 -131 95l-31 -37q-35 -47 -70.5 -93t-72.5 -94q14 -6 41 -6t55 29q6 -18 6 -48zM1141.5 1260q19.5 26 48.5 35t47.5 -4t20.5 -42t-16.5 -54.5t-47.5 -34.5t-49.5 4.5t-21.5 41.5t18.5 54zM900 1260q19 26 48 35t48.5 -4t20.5 -42
t-18.5 -54.5t-48.5 -34.5t-48 4.5t-20 41.5t18 54z" />
    <glyph glyph-name="Aring" unicode="&#xc5;" horiz-adv-x="1189" 
d="M1053 152q5 -21 26 -21t47 30q25 30 42.5 86t17.5 120t-23 131q-17 -28 -50 -97q-79 -163 -60 -249zM748 539q0 -20 8 -37q12 12 71 66t113 108q-90 9 -141 -38.5t-51 -98.5zM1010 696q78 -33 143 -121q38 52 104 146l203 274q-73 58 -231 -84.5t-219 -214.5zM915 419
q0 -30 -25.5 -60.5t-70.5 -42.5t-98 14q-88 -134 -125 -174q-181 -217 -408 -187q-88 10 -137 52t-64.5 96.5t0 113t83.5 135t231 40.5q-10 -6 -12 -8.5t-20 -10.5t-27 -27.5t-6 -57t87.5 -52.5t241.5 104l74 56q-23 41 -23 80q0 72 49 134t133 87t173 0q5 1 27 29
q57 73 204.5 184t215 121t83.5 6l70 96q28 40 32.5 27t-12.5 -39l-65 -95q16 -10 18 -20q18 -37 -6.5 -65.5t-52.5 -49.5l-21 -14q4 4 5 7t6 7q11 37 4 66l-187 -273q-63 -90 -112 -170q6 -14 12 -27.5t10 -29.5q37 -117 4.5 -233.5t-120.5 -204.5t-150 -63t-53 102
q18 163 252 479q-10 10 -17 22q-49 68 -131 95l-31 -37q-35 -47 -70.5 -93t-72.5 -94q14 -6 41 -6t55 29q6 -18 6 -48zM981 1213q0 44 31.5 76t75.5 32t76 -32t32 -76t-32 -74.5t-76 -30.5t-75.5 30.5t-31.5 74.5zM1022 1214.5q0 -28.5 18.5 -48t47 -19.5t48 19.5t19.5 48
t-19.5 48t-48 19.5t-47 -19.5t-18.5 -48z" />
    <glyph glyph-name="AE" unicode="&#xc6;" horiz-adv-x="1529" 
d="M1034 940l-22 -12q-86 -44 -152.5 -140t-95.5 -138t-57.5 -82t-53.5 -76h144q115 256 237 448zM1253 637q-37 0 -63 -6q52 -37 108 -37q42 5 37 18q-1 8 -23 16t-59 9zM1329 874.5q-6 -6.5 -5 -13.5t15 -36l7 2q26 17 23 32t-10 19.5t-15.5 3.5t-14.5 -7.5zM1092 762
q0 107 135 209q109 88 200 84t151 -30t71 -95.5t-46 -133.5t-193 -89.5t-157.5 45.5t-7.5 98q30 58 89 50q110 -13 28 -95q40 -33 98 -33t99 34t52 77t-12 82t-89 61t-177.5 -20.5t-177.5 -167.5q-47 -96 2 -181q98 17 155 1q58 -16 64 -52v-8q-10 -33 -82 -33t-143 51h-2
q-2 -2 -49 -17t-86 -67q-100 -123 -56.5 -219t85.5 -138t75 -55q134 -53 219 -30t111 47q32 29 41.5 50t21.5 17q23 -7 -21.5 -55t-98.5 -92q-107 -75 -245.5 -100.5t-244.5 20.5q-25 -8 -49.5 -8t-48.5 11q-118 56 -96 227q12 98 71 246h-155q-164 -220 -338 -357
q-93 -75 -229.5 -112.5t-237.5 26.5q49 23 140 118.5t130 233.5q53 -37 109 -30q78 4 145.5 29.5t146.5 91.5h-135q-15 -1 -1 19q13 20 32 20h152l2 4q31 29 69.5 68.5t123.5 126.5t166 181.5t136 133.5q-180 66 -349 40.5t-263 -80.5t-128 -118t16 -121.5t122 -46.5
q111 18 217 84q25 14 56.5 45t56 53.5t36 27.5t-3.5 -26q-27 -55 -222.5 -185.5t-338.5 -127t-155 71t22 127.5q59 107 219.5 205.5t374 116t373.5 -45.5q18 8 37.5 6t16.5 -18t-21 -31q-16 -25 -33.5 -55.5t-36 -61t-22.5 -38.5l-39 -78q-49 -102 -74 -205q93 67 219 102
q2 0 3 1t5 1q-24 32 -30 74v39z" />
    <glyph glyph-name="Ccedilla" unicode="&#xc7;" horiz-adv-x="772" 
d="M14 270q0 125 80 293q-55 47 -81.5 120t-6.5 129q34 96 104.5 135t145.5 30q-45 -16 -71.5 -57t-22.5 -93v-2q-29 2 -60.5 -26.5t-34.5 -82.5t46 -116q65 127 178 244q108 108 251.5 181.5t231.5 39.5q39 -14 58.5 -55t12.5 -101.5t-49 -134.5t-126 -153.5t-199 -116.5
t-233 -8q4 -143 79.5 -258t180.5 -124q104 -9 157.5 39t58.5 55l40 58q6 4 8.5 -2t-55.5 -92q-133 -171 -249 -203t-175 -28l-13 -33q72 12 99.5 -8.5t24.5 -57.5t-36.5 -66.5t-73.5 -36.5t-64.5 -2t-32 12t-7.5 9l6 11q43 -23 73.5 -11t58.5 38t20.5 60t-47 29.5t-52 -6.5
t-14.5 -2l25 68q-114 15 -175 107.5t-61 217.5zM776 799q47 90 32 177.5t-131 63t-202 -97.5q-146 -122 -187.5 -230t-47.5 -167v-19q109 -26 206 0q-51 13 -77 62q-26 48 8.5 136.5t191.5 57.5q-10 2 -28.5 -13t-25.5 -35q-16 -47 40.5 -78.5t128.5 41.5t92 102z" />
    <glyph glyph-name="Egrave" unicode="&#xc8;" horiz-adv-x="749" 
d="M600 889q0 23 -18.5 17t-18.5 -22t10 -36l5 4q22 10 22 37zM475 657q-24 0 -49 -6q43 -37 96 -37q20 0 23 19q0 24 -70 24zM600 225q-6 21 -43 21t-103 -30q-67 -30 -122 -85q86 -61 158 -22t94 67t16 49zM584 924q41 0 41 -38q0 -20 -37 -57q30 -35 76 -35t84 35t52 79
t1 83t-65 61t-150.5 -22t-163.5 -170q40 -15 67 -18q4 35 35 58.5t60 23.5zM283 982q0 24 14.5 40t34.5 16t35.5 -13t5.5 -35t-29 -16q-18 7 -21.5 11t-7.5 8q-2 -5 -2 -21t19.5 -44t62.5 -51q28 54 79 99q175 156 304 83q60 -35 60 -102t-47 -130q-45 -53 -105.5 -80.5
t-107.5 -27.5t-76 49q-14 25 -15 51q-35 6 -75 23q-43 -98 -9 -164q39 8 63 8q125 0 112 -65q-12 -47 -84.5 -33.5t-100.5 49.5h-2q-4 -4 -37.5 -23.5t-69.5 -62.5q-56 -68 -57 -199q0 -131 86 -209q96 115 248 125q35 2 53.5 -20t12.5 -58q-11 -69 -123 -153t-248 -76h-8
v-12q0 -77 43 -92v2l-2 8q0 16 11.5 28.5t29.5 12.5t25 -18.5t-1 -34.5q-18 -35 -48 -35t-46 12q-34 27 -35 96q0 15 4 35q-103 11 -164 82t-66 166q-5 96 84 236t284 221q2 0 3 1t3 1q-38 89 12 186q-6 4 -11 6t-29 18t-43 47t-19 55z" />
    <glyph glyph-name="Eacute" unicode="&#xc9;" horiz-adv-x="749" 
d="M600 889q0 23 -18.5 17t-18.5 -22t10 -36l5 4q22 10 22 37zM475 657q-24 0 -49 -6q43 -37 96 -37q20 0 23 19q0 24 -70 24zM600 225q-6 21 -43 21t-103 -30q-67 -30 -122 -85q86 -61 158 -22t94 67t16 49zM584 924q41 0 41 -38q0 -20 -37 -57q30 -35 76 -35t84 35t52 79
t1 83t-65 61t-150.5 -22t-163.5 -170q40 -15 67 -18q4 35 35 58.5t60 23.5zM283 982q0 24 14.5 40t34.5 16t35.5 -13t5.5 -35t-29 -16q-18 7 -21.5 11t-7.5 8q-2 -5 -2 -21t19.5 -44t62.5 -51q28 54 79 99q175 156 304 83q60 -35 60 -102t-47 -130q-45 -53 -105.5 -80.5
t-107.5 -27.5t-76 49q-14 25 -15 51q-35 6 -75 23q-43 -98 -9 -164q39 8 63 8q125 0 112 -65q-12 -47 -84.5 -33.5t-100.5 49.5h-2q-4 -4 -37.5 -23.5t-69.5 -62.5q-56 -68 -57 -199q0 -131 86 -209q96 115 248 125q35 2 53.5 -20t12.5 -58q-11 -69 -123 -153t-248 -76h-8
v-12q0 -77 43 -92v2l-2 8q0 16 11.5 28.5t29.5 12.5t25 -18.5t-1 -34.5q-18 -35 -48 -35t-46 12q-34 27 -35 96q0 15 4 35q-103 11 -164 82t-66 166q-5 96 84 236t284 221q2 0 3 1t3 1q-38 89 12 186q-6 4 -11 6t-29 18t-43 47t-19 55z" />
    <glyph glyph-name="Ecircumflex" unicode="&#xca;" horiz-adv-x="749" 
d="M600 889q0 23 -18.5 17t-18.5 -22t10 -36l5 4q22 10 22 37zM475 657q-24 0 -49 -6q43 -37 96 -37q20 0 23 19q0 24 -70 24zM600 225q-6 21 -43 21t-103 -30q-67 -30 -122 -85q86 -61 158 -22t94 67t16 49zM584 924q41 0 41 -38q0 -20 -37 -57q30 -35 76 -35t84 35t52 79
t1 83t-65 61t-150.5 -22t-163.5 -170q40 -15 67 -18q4 35 35 58.5t60 23.5zM283 982q0 24 14.5 40t34.5 16t35.5 -13t5.5 -35t-29 -16q-18 7 -21.5 11t-7.5 8q-2 -5 -2 -21t19.5 -44t62.5 -51q28 54 79 99q175 156 304 83q60 -35 60 -102t-47 -130q-45 -53 -105.5 -80.5
t-107.5 -27.5t-76 49q-14 25 -15 51q-35 6 -75 23q-43 -98 -9 -164q39 8 63 8q125 0 112 -65q-12 -47 -84.5 -33.5t-100.5 49.5h-2q-4 -4 -37.5 -23.5t-69.5 -62.5q-56 -68 -57 -199q0 -131 86 -209q96 115 248 125q35 2 53.5 -20t12.5 -58q-11 -69 -123 -153t-248 -76h-8
v-12q0 -77 43 -92v2l-2 8q0 16 11.5 28.5t29.5 12.5t25 -18.5t-1 -34.5q-18 -35 -48 -35t-46 12q-34 27 -35 96q0 15 4 35q-103 11 -164 82t-66 166q-5 96 84 236t284 221q2 0 3 1t3 1q-38 89 12 186q-6 4 -11 6t-29 18t-43 47t-19 55z" />
    <glyph glyph-name="Edieresis" unicode="&#xcb;" horiz-adv-x="749" 
d="M600 889q0 23 -18.5 17t-18.5 -22t10 -36l5 4q22 10 22 37zM475 657q-24 0 -49 -6q43 -37 96 -37q20 0 23 19q0 24 -70 24zM600 225q-6 21 -43 21t-103 -30q-67 -30 -122 -85q86 -61 158 -22t94 67t16 49zM584 924q41 0 41 -38q0 -20 -37 -57q30 -35 76 -35t84 35t52 79
t1 83t-65 61t-150.5 -22t-163.5 -170q40 -15 67 -18q4 35 35 58.5t60 23.5zM283 982q0 24 14.5 40t34.5 16t35.5 -13t5.5 -35t-29 -16q-18 7 -21.5 11t-7.5 8q-2 -5 -2 -21t19.5 -44t62.5 -51q28 54 79 99q175 156 304 83q60 -35 60 -102t-47 -130q-45 -53 -105.5 -80.5
t-107.5 -27.5t-76 49q-14 25 -15 51q-35 6 -75 23q-43 -98 -9 -164q39 8 63 8q125 0 112 -65q-12 -47 -84.5 -33.5t-100.5 49.5h-2q-4 -4 -37.5 -23.5t-69.5 -62.5q-56 -68 -57 -199q0 -131 86 -209q96 115 248 125q35 2 53.5 -20t12.5 -58q-11 -69 -123 -153t-248 -76h-8
v-12q0 -77 43 -92v2l-2 8q0 16 11.5 28.5t29.5 12.5t25 -18.5t-1 -34.5q-18 -35 -48 -35t-46 12q-34 27 -35 96q0 15 4 35q-103 11 -164 82t-66 166q-5 96 84 236t284 221q2 0 3 1t3 1q-38 89 12 186q-6 4 -11 6t-29 18t-43 47t-19 55z" />
    <glyph glyph-name="Igrave" unicode="&#xcc;" horiz-adv-x="598" 
d="M668 451q74 -8 123 45t43 120q-6 66 -50 113q-14 -29 -28 -57q-41 -84 -88 -221zM756 758q-66 48 -167 56q-13 1 -30 -1q-56 -82 -35 -213q10 -63 51 -104q68 92 177 254zM582 846q117 0 192 -62q103 158 197 238q11 10 23 20t22 17q-311 -72 -434 -213zM109 -22
q-109 53 -109 177q0 125 103 198q52 36 128 38h19q-8 -6 -10 -8t-11 -10q-52 -52 0 -104q20 -18 54 -17q35 2 65 16q87 40 203 197q-43 41 -66 114t7 181q6 25 18 49q-39 -5 -94 -27q-54 -22 -92 -60t-33 -79q4 0 10 8t37 8t37 -34q4 -19 -11 -35t-45 -20t-55 28
q-54 67 31 145q84 79 235 99q91 129 358 212q78 25 139 36q101 19 78 -6q-11 -11 -31 -20q-80 -37 -182 -167q-46 -59 -89 -135q63 -63 65 -149q2 -85 -60 -147t-153 -50q-20 -56 -35 -100q-57 -168 -171 -268q-81 -73 -183 -85q-102 -11 -157 15zM762 1128v-2l-256 134
q-39 20 -53 28l-21 12q-12 12 -12 21q-4 23 22 27q19 0 47 -19q27 -19 50 -35l227 -161q0 -5 -4 -5z" />
    <glyph glyph-name="Iacute" unicode="&#xcd;" horiz-adv-x="598" 
d="M668 451q74 -8 123 45t43 120q-6 66 -50 113q-14 -29 -28 -57q-41 -84 -88 -221zM756 758q-66 48 -167 56q-13 1 -30 -1q-56 -82 -35 -213q10 -63 51 -104q68 92 177 254zM582 846q117 0 192 -62q103 158 197 238q11 10 23 20t22 17q-311 -72 -434 -213zM109 -22
q-109 53 -109 177q0 125 103 198q52 36 128 38h19q-8 -6 -10 -8t-11 -10q-52 -52 0 -104q20 -18 54 -17q35 2 65 16q87 40 203 197q-43 41 -66 114t7 181q6 25 18 49q-39 -5 -94 -27q-54 -22 -92 -60t-33 -79q4 0 10 8t37 8t37 -34q4 -19 -11 -35t-45 -20t-55 28
q-54 67 31 145q84 79 235 99q91 129 358 212q78 25 139 36q101 19 78 -6q-11 -11 -31 -20q-80 -37 -182 -167q-46 -59 -89 -135q63 -63 65 -149q2 -85 -60 -147t-153 -50q-20 -56 -35 -100q-57 -168 -171 -268q-81 -73 -183 -85q-102 -11 -157 15zM588 1157h-2v2l258 107
q84 41 106 28q24 -10 19 -24q-6 -14 -18 -22t-85 -23l-278 -72v4z" />
    <glyph glyph-name="Icircumflex" unicode="&#xce;" horiz-adv-x="598" 
d="M668 451q74 -8 123 45t43 120q-6 66 -50 113q-14 -29 -28 -57q-41 -84 -88 -221zM756 758q-66 48 -167 56q-13 1 -30 -1q-56 -82 -35 -213q10 -63 51 -104q68 92 177 254zM582 846q117 0 192 -62q103 158 197 238q11 10 23 20t22 17q-311 -72 -434 -213zM109 -22
q-109 53 -109 177q0 125 103 198q52 36 128 38h19q-8 -6 -10 -8t-11 -10q-52 -52 0 -104q20 -18 54 -17q35 2 65 16q87 40 203 197q-43 41 -66 114t7 181q6 25 18 49q-39 -5 -94 -27q-54 -22 -92 -60t-33 -79q4 0 10 8t37 8t37 -34q4 -19 -11 -35t-45 -20t-55 28
q-54 67 31 145q84 79 235 99q91 129 358 212q78 25 139 36q101 19 78 -6q-11 -11 -31 -20q-80 -37 -182 -167q-46 -59 -89 -135q63 -63 65 -149q2 -85 -60 -147t-153 -50q-20 -56 -35 -100q-57 -168 -171 -268q-81 -73 -183 -85q-102 -11 -157 15zM791 1157l-115 94
l-160 -94h-39l176 141h68l108 -141h-38z" />
    <glyph glyph-name="Idieresis" unicode="&#xcf;" horiz-adv-x="598" 
d="M668 451q74 -8 124 46.5t43 119.5t-51 112q-14 -29 -39.5 -79t-76.5 -199zM756 758q-67 49 -124 53t-73 2q-56 -83 -40 -179.5t56 -137.5q68 92 177 254zM582 846q114 0 192 -62q104 159 197 238q10 10 22.5 19.5t22.5 17.5q-311 -72 -434 -213zM82 -10q-82 39 -82 166
q0 126 78 179.5t153 55.5h19q-8 -6 -10 -8t-11 -10q-35 -35 -20 -75t53 -44q108 -18 246 156q26 31 43 55q-43 41 -65.5 113.5t6.5 181.5q6 25 18 49q-31 -4 -90 -27q-58 -22 -95.5 -60t-33.5 -79q4 0 10 8t37 8t37 -34q4 -20 -11.5 -36t-45.5 -19t-68.5 46t45.5 127.5
t235 98.5q108 155 328 208.5t239 49.5t7.5 -15.5t-40.5 -24.5t-77 -59q-102 -95 -184 -239q63 -63 65 -149q2 -85 -60 -147t-153 -50q-20 -55 -57.5 -162.5t-133.5 -193t-198 -97.5t-184 27zM814 1260q19 26 48 35t48.5 -4t20.5 -42t-17.5 -54.5t-47.5 -34.5t-49 4.5
t-21 41.5t18 54zM572.5 1260q19.5 26 48.5 35t48 -4t20 -42t-19 -54.5t-48 -34.5t-47.5 4.5t-20.5 41.5t18.5 54z" />
    <glyph glyph-name="Eth" unicode="&#xd0;" horiz-adv-x="972" 
d="M1155 975q0 2 2 5t2 5q20 -30 35.5 -19.5t19.5 28.5t-15 32q-61 45 -204 -47q27 -42 52 -113q47 -220 -21 -393q-55 -160 -188.5 -300t-280.5 -167q-207 -38 -369 -6l66 45q51 -12 97 -12q187 0 363 94.5t279 370.5q43 114 39 209q-7 162 -61 254q-156 -118 -291 -338
q-35 -55 -64.5 -102.5t-56.5 -88.5h287q12 0 12 -10v-21q0 -10 -12 -10h-318q-130 -187 -283.5 -316.5t-276 -127.5t-181.5 33q47 23 100.5 82t91.5 132t48 130q69 -33 123 -27q123 14 233 94h-272q-10 0 -11 10v21q0 10 11 10h323l33 33q27 27 62.5 66.5t80 89t108.5 126.5
q133 161 236 232q-65 78 -166 78h-20q-84 -6 -133 -32.5t-95 -60.5t-68.5 -82t-20.5 -98t54 -49q52 0 84 44t42 67l-6 -23q-21 -102 -81 -195.5t-125 -130t-109 -36.5t-74 37q-73 106 -10.5 230.5t122.5 178.5q104 98 217 138t205 45h12q117 4 199 -93q95 61 172 64
q28 4 57 -12q60 -32 50 -86q-4 -29 -29 -42.5t-53 3.5q-29 14 -25 45q2 4 2 6z" />
    <glyph glyph-name="Ntilde" unicode="&#xd1;" horiz-adv-x="985" 
d="M678 116.5q8 30.5 51 107.5t150.5 282.5t111.5 341.5q-36 -49 -97 -124.5t-135 -175.5q-156 -213 -341 -411.5t-380.5 -244.5t-307.5 22q55 23 119.5 85t114.5 142t65 138q59 -39 115 -37q110 4 213 47.5t156 96.5l300 300q87 87 178 211q-4 57 -26.5 89t-48.5 58
q-53 55 -181.5 60.5t-238 -51t-144.5 -113.5t8.5 -115.5t110.5 -50.5q172 21 265 101.5t93 78.5q-2 -10 -14 -30q-23 -48 -169.5 -135t-250.5 -109q-142 -38 -221.5 14t-5.5 168q87 138 310.5 218t358 53t173.5 -54q80 -55 71.5 -151.5t-62.5 -219.5t-97 -229t-99 -211
q98 140 233 308q262 325 431 433t287 25q27 -18 37.5 -49t2.5 -53t-20 -35.5t-37.5 -26t-55.5 10.5t-22 55q2 4 4.5 7t4.5 7l4 4q4 -12 16 -20t27.5 -1t21.5 27t-10 40q-89 105 -248.5 -17.5t-241.5 -220.5q-25 -31 -182 -209.5t-237 -329.5q-23 -41 -34 -76.5t5 -68.5
t37.5 -31t38.5 23v-2q-10 -12 -24.5 -30t-49 -43t-71.5 -16q-36 9 -50 30.5t-17 49t5 58zM1048 1183q-2 0 -3 4q-1 3 3 7q13 13 82.5 40.5t127.5 27.5t109 -12q52 -12 95 -11q43 0 65 13t22 7q0 -22 -78 -47q-78 -26 -134 -26q-55 0 -104 11t-91 11q-44 0 -68 -12z" />
    <glyph glyph-name="Ograve" unicode="&#xd2;" horiz-adv-x="839" 
d="M584 1294l227 -161q0 -1 -2 -3t-2 -4l-256 134q-82 40 -86 55q-4 16 11.5 30.5t50 -10.5t57.5 -41zM505 152q85 0 148.5 44t137 130t112.5 202q71 194 39 336.5t-124.5 161t-155.5 -19.5q-59 -41 -122 -130t-28.5 -174.5t113.5 -11.5q20 20 39 66q-8 -80 -64.5 -190.5
t-136 -110t-102.5 68.5q-37 112 57 269q91 162 250 258q85 49 171.5 37.5t121.5 -67.5q63 -100 40.5 -260.5t-69.5 -261.5q-104 -225 -286 -409t-374 -170q-135 8 -203.5 100.5t-68.5 239.5t106 354q90 158 171 240q160 162 303 219q82 33 87 22.5t-49 -33.5
q-128 -55 -237 -189.5t-127 -253.5t-2 -201q23 -129 95.5 -197.5t157.5 -68.5z" />
    <glyph glyph-name="Oacute" unicode="&#xd3;" horiz-adv-x="839" 
d="M659 1165v2l259 107q29 10 55 21.5t44 7.5q32 -7 24 -27q-7 -19 -31.5 -27t-67.5 -18l-278 -70l-2 2q0 2 -3 2zM505 152q85 0 148.5 44t137 130t112.5 202q71 194 39 336.5t-124.5 161t-155.5 -19.5q-59 -41 -122 -130t-28.5 -174.5t113.5 -11.5q20 20 39 66
q-8 -80 -64.5 -190.5t-136 -110t-102.5 68.5q-37 112 57 269q91 162 250 258q85 49 171.5 37.5t121.5 -67.5q63 -100 40.5 -260.5t-69.5 -261.5q-104 -225 -286 -409t-374 -170q-135 8 -203.5 100.5t-68.5 239.5t106 354q90 158 171 240q160 162 303 219q82 33 87 22.5
t-49 -33.5q-128 -55 -237 -189.5t-127 -253.5t-2 -201q23 -129 95.5 -197.5t157.5 -68.5z" />
    <glyph glyph-name="Ocircumflex" unicode="&#xd4;" horiz-adv-x="839" 
d="M969 1223l-115 96l-160 -96h-37l174 143h68l109 -143h-39zM505 152q85 0 148.5 44t137 130t112.5 202q71 194 39 336.5t-124.5 161t-155.5 -19.5q-59 -41 -122 -130t-28.5 -174.5t113.5 -11.5q20 20 39 66q-8 -80 -64.5 -190.5t-136 -110t-102.5 68.5q-37 112 57 269
q91 162 250 258q85 49 171.5 37.5t121.5 -67.5q63 -100 40.5 -260.5t-69.5 -261.5q-104 -225 -286 -409t-374 -170q-135 8 -203.5 100.5t-68.5 239.5t106 354q90 158 171 240q160 162 303 219q82 33 87 22.5t-49 -33.5q-128 -55 -237 -189.5t-127 -253.5t-2 -201
q23 -129 95.5 -197.5t157.5 -68.5z" />
    <glyph glyph-name="Otilde" unicode="&#xd5;" horiz-adv-x="839" 
d="M859 1217q-60 0 -99 9t-72 9t-65 -18l-2 -2q-7 -3 -10 0.5t0 6.5q14 14 75 36t98 22q36 0 83 -10t85 -10q39 0 53 8q13 8 20 8t-1 -9t-56.5 -29.5t-108.5 -20.5zM505 152q85 0 148.5 44t137 130t112.5 202q71 194 39 336.5t-124.5 161t-155.5 -19.5q-59 -41 -122 -130
t-28.5 -174.5t113.5 -11.5q20 20 39 66q-8 -80 -64.5 -190.5t-136 -110t-102.5 68.5q-37 112 57 269q91 162 250 258q85 49 171.5 37.5t121.5 -67.5q63 -100 40.5 -260.5t-69.5 -261.5q-104 -225 -286 -409t-374 -170q-135 8 -203.5 100.5t-68.5 239.5t106 354
q90 158 171 240q160 162 303 219q82 33 87 22.5t-49 -33.5q-128 -55 -237 -189.5t-127 -253.5t-2 -201q23 -129 95.5 -197.5t157.5 -68.5z" />
    <glyph glyph-name="Odieresis" unicode="&#xd6;" horiz-adv-x="839" 
d="M910 1283.5q19 25.5 48 34.5t49.5 -4.5t21.5 -41.5t-19 -54t-48 -35t-48.5 4t-20.5 42q-2 29 17 54.5zM668.5 1283.5q19.5 25.5 48.5 34.5t48 -4.5t20 -41.5t-17 -54t-47 -35t-49.5 4t-20.5 42q-2 29 17.5 54.5zM505 152q85 0 148.5 44t137 130t112.5 202
q71 194 39 336.5t-124.5 161t-155.5 -19.5q-59 -41 -122 -130t-28.5 -174.5t113.5 -11.5q20 20 39 66q-8 -80 -64.5 -190.5t-136 -110t-102.5 68.5q-37 112 57 269q91 162 250 258q85 49 171.5 37.5t121.5 -67.5q63 -100 40.5 -260.5t-69.5 -261.5q-104 -225 -286 -409
t-374 -170q-135 8 -203.5 100.5t-68.5 239.5t106 354q90 158 171 240q160 162 303 219q82 33 87 22.5t-49 -33.5q-128 -55 -237 -189.5t-127 -253.5t-2 -201q23 -129 95.5 -197.5t157.5 -68.5z" />
    <glyph glyph-name="multiply" unicode="&#xd7;" horiz-adv-x="1228" 
d="M897 629q-15 5 -53 9t-53 -11q-36 -36 32 -76q38 38 74 78zM1001 551q-25 33 -63 55l-32 -36t-32 -35q70 -7 127 16zM1182 868q-54 -57 -106 -113t-80 -86t-33 -37q-6 -7 -13 -14q39 -23 68 -59q12 8 25 15q86 46 117 143q30 96 22 151zM929 510q-45 0 -71 6
q-16 -16 -30 -34t-69 -86t-141 -197t-156 -209q-145 -167 -229 -207q-179 126 -354 178l49 6q150 12 384 150q234 139 460 378q16 17 33 35q-74 31 -68 86q4 35 41 48q51 17 131 -21q200 222 256 275q-38 65 -123 86q-133 30 -245 8q-111 -22 -179 -56q-183 -93 -241 -219
q-44 -96 4 -139t145 -15q98 29 194 135q35 40 47 69q13 28 17 28l4 -4q7 0 -23 -58t-77 -112q-129 -150 -220 -208q-91 -59 -163 -71q-73 -12 -105 14q-63 49 -36 157q26 109 151 245t313 210q149 63 334 56q112 -4 185 -40q39 -16 65 -43q208 188 428 281q72 30 120 36
q113 14 167 14q53 0 122 -28t89 -78q43 -111 -53 -161q-57 -27 -90 -5q-14 8 -7 11q57 24 45 93q-12 68 -106 101q-95 29 -198 7q-103 -20 -185 -64q-144 -77 -303 -238q55 -71 48 -158q-7 -86 -60 -141t-123 -84l-32 -12t-32 -11q44 -68 60 -168q43 -266 -123 -379
q-76 -45 -162 -18q-71 23 -91 101t0 131q37 94 123 141q19 10 27 15q7 4 19 9q-16 -20 -33 -61q-28 -70 12 -107t91 -16q25 10 45 43q55 77 42 210q-5 50 -30 95q-48 -10 -93 -10z" />
    <glyph glyph-name="Oslash" unicode="&#xd8;" horiz-adv-x="962" 
d="M0 236q0 166 106 378q93 163 172 242q161 161 302 217q82 33 87 23t-62 -40q-116 -51 -224 -184q-109 -134 -133 -292q-12 -80 3 -162q29 -160 134 -228l504 791q-43 43 -109 51q-119 14 -221 -129q-82 -117 -44 -210q32 -77 110 -3q20 20 39 66q-9 -87 -53 -171
q-67 -130 -161 -130q-69 1 -90 69q-35 113 58 269q92 164 250 258q72 43 144 40t120 -42l117 184h59l-141 -223q57 -98 35 -252t-69 -258q-103 -223 -263 -386q-206 -208 -398 -194l-94 -149h-59l98 157q-113 27 -165 115q-52 89 -52 193zM528 152q111 0 240 148
q96 112 139 235q43 122 42 231q0 109 -29 170l-490 -770q36 -14 98 -14z" />
    <glyph glyph-name="Ugrave" unicode="&#xd9;" horiz-adv-x="1200" 
d="M748 1294l227 -161q0 -1 -2 -3t-2 -4l-256 134q-82 40 -86 55q-4 16 11.5 30.5t50 -10.5t57.5 -41zM1334 1049q20 0 48 2l27 2l-481 -731q-94 -125 -64 -183q16 -29 51 -21.5t62 38.5l119 145q14 16 23 13t1 -13l-147 -190q-55 -72 -111.5 -106t-96.5 -32
q-74 4 -86.5 57.5t-0.5 93.5t76 140l84 133q-44 -54 -158 -179t-157 -158q-93 -71 -197.5 -85.5t-139.5 76.5q-49 135 76.5 299t183.5 234t92.5 141.5t42.5 145t-56.5 115t-137.5 35.5q-175 -13 -265.5 -136.5t-84.5 -176.5t35 -73q53 -37 135 12q38 23 74 62q41 44 72 96
l9 15q8 14 12.5 7.5t-21.5 -60.5t-79 -120q-116 -165 -197 -190t-116 -9q-72 32 -53 152q29 154 176.5 292t290.5 159q87 10 141.5 -17.5t82.5 -62.5t36 -125.5t-109 -286.5q-47 -78 -71 -193t56.5 -136t194 91.5t231.5 253.5t175 222l170 260q32 -8 52 -8z" />
    <glyph glyph-name="Uacute" unicode="&#xda;" horiz-adv-x="1200" 
d="M788 1116v2q0 2 -2 2v2l258 107q32 12 78 31q32 4 48.5 -19.5t-21 -33t-80.5 -21.5l-278 -70h-3zM1334 1049q20 0 48 2l27 2l-481 -731q-94 -125 -64 -183q16 -29 51 -21.5t62 38.5l119 145q14 16 23 13t1 -13l-147 -190q-55 -72 -111.5 -106t-96.5 -32q-74 4 -86.5 57.5
t-0.5 93.5t76 140l84 133q-44 -54 -158 -179t-157 -158q-93 -71 -197.5 -85.5t-139.5 76.5q-49 135 76.5 299t183.5 234t92.5 141.5t42.5 145t-56.5 115t-137.5 35.5q-175 -13 -265.5 -136.5t-84.5 -176.5t35 -73q53 -37 135 12q38 23 74 62q41 44 72 96l9 15q8 14 12.5 7.5
t-21.5 -60.5t-79 -120q-116 -165 -197 -190t-116 -9q-72 32 -53 152q29 154 176.5 292t290.5 159q87 10 141.5 -17.5t82.5 -62.5t36 -125.5t-109 -286.5q-47 -78 -71 -193t56.5 -136t194 91.5t231.5 253.5t175 222l170 260q32 -8 52 -8z" />
    <glyph glyph-name="Ucircumflex" unicode="&#xdb;" horiz-adv-x="1200" 
d="M1067 1149l-115 94l-161 -94h-37l176 141h67l107 -141h-37zM1334 1049q20 0 48 2l27 2l-481 -731q-94 -125 -64 -183q16 -29 51 -21.5t62 38.5l119 145q14 16 23 13t1 -13l-147 -190q-55 -72 -111.5 -106t-96.5 -32q-74 4 -86.5 57.5t-0.5 93.5t76 140l84 133
q-44 -54 -158 -179t-157 -158q-93 -71 -197.5 -85.5t-139.5 76.5q-49 135 76.5 299t183.5 234t92.5 141.5t42.5 145t-56.5 115t-137.5 35.5q-175 -13 -265.5 -136.5t-84.5 -176.5t35 -73q53 -37 135 12q38 23 74 62q41 44 72 96l9 15q8 14 12.5 7.5t-21.5 -60.5t-79 -120
q-116 -165 -197 -190t-116 -9q-72 32 -53 152q29 154 176.5 292t290.5 159q87 10 141.5 -17.5t82.5 -62.5t36 -125.5t-109 -286.5q-47 -78 -71 -193t56.5 -136t194 91.5t231.5 253.5t175 222l170 260q32 -8 52 -8z" />
    <glyph glyph-name="Udieresis" unicode="&#xdc;" horiz-adv-x="1200" 
d="M1007.5 1246.5q18.5 25.5 47.5 34.5t49 -5t21 -43t-18.5 -53.5t-48 -34.5t-48 4t-21.5 43q0 29 18.5 54.5zM765 1246.5q19 25.5 48 34.5t49.5 -5t21.5 -43t-18.5 -53.5t-48.5 -34.5t-49 4t-20 43q-2 29 17 54.5zM1334 1049q20 0 48 2l27 2l-481 -731q-94 -125 -64 -183
q16 -29 51 -21.5t62 38.5l119 145q14 16 23 13t1 -13l-147 -190q-55 -72 -111.5 -106t-96.5 -32q-74 4 -86.5 57.5t-0.5 93.5t76 140l84 133q-44 -54 -158 -179t-157 -158q-93 -71 -197.5 -85.5t-139.5 76.5q-49 135 76.5 299t183.5 234t92.5 141.5t42.5 145t-56.5 115
t-137.5 35.5q-175 -13 -265.5 -136.5t-84.5 -176.5t35 -73q53 -37 135 12q38 23 74 62q41 44 72 96l9 15q8 14 12.5 7.5t-21.5 -60.5t-79 -120q-116 -165 -197 -190t-116 -9q-72 32 -53 152q29 154 176.5 292t290.5 159q87 10 141.5 -17.5t82.5 -62.5t36 -125.5t-109 -286.5
q-47 -78 -71 -193t56.5 -136t194 91.5t231.5 253.5t175 222l170 260q32 -8 52 -8z" />
    <glyph glyph-name="Yacute" unicode="&#xdd;" horiz-adv-x="968" 
d="M864 1116q0 2 -4 6l258 107q29 10 61 24t51 3t12 -29q-8 -17 -32 -23t-67 -18zM1244 963h38q18 0 41 4q-149 -225 -339 -495q-190 -269 -198 -275q48 10 92 6t64 -45q16 -29 8 -58t-43 -32q-14 -2 -30 6q-17 8 -17 25q-1 35 31 40q4 0 7 2t7 0q-10 41 -51 40t-92 -17
l-86 -112t-82 -109q-135 -184 -307 -312q-208 -152 -293 -67q-71 64 -8 179q44 81 125 154q126 115 315 191q26 10 56 22t60 23l54 18q25 7 35 11q25 37 57 85q33 48 64 92t52 75l16 24q-4 -6 -24 -26l-52 -52q-224 -231 -366 -173q-97 40 -108 149q-10 139 204 311
q177 145 183 283q0 96 -94 119q-94 20 -201 -31q-70 -32 -117 -95t-9 -106q26 -43 106 -20q41 8 87 38t69 52l16 12q6 -6 -14 -26q-80 -85 -139 -120q-60 -34 -103 -54q-43 -21 -87 -21t-69 20q-53 43 -11 123q42 81 140 154q178 128 344 100q53 -10 97 -49t57 -94
q20 -89 -43 -197q-30 -47 -62 -91t-54 -90q-53 -109 -15 -157q72 -79 240 58q87 72 169 190q82 117 100 146t40 60t38 56q15 25 42 66q40 -10 60 -10zM219 -78q-66 -70 -61 -166q0 -16 11 -45q26 -68 103 -42q78 26 173 173q77 115 118 193q42 78 51 94q-74 -21 -202 -79
q-127 -58 -193 -128z" />
    <glyph glyph-name="germandbls" unicode="&#xdf;" horiz-adv-x="843" 
d="M1115 786q56 91 41 143q-15 53 -78 28q-81 -30 -207 -277q-28 -55 -54 -115q20 2 43 13q98 32 189 123q39 40 66 85zM352 666q58 0 108 -24t77 -54q54 -62 52 -136t-55 -134q-53 -59 -127 -57q-36 1 -75 23t-54 68t-1 74q37 78 98 72q29 -4 42 -27t13 -41t-8 -27
q-4 5 -19 15t-35 4t-26 -24q-8 -18 0 -46q8 -27 48 -46t86 6t66 70q19 46 17 84q-4 82 -79 130q-36 25 -87 34q-101 18 -184 -39t-92 -145q-20 -112 51 -188t208 -69q136 7 228 116q68 82 144 217l2 4q-128 5 -182 93q-55 88 -9 172q33 59 99 70q32 5 64 -7t56 -47t0 -82
q-2 -4 -2 -6l-2 -4q-12 22 -40 33t-56 -9t-30 -49q-6 -53 40 -88q33 -29 82 -39q33 61 94 174q123 228 245 299q122 70 165 13q26 -33 12 -100t-68 -137q-88 -116 -223 -208q-77 -49 -192 -76q-35 -78 -60 -158t-51 -147q-59 -141 -156 -209q-98 -68 -200 -70t-190 54
q-87 57 -128 172q-27 72 -15 157q11 85 53 151q80 125 184 166q53 22 112 22zM1810 629q156 110 191 239q20 76 -25 93q-75 30 -198 -175q-60 -99 -113 -221q20 2 43 13q55 18 102 51zM1278 430q0 -18 -8 -27q-4 5 -20 15t-34 4q-20 -6 -27 -24t1 -46q8 -27 48 -46t86 6
t66 70q37 87 -6 159q-43 71 -144 89t-183 -39q-82 -56 -92 -145q-20 -112 51 -188q72 -76 208 -69t225 113t148 224q-127 5 -182 94q-56 89 -8 171q33 59 99 70q32 5 64 -7t56 -47t0 -82q-2 -4 -2 -6l-2 -4q-12 22 -40 33t-56 -9t-30 -49q-6 -53 40 -88q33 -29 82 -39
q33 61 91 171t110 172q51 62 81 88t78 54t86 26q39 -2 62 -30q22 -28 8 -95t-68 -137q-88 -116 -223 -208q-77 -49 -192 -76q-35 -78 -60 -158t-51 -147q-58 -141 -156 -209t-200 -70t-190 54q-87 57 -128 172q-58 154 49 328q111 168 285 168q60 0 108 -24q50 -24 76 -54
q52 -61 52 -136q-1 -74 -54 -134q-53 -59 -128 -57q-36 1 -74 23t-54 68t-2 74q37 78 99 72q29 -4 42 -27t13 -41z" />
    <glyph glyph-name="agrave" unicode="&#xe0;" 
d="M395 485q-90 0 -186 -116q-66 -78 -68 -161t54 -83q79 0 165 125t88 180t-53 55zM584 502q33 0 59 10l-119 -186q-61 -98 -61 -136q0 -61 53 -61q31 0 59 31l123 147q8 12 14 11q17 -3 7 -13l-144 -180q-111 -137 -190 -137q-100 2 -100 96q0 20 6 43
q-137 -158 -221 -137q-98 20 -101 135q0 186 254 330q84 49 162 50t84 -65v-12l51 84q31 -10 64 -10zM401 709l181 -131l-2 -3v-2l-205 107q-47 24 -57 32q-9 7 -12 16q-6 17 18 22q20 0 39.5 -14.5t37.5 -26.5z" />
    <glyph glyph-name="aacute" unicode="&#xe1;" 
d="M395 485q-90 0 -186 -116q-66 -78 -68 -161t54 -83q79 0 165 125t88 180t-53 55zM584 502q33 0 59 10l-119 -186q-61 -98 -61 -136q0 -61 53 -61q31 0 59 31l123 147q8 12 14 11q17 -3 7 -13l-144 -180q-111 -137 -190 -137q-100 2 -100 96q0 20 6 43
q-137 -158 -221 -137q-98 20 -101 135q0 186 254 330q84 49 162 50t84 -65v-12l51 84q31 -10 64 -10zM393 578q0 2 -2 2l205 86q47 20 61 23q15 3 29 -3t10 -17t-12 -17t-20.5 -8.5t-47.5 -12.5l-223 -56v3z" />
    <glyph glyph-name="acircumflex" unicode="&#xe2;" 
d="M395 485q-90 0 -186 -116q-66 -78 -68 -161t54 -83q79 0 165 125t88 180t-53 55zM584 502q33 0 59 10l-119 -186q-61 -98 -61 -136q0 -61 53 -61q31 0 59 31l123 147q8 12 14 11q17 -3 7 -13l-144 -180q-111 -137 -190 -137q-100 2 -100 96q0 20 6 43
q-137 -158 -221 -137q-98 20 -101 135q0 186 254 330q84 49 162 50t84 -65v-12l51 84q31 -10 64 -10zM584 567l-84 78l-119 -78h-27l129 115h49l78 -115h-26z" />
    <glyph glyph-name="atilde" unicode="&#xe3;" 
d="M395 485q-90 0 -186 -116q-66 -78 -68 -161t54 -83q79 0 165 125t88 180t-53 55zM584 502q33 0 59 10l-119 -186q-61 -98 -61 -136q0 -61 53 -61q31 0 59 31l123 147q8 12 14 11q17 -3 7 -13l-144 -180q-111 -137 -190 -137q-100 2 -100 96q0 20 6 43
q-137 -158 -221 -137q-98 20 -101 135q0 186 254 330q84 49 162 50t84 -65v-12l51 84q31 -10 64 -10zM720 680q7 0 -5 -13t-66 -30q-54 -16 -105 -16q-50 0 -89 9t-70 9q-32 0 -52 -10l-22 -11q-4 -2 -6 1.5t1 6.5q14 14 75 36t108 22l148 -20q49 0 63 8q13 8 20 8z" />
    <glyph glyph-name="adieresis" unicode="&#xe4;" 
d="M395 485q-90 0 -186 -116q-66 -78 -68 -161t54 -83q79 0 165 125t88 180t-53 55zM584 502q33 0 59 10l-119 -186q-61 -98 -61 -136q0 -61 53 -61q31 0 59 31l123 147q8 12 14 11q17 -3 7 -13l-144 -180q-111 -137 -190 -137q-100 2 -100 96q0 20 6 43
q-137 -158 -221 -137q-98 20 -101 135q0 186 254 330q84 49 162 50t84 -65v-12l51 84q31 -10 64 -10zM622.5 700.5q22.5 8.5 39 -4t17.5 -34.5t-15.5 -43t-39 -29t-39 4t-16.5 35q-2 23 14.5 43t39 28.5zM481 661.5q0 -22.5 -15 -43t-37.5 -28.5t-40 4t-17.5 35q-2 23 14 43
t38.5 28.5t40 -4t17.5 -35z" />
    <glyph glyph-name="aring" unicode="&#xe5;" 
d="M395 485q-90 0 -186 -116q-66 -78 -68 -161t54 -83q79 0 165 125t88 180t-53 55zM584 502q33 0 59 10l-119 -186q-61 -98 -61 -136q0 -61 53 -61q31 0 59 31l123 147q8 12 14 11q17 -3 7 -13l-144 -180q-111 -137 -190 -137q-100 2 -100 96q0 20 6 43
q-137 -158 -221 -137q-98 20 -101 135q0 186 254 330q84 49 162 50t84 -65v-12l51 84q31 -10 64 -10zM362 667.5q0 34.5 24 58.5t58.5 24t57 -24t22.5 -58.5t-22.5 -57t-57 -22.5t-58.5 22.5t-24 57zM393 667.5q0 -22.5 14.5 -37t37 -14.5t37 14.5t14.5 37t-14.5 37
t-37 14.5t-37 -14.5t-14.5 -37z" />
    <glyph glyph-name="ae" unicode="&#xe6;" horiz-adv-x="817" 
d="M718 498q-58 0 -120 -62q-69 -61 -78 -160q57 -5 140 48.5t92 113.5t-34 60zM370 -12q-28 0 -48.5 18.5t-27.5 45.5t-1 54t7 33t3 11q-36 -42 -86 -97q-10 -8 -47.5 -40.5t-108.5 -22.5q-98 14 -98 135q-2 88 63.5 175.5t170.5 149.5t190 62q29 2 57.5 -20t14.5 -93
l59 93q50 -18 84 -7q72 35 131 31q23 0 37.5 -5t25.5 -29q22 -49 -30.5 -108t-123.5 -95t-124 -39q8 -91 72 -113q91 -30 211 141q28 42 40.5 40.5t4.5 -11.5q-173 -243 -257.5 -290.5t-154.5 -6.5q-36 -12 -64 -12zM428 476q-26 32 -95.5 2t-129.5 -105q-54 -62 -65 -135.5
t20 -97.5q31 -25 96.5 9t138.5 157t35 170z" />
    <glyph glyph-name="ccedilla" unicode="&#xe7;" horiz-adv-x="399" 
d="M367 453q-4 41 -66 41q-31 0 -67.5 -24t-78.5 -77.5t-42 -142.5q0 -45 23.5 -85t68.5 -40t79.5 28.5t62.5 62.5t48.5 62.5t30.5 28.5t10 -5t-4 -5q-88 -126 -165 -214t-154 -95l-11 -17q74 12 85 -44q5 -26 -16 -48t-41 -23t-33.5 -1t-43.5 12v27q33 -20 59.5 -16.5
t37.5 16.5q16 23 3.5 43t-51.5 16q-9 0 -43 -8l27 43q-66 4 -95.5 53t-29.5 111q0 121 117.5 240.5t234.5 119.5q78 0 78 -61q0 -31 -20.5 -62t-55 -31t-34.5 35q0 25 18.5 46.5t38.5 21.5t29 -8z" />
    <glyph glyph-name="egrave" unicode="&#xe8;" horiz-adv-x="393" 
d="M334 496q-66 0 -128 -60t-79 -164q83 0 128.5 37t66.5 56q40 45 40 88t-28 43zM410 455q0 -94 -144 -170q-86 -45 -139 -49q10 -121 100 -119q77 4 160 92q54 54 72 78t28 35q8 6 15 2q12 -2 -3 -20t-29 -36q-13 -19 -33.5 -41t-47.5 -52q-87 -97 -145 -146.5t-125 -46.5
q-67 4 -106.5 46t-40.5 98q-2 96 64 196t157 153q132 69 174.5 38.5t42.5 -58.5zM412 578q-4 0 -4 -5l-203 107q-48 23 -59 31t-13 21q-3 14 11 16q25 5 46 -11t39 -28z" />
    <glyph glyph-name="eacute" unicode="&#xe9;" horiz-adv-x="393" 
d="M334 496q-66 0 -128 -60t-79 -164q83 0 128.5 37t66.5 56q40 45 40 88t-28 43zM410 455q0 -94 -144 -170q-86 -45 -139 -49q10 -121 100 -119q77 4 160 92q54 54 72 78t28 35q8 6 15 2q12 -2 -3 -20t-29 -36q-13 -19 -33.5 -41t-47.5 -52q-87 -97 -145 -146.5t-125 -46.5
q-67 4 -106.5 46t-40.5 98q-2 96 64 196t157 153q132 69 174.5 38.5t42.5 -58.5zM449 674q23 8 44.5 17t38.5 5q20 -8 15 -23t-25 -19.5t-55 -14.5l-221 -57q0 6 -4 6z" />
    <glyph glyph-name="ecircumflex" unicode="&#xea;" horiz-adv-x="393" 
d="M334 496q-66 0 -128 -60t-79 -164q83 0 128.5 37t66.5 56q40 45 40 88t-28 43zM410 455q0 -94 -144 -170q-86 -45 -139 -49q10 -121 100 -119q77 4 160 92q54 54 72 78t28 35q8 6 15 2q12 -2 -3 -20t-29 -36q-13 -19 -33.5 -41t-47.5 -52q-87 -97 -145 -146.5t-125 -46.5
q-67 4 -106.5 46t-40.5 98q-2 96 64 196t157 153q132 69 174.5 38.5t42.5 -58.5zM442 561l-84 76l-118 -76h-27l129 113h49l78 -113h-27z" />
    <glyph glyph-name="edieresis" unicode="&#xeb;" horiz-adv-x="393" 
d="M334 496q-66 0 -128 -60t-79 -164q83 0 128.5 37t66.5 56q40 45 40 88t-28 43zM410 455q0 -94 -144 -170q-86 -45 -139 -49q10 -121 100 -119q77 4 160 92q54 54 72 78t28 35q8 6 15 2q12 -2 -3 -20t-29 -36q-13 -19 -33.5 -41t-47.5 -52q-87 -97 -145 -146.5t-125 -46.5
q-67 4 -106.5 46t-40.5 98q-2 96 64 196t157 153q132 69 174.5 38.5t42.5 -58.5zM518.5 700.5q22.5 8.5 38.5 -4t17 -34.5t-14 -43t-37.5 -29t-40 4t-17.5 35q-2 23 14.5 43t39 28.5zM319.5 700.5q22.5 8.5 40 -4t18.5 -34.5t-15.5 -43t-39 -29t-40 4t-17.5 35
q-2 23 14.5 43t39 28.5z" />
    <glyph glyph-name="igrave" unicode="&#xec;" horiz-adv-x="387" 
d="M193 709l182 -131q-2 0 -4 -3v-2l-205 107q-50 26 -57 32q-7 7 -11 16q-6 17 17 22q19 0 39.5 -14.5t38.5 -26.5zM233 504q25 -10 63 -10t58 8l-151 -223q-59 -86 -33 -134q16 -27 49 -19.5t57 36.5l117 139q12 16 21.5 13t1.5 -13l-144 -182q-53 -70 -107 -101.5
t-93 -29.5q-71 4 -82 57.5t5 98.5t83 139l137 192z" />
    <glyph glyph-name="iacute" unicode="&#xed;" horiz-adv-x="387" 
d="M494 674q23 8 47 17.5t41 3.5q16 -7 11 -20t-12 -17t-19.5 -6.5t-47.5 -12.5l-223 -57v4l-2 2zM233 504q25 -10 63 -10t58 8l-151 -223q-59 -86 -33 -134q16 -27 49 -19.5t57 36.5l117 139q12 16 21.5 13t1.5 -13l-144 -182q-53 -70 -107 -101.5t-93 -29.5
q-71 4 -82 57.5t5 98.5t83 139l137 192z" />
    <glyph glyph-name="icircumflex" unicode="&#xee;" horiz-adv-x="387" 
d="M457 596l-84 76l-119 -76h-27l129 115h50l79 -115h-28zM233 504q25 -10 63 -10t58 8l-151 -223q-59 -86 -33 -134q16 -27 49 -19.5t57 36.5l117 139q12 16 21.5 13t1.5 -13l-144 -182q-53 -70 -107 -101.5t-93 -29.5q-71 4 -82 57.5t5 98.5t83 139l137 192z" />
    <glyph glyph-name="idieresis" unicode="&#xef;" horiz-adv-x="387" 
d="M462.5 700.5q22.5 8.5 39 -4t17.5 -34.5t-15.5 -43t-39 -29t-38.5 4t-18 35q0 23 16 43t38.5 28.5zM264.5 700.5q22.5 8.5 38 -4t17.5 -34.5t-14.5 -43t-39 -29t-39 4t-16.5 35q-2 23 14.5 43t39 28.5zM233 504q25 -10 63 -10t58 8l-151 -223q-59 -86 -33 -134
q16 -27 49 -19.5t57 36.5l117 139q12 16 21.5 13t1.5 -13l-144 -182q-53 -70 -107 -101.5t-93 -29.5q-71 4 -82 57.5t5 98.5t83 139l137 192z" />
    <glyph glyph-name="eth" unicode="&#xf0;" horiz-adv-x="641" 
d="M487 696h183l194 295q53 -9 92 -6l25 2l-193 -291h156q10 0 10 -12v-20q0 -10 -10 -11h-184l-225 -342q-88 -117 -58 -170q14 -27 47 -19.5t56 36.5l110 133q12 16 21.5 13t1.5 -13l-135 -176q-53 -66 -104.5 -97.5t-88.5 -29.5t-67 29t-13 114l12 31
q-114 -131 -163 -155t-99 -15q-94 15 -94 135q0 88 67.5 175.5t172.5 145.5t192 58q29 0 61 -24.5t1 -110.5q4 6 9 13t9 13l168 256h-154q-10 0 -10 11v20q0 12 10 12zM446 419q0 33 -18 57t-85 0.5t-129 -94.5t-75 -146t25 -103q23 -20 90.5 12t129.5 136t62 138z" />
    <glyph glyph-name="ntilde" unicode="&#xf1;" horiz-adv-x="573" 
d="M668 680q6 0 -4 -12t-65 -30q-55 -17 -107 -17t-89 9t-69 9q-33 0 -55 -12t-25.5 -8t0.5 7q25 18 80 38t104 20l146 -20q52 0 64 8q14 8 20 8zM240 494q36 0 67 12l-84 -129q62 58 123 94q53 39 104.5 43t69.5 -38t-39 -124q-116 -154 -82 -198q18 -29 57 -16.5t68 46.5
l94 115q10 14 18.5 11t2.5 -11l-133 -172q-49 -66 -100.5 -96.5t-87.5 -28.5q-67 4 -81 58t1 85q14 47 55 106.5t68.5 97.5t53.5 75t17.5 53.5t-43.5 -4.5q-53 -23 -109 -74t-110 -121t-61 -77l-129 -199h-130l332 500q22 -8 58 -8z" />
    <glyph glyph-name="ograve" unicode="&#xf2;" horiz-adv-x="491" 
d="M392 442q-64 -35 -109 -103q-45 -69 -15 -141q8 -19 23 -32q71 49 118 141q48 91 32 122q-15 31 -49 13zM252 145q-31 27 -31 84t28 104q57 95 126 130q56 24 81 -6q9 -12 9 -35q6 -101 -129 -270q83 -4 161 98q9 12 14 20q29 47 46 43q8 -2 -3 -17q-12 -15 -28 -38
q-16 -22 -40 -52t-74 -63q-51 -33 -105 -22q-129 -152 -261 -123q-81 18 -82 129q-2 111 72 197t162 133t144 54t80 0t14 -17q-4 -6 -26 1q-41 13 -127 -41q-31 -19 -80 -77t-59 -111q-27 -133 55 -133q25 0 53 12zM412 578q-4 0 -4 -5l-203 107q-52 25 -61 32t-11 20
q-3 14 11 16q24 4 46 -12q21 -15 39 -27z" />
    <glyph glyph-name="oacute" unicode="&#xf3;" horiz-adv-x="491" 
d="M392 442q-64 -35 -109 -103q-45 -69 -15 -141q8 -19 23 -32q71 49 118 141q48 91 32 122q-15 31 -49 13zM252 145q-31 27 -31 84t28 104q57 95 126 130q56 24 81 -6q9 -12 9 -35q6 -101 -129 -270q83 -4 161 98q9 12 14 20q29 47 46 43q8 -2 -3 -17q-12 -15 -28 -38
q-16 -22 -40 -52t-74 -63q-51 -33 -105 -22q-129 -152 -261 -123q-81 18 -82 129q-2 111 72 197t162 133t144 54t80 0t14 -17q-4 -6 -26 1q-41 13 -127 -41q-31 -19 -80 -77t-59 -111q-27 -133 55 -133q25 0 53 12zM449 674q23 8 44 17t39 5q20 -8 15 -23t-25 -19
q-20 -5 -55 -15l-221 -57q0 6 -4 6z" />
    <glyph glyph-name="ocircumflex" unicode="&#xf4;" horiz-adv-x="491" 
d="M392 442q-64 -35 -109 -103q-45 -69 -15 -141q8 -19 23 -32q71 49 118 141q48 91 32 122q-15 31 -49 13zM252 145q-31 27 -31 84t28 104q57 95 126 130q56 24 81 -6q9 -12 9 -35q6 -101 -129 -270q83 -4 161 98q9 12 14 20q29 47 46 43q8 -2 -3 -17q-12 -15 -28 -38
q-16 -22 -40 -52t-74 -63q-51 -33 -105 -22q-129 -152 -261 -123q-81 18 -82 129q-2 111 72 197t162 133t144 54t80 0t14 -17q-4 -6 -26 1q-41 13 -127 -41q-31 -19 -80 -77t-59 -111q-27 -133 55 -133q25 0 53 12zM494 567l-84 78l-119 -78h-27l129 115h49l80 -115h-28z
" />
    <glyph glyph-name="otilde" unicode="&#xf5;" horiz-adv-x="491" 
d="M392 442q-64 -35 -109 -103q-45 -69 -15 -141q8 -19 23 -32q71 49 118 141q48 91 32 122q-15 31 -49 13zM252 145q-31 27 -31 84t28 104q57 95 126 130q56 24 81 -6q9 -12 9 -35q6 -101 -129 -270q83 -4 161 98q9 12 14 20q29 47 46 43q8 -2 -3 -17q-12 -15 -28 -38
q-16 -22 -40 -52t-74 -63q-51 -33 -105 -22q-129 -152 -261 -123q-81 18 -82 129q-2 111 72 197t162 133t144 54t80 0t14 -17q-4 -6 -26 1q-41 13 -127 -41q-31 -19 -80 -77t-59 -111q-27 -133 55 -133q25 0 53 12zM464 584q-26 0 -56 9t-63 9q-34 0 -46 -12t-15 -8
q-8 12 49 39q57 26 96 26t78 -10q38 -10 65 -10t38 9q12 9 18 9t0 -9q-7 -9 -26 -20q-57 -32 -138 -32z" />
    <glyph glyph-name="odieresis" unicode="&#xf6;" horiz-adv-x="491" 
d="M392 442q-66 -34 -110 -103t-25 -115t34 -58q100 70 130 157.5t17 111.5q-12 25 -46 7zM-37 128q-1 110 73 196t162 133t144 54t79 0t15 -17q-4 -6 -26.5 1t-59.5 -7t-67.5 -34t-66.5 -62q-65 -76 -77.5 -147.5t25.5 -101.5q12 -10 36 -10t52 12q-31 27 -31 69
q0 107 79 188.5t122 72t43 -52.5q6 -101 -129 -270q83 -4 126.5 53t48.5 65t15.5 20.5t16.5 18.5t14 4t-3 -17l-22 -30q-22 -30 -46 -60t-75 -62.5t-104 -22.5q-129 -152 -261 -123q-83 19 -83 130zM546.5 700.5q22.5 8.5 39 -4t17.5 -34.5t-15.5 -43t-39 -29t-38.5 4
t-18 35q0 23 16 43t38.5 28.5zM348.5 700.5q22.5 8.5 38 -4t17.5 -34.5t-14.5 -43t-39 -29t-39 4t-16.5 35q-2 23 14.5 43t39 28.5z" />
    <glyph glyph-name="oslash" unicode="&#xf8;" horiz-adv-x="491" 
d="M25 -84h-21q-4 0 -9 3t-3 7l45 70q-45 16 -59.5 53t-14.5 84q0 88 66.5 175t191.5 155q90 53 154 49l43 70q4 4 6 7t6 3h21q4 0 9 -3t1 -7l-49 -76q25 -10 37 -27q52 -104 -64 -264v-2q57 -46 105.5 25.5t66 69.5t-68.5 -104q-22 -26 -58.5 -39t-77.5 3
q-92 -124 -162.5 -154t-113.5 -26l-41 -62q-6 -10 -10 -10zM367 338q47 5 47 -33q23 51 27.5 108.5t-46.5 67.5l-225 -346q23 -10 63.5 -1t88.5 52q-41 37 -24 94.5t69 57.5zM145 164l207 315q-72 -19 -131 -87t-75.5 -128.5t-0.5 -99.5z" />
    <glyph glyph-name="ugrave" unicode="&#xf9;" horiz-adv-x="567" 
d="M8.5 283q-10.5 0 -6.5 6l70 90q108 136 172.5 134.5t79.5 -36.5q2 -8 6 -17t0 -36t-84 -132t-45 -149q21 -28 59 -15.5t70 46.5l123 150q29 37 51 73l61 92q25 -10 61 -10t56 8l-117 -176q-87 -117 -57 -170q16 -27 48 -19.5t56 36.5l111 135q12 14 20.5 11t1.5 -11
l-137 -176q-51 -68 -103 -99.5t-89 -29.5t-57.5 20.5t-28.5 56.5t20 101l-39 -49q-53 -68 -104 -99.5t-88 -29.5q-68 4 -86 66.5t20 126t92 134t76 99.5q37 49 15 61t-55 -13t-85 -85l-69 -84q-8 -10 -18.5 -10zM412 578q-4 0 -4 -5l-203 107q-48 23 -59 31t-13 21
q-3 14 11 16q25 5 46 -11t39 -28z" />
    <glyph glyph-name="uacute" unicode="&#xfa;" horiz-adv-x="567" 
d="M8.5 283q-10.5 0 -6.5 6l70 90q108 136 172.5 134.5t79.5 -36.5q2 -8 6 -17t0 -36t-84 -132t-45 -149q21 -28 59 -15.5t70 46.5l123 150q29 37 51 73l61 92q25 -10 61 -10t56 8l-117 -176q-87 -117 -57 -170q16 -27 48 -19.5t56 36.5l111 135q12 14 20.5 11t1.5 -11
l-137 -176q-51 -68 -103 -99.5t-89 -29.5t-57.5 20.5t-28.5 56.5t20 101l-39 -49q-53 -68 -104 -99.5t-88 -29.5q-68 4 -86 66.5t20 126t92 134t76 99.5q37 49 15 61t-55 -13t-85 -85l-69 -84q-8 -10 -18.5 -10zM449 674q23 8 44.5 17t38.5 5q20 -8 15 -23t-25 -19.5
t-55 -14.5l-221 -57q0 6 -4 6z" />
    <glyph glyph-name="ucircumflex" unicode="&#xfb;" horiz-adv-x="567" 
d="M8.5 283q-10.5 0 -6.5 6l70 90q108 136 172.5 134.5t79.5 -36.5q2 -8 6 -17t0 -36t-84 -132t-45 -149q21 -28 59 -15.5t70 46.5l123 150q29 37 51 73l61 92q25 -10 61 -10t56 8l-117 -176q-87 -117 -57 -170q16 -27 48 -19.5t56 36.5l111 135q12 14 20.5 11t1.5 -11
l-137 -176q-51 -68 -103 -99.5t-89 -29.5t-57.5 20.5t-28.5 56.5t20 101l-39 -49q-53 -68 -104 -99.5t-88 -29.5q-68 4 -86 66.5t20 126t92 134t76 99.5q37 49 15 61t-55 -13t-85 -85l-69 -84q-8 -10 -18.5 -10zM494 567l-84 78l-119 -78h-27l129 115h49l80 -115h-28z" />
    <glyph glyph-name="udieresis" unicode="&#xfc;" horiz-adv-x="567" 
d="M8.5 283q-10.5 0 -6.5 6l70 90q108 136 172.5 134.5t79.5 -36.5q2 -8 6 -17t0 -36t-84 -132t-45 -149q21 -28 59 -15.5t70 46.5l123 150q29 37 51 73l61 92q25 -10 61 -10t56 8l-117 -176q-87 -117 -57 -170q16 -27 48 -19.5t56 36.5l111 135q12 14 20.5 11t1.5 -11
l-137 -176q-51 -68 -103 -99.5t-89 -29.5t-57.5 20.5t-28.5 56.5t20 101l-39 -49q-53 -68 -104 -99.5t-88 -29.5q-68 4 -86 66.5t20 126t92 134t76 99.5q37 49 15 61t-55 -13t-85 -85l-69 -84q-8 -10 -18.5 -10zM526.5 700.5q22.5 8.5 39 -4t17.5 -34.5t-15.5 -43t-39 -29
t-39 4t-18.5 35q0 23 16.5 43t39 28.5zM327.5 700.5q22.5 8.5 39 -4t17.5 -34.5t-15.5 -43t-39 -29t-39 4t-16.5 35q-2 23 14.5 43t39 28.5z" />
    <glyph glyph-name="yacute" unicode="&#xfd;" horiz-adv-x="636" 
d="M260 -14q-114 -38 -158 -60q-125 -56 -181 -118t-54 -144q0 -14 10 -39q24 -59 90 -37q100 33 262 341q23 42 31 57zM650 502q20 0 47 2l26 2l-236 -352q-16 -29 -35 -54t-42 -57q119 32 176 92q18 18 35 41l106 141q12 16 22 14q9 -3 3 -14l-107 -149q-63 -76 -109 -102
t-149 -54l-74 -94q-37 -48 -77 -104t-112 -130q-154 -160 -288 -203q-68 -22 -106 14t-34 78q7 102 120 202q82 77 152 113t110 54t68 27t54 19t48 16t28 10l121 183q-124 -124 -234 -179q-38 -18 -74 -15q-67 6 -82 66q-9 42 7 78q17 62 121 202q27 36 49 69l62 92
q20 -8 58 -8t61 6l-119 -178l-21 -28q-32 -44 -41 -84q-8 -40 0 -54t26 -20q40 -15 105 23q35 19 67 49t48 47q17 16 31 30l141 217q28 -8 48 -8zM387 590q0 2 -4 6l207 84q43 18 61 25q7 0 13 1t10 -4q22 -6 14 -22q-4 -13 -25 -19q-20 -6 -55 -14z" />
    <glyph glyph-name="ydieresis" unicode="&#xff;" horiz-adv-x="636" 
d="M62 -80q-55 -18 -126 -96t-69 -160q0 -14 10 -38.5t48.5 -47t131.5 81.5q68 73 203 326zM650 502q20 0 47 2l26 2l-236 -352q-16 -29 -35.5 -53.5t-41.5 -57.5q136 36 211 133l106 141q12 16 21.5 13.5t3.5 -13.5l-107 -149q-59 -71 -104 -98.5t-154 -57.5
q-37 -47 -74 -94.5t-77 -103.5t-111.5 -129.5t-197 -165.5t-199.5 -21q-60 57 -18.5 138t115.5 148q73 67 143 103.5t110 54.5t68 28t53.5 19t47 15t29.5 10l121 183q-126 -126 -199 -161.5t-109 -32.5t-56.5 22.5t-27 51t4.5 65.5q12 34 30.5 67t43.5 68.5t51.5 71.5
t48.5 69l62 92q20 -8 58 -8t61 6l-119 -178q-90 -119 -58 -172q4 -8 47.5 -24t157.5 93q20 20 37 36t31 30l141 217q28 -8 48 -8zM600.5 700.5q22.5 8.5 38.5 -4t17 -34.5t-14 -43t-37.5 -29t-40 4t-17.5 35q-2 23 14.5 43t39 28.5zM401.5 700.5q22.5 8.5 40 -4t18.5 -34.5
t-15.5 -43t-39 -29t-40 4t-17.5 35q-2 23 14.5 43t39 28.5z" />
    <glyph glyph-name="OE" unicode="&#x152;" horiz-adv-x="1269" 
d="M1126 827q27 17 24 32t-15.5 23t-25.5 -6t9 -47l2 -4zM1116 612q0 8 -22 16t-58 9q-35 0 -59 -4l-2 -6q54 -33 102 -33q39 4 39 18zM1240 772q60 0 100 34t52 77t-11 82t-89 61t-156 -13.5t-137 -88.5q14 -64 2 -162q9 2 25 10q-20 41 -4 73q31 63 102 54q47 -5 53 -32
t-34 -60l-2 -2q39 -33 99 -33zM948 741q4 60 -4 113q-41 -74 -35 -123q16 2 39 10zM1079 565q-68 0 -112 29q-63 -187 -191 -358q56 -90 129 -119t171.5 -29t160.5 57q24 21 32.5 39.5t11.5 20.5t13 -1q21 -6 -26 -57.5t-97 -89.5q-142 -97 -313.5 -107.5t-267.5 89.5
q-164 -130 -309 -121t-213 102t-68 206q0 114 30.5 207t75.5 181q90 158 171 240q160 162 303 219q41 16 87 34.5t91 22.5q-49 -27 -68 -67q80 39 158 23.5t115 -70.5q16 -27 26 -58q12 8 31 23q54 42 147 64.5t172 -12.5q80 -35 89.5 -103t-29.5 -114q-71 -83 -186 -104.5
t-166 33.5l-5 5q-20 -12 -45 -21q-4 -16 -6 -32.5t-6 -32.5l41 2q85 0 106 -24t23 -36q4 -4 0 -8q-8 -33 -76 -33zM934 901q-29 104 -114 123t-144 -12q-97 -41 -84 -154q6 -49 69.5 -102.5t210.5 -32.5v2q-9 77 21.5 121.5t40.5 54.5zM901 649q-12 15 -22 45
q-98 -17 -187 6q-18 2 -37 13q-27 -115 -81 -186q-54 -72 -122 -71.5t-91 68.5q-36 111 57 269q34 67 100 137q8 61 55 110q-54 -28 -79 -53q-211 -178 -234.5 -332.5t-7.5 -236.5q23 -129 95.5 -198.5t170.5 -67.5h4q-4 22 -10 36q-37 167 81.5 287.5t299.5 171.5q4 0 5 1
t3 1zM645 717q-90 44 -121 123q-33 -86 -12 -138.5t51 -46.5q55 11 82 62zM752 283q102 112 151 245q8 23 15.5 44.5t11.5 43.5h-2q-2 -2 -46.5 -17.5t-88.5 -66.5q-95 -119 -41 -249zM938 657q4 14 5 26.5t3 27.5q-10 -4 -31 -9q7 -20 23 -45z" />
    <glyph glyph-name="oe" unicode="&#x153;" horiz-adv-x="786" 
d="M722 498q-58 0 -120 -62q-65 -57 -78 -151q0 -10 11 -10q100 10 182 92q35 40 38 71t-3 45.5t-30 14.5zM362 164q-6 0 -10 4q-164 -207 -295 -178q-57 12 -75.5 51t-18.5 92q0 88 66.5 175.5t178.5 147.5t166 56t75 -33q25 -46 8 -121q87 113 202 147.5t141 -23.5
q21 -47 -30 -106.5t-99 -84.5q-95 -48 -149 -51q8 -91 72 -113q90 -30 209 141q28 42 41.5 40.5t5.5 -11.5q-173 -243 -241.5 -281.5t-126.5 -30.5q-58 9 -88.5 62.5t-22.5 114.5q-3 2 -9 2zM414 305q23 51 26.5 98t-20.5 67t-84 4.5t-122 -87.5t-75 -145t25 -103
q18 -16 61 -8t97 55q-27 18 -30 54t18.5 66t49.5 32q54 4 54 -33z" />
    <glyph glyph-name="florin" unicode="&#x192;" horiz-adv-x="897" 
d="M653 651q12 0 11 -6v-14q0 -8 -13 -8h-116q-72 -135 -137 -269q-64 -134 -148 -275q-84 -139 -209 -241t-279 -131q-72 -12 -127 3t-69 54q-8 23 -2 46t28 32q14 8 30 5q34 -6 22 -48q-6 -20 -26 -24q-21 -4 -34 2q-6 -4 -2 -13q6 -18 48 -31t100 -3q143 25 278 214
q82 113 207 331t217 348h-207q-12 0 -12 8l2 14q0 6 12 6h226q201 290 344 360q95 44 168 1q51 -33 39 -94q-10 -32 -40 -52t-61 -2t-12 62l2 2v2q16 -31 35 -19q20 12 25 32t-13 38q-12 17 -42 27t-86 -15t-101 -86q-94 -127 -160 -256h102z" />
    <glyph glyph-name="quoteleft" unicode="&#x2018;" horiz-adv-x="256" 
d="M146 771q-22 -30 -56 -40t-56 5q-24 15 -25 52t24 70q73 97 164 140q90 44 94 27q2 -9 -8 -13q-79 -19 -138 -78q-18 -18 -32 -43q51 -4 55 -57q0 -33 -22 -63z" />
    <glyph glyph-name="quoteright" unicode="&#x2019;" horiz-adv-x="256" 
d="M231.5 1049q22.5 -15 24.5 -52t-50.5 -106.5t-139.5 -106t-90 -25.5t8 15q114 27 170 121q-51 4 -56 57q-2 33 20.5 62.5t56.5 39.5t56.5 -5z" />
    <glyph glyph-name="quotesinglbase" unicode="&#x201a;" horiz-adv-x="256" 
d="M98 76q-2 32 21 62t57 40t56 -5t24 -53t-23 -70q-104 -133 -245 -173q-10 -2 -13 6q-2 8 9 13q82 20 137 79q20 16 33 43q-51 0 -56 58z" />
    <glyph glyph-name="quotereversed" unicode="&#x201b;" horiz-adv-x="256" 
d="M61.5 927.5q-24.5 32.5 -22.5 69.5t25.5 52.5t56.5 5t55.5 -40t21.5 -58.5t-17.5 -44t-39.5 -17q40 -67 93 -91t77 -30q10 -4 8 -13t-19 -5t-76 33q-58 28 -98 67t-64.5 71.5z" />
    <glyph glyph-name="quotedblleft" unicode="&#x201c;" horiz-adv-x="618" 
d="M33.5 736q-23.5 15 -24.5 60t63 109q65 64 127 93t76 33q14 3 16 -6t-8 -13q-118 -28 -170 -121q51 -4 55 -57q0 -33 -21.5 -63t-55.5 -40t-57.5 5zM292.5 736q-22.5 15 -24.5 52t45.5 101t139.5 109q92 44 95 31t-7 -17q-118 -28 -170 -121q51 -4 55 -57
q0 -33 -21.5 -63t-55.5 -40t-56.5 5z" />
    <glyph glyph-name="quotedblright" unicode="&#x201d;" horiz-adv-x="618" 
d="M541.5 1036.5q23.5 -16.5 24.5 -53.5t-49.5 -102t-114.5 -97q-113 -56 -116 -42t7 18q32 8 71 29q70 38 99 94q-51 0 -55 57q0 33 22.5 62.5t55 40t56 -6zM283.5 1036q23.5 -16 24.5 -53t-49.5 -102t-114.5 -97q-113 -56 -116 -42t7 18q32 8 71 29q70 38 99 94
q-51 0 -55 57q0 33 21 62.5t55 39.5t57.5 -6z" />
    <glyph glyph-name="quotedblbase" unicode="&#x201e;" horiz-adv-x="618" 
d="M541.5 151.5q23.5 -16.5 24.5 -53.5t-62.5 -121t-206.5 -120q-10 -2 -12 6t8 12q114 27 170 121q-51 4 -55 59q0 33 22.5 62.5t55 40t56 -6zM283.5 151.5q23.5 -16.5 24.5 -53.5t-62.5 -121t-206.5 -120q-10 -2 -12 6t8 12q114 27 170 121q-51 4 -55 59q0 33 21 63t55 40
t57.5 -6.5z" />
    <glyph glyph-name="perthousand" unicode="&#x2030;" horiz-adv-x="1277" 
d="M560 55q72 0 181 158.5t109 235.5q0 31 -14.5 43t-26.5 12q-31 0 -65 -21.5t-102 -107.5q-68 -85 -98 -163t-31 -104t14.5 -39.5t32.5 -13.5zM799 526q59 0 84.5 -36t21.5 -86q-10 -121 -100 -230q-112 -143 -248 -143q-53 0 -85 33.5t-28 95.5q9 135 136 258
q117 108 219 108zM174 545q58 35 149 201t61 190.5t-45 24.5q-58 0 -140 -103q-92 -111 -122 -188.5t-31 -105.5t14.5 -41t35.5 -13t78 35zM92 487q-53 0 -86 33.5t-29 95.5q9 139 131 253t224 114q59 0 84.5 -37t21.5 -82q-9 -100 -63 -182q110 41 151 73.5t116.5 103
t139.5 167.5q27 35 38 45t22.5 8t1.5 -14l-41 -57l-621 -1028q-70 17 -118 13.5t-67.5 -5.5t-21.5 -2l611 780q-36 -29 -82 -57q-86 -44 -152 -62q-8 -12 -12 -16q-117 -144 -248 -144zM992 55q72 0 181 158.5t109 235.5q0 31 -14.5 43t-26.5 12q-31 0 -65 -21.5
t-102 -107.5q-68 -85 -98 -163t-31 -104t14.5 -39.5t32.5 -13.5zM1237 174q-112 -143 -248 -143q-53 0 -86 33.5t-27 95.5q12 138 136 258q117 108 217 108q59 0 84.5 -36t21.5 -86q-10 -118 -98 -230z" />
    <glyph glyph-name="guilsinglleft" unicode="&#x2039;" horiz-adv-x="737" 
d="M545 715q26 11 32 -4q15 -32 -22 -43l-418 -170l414 -168q29 -13 21 -35q-3 -8 -13 -13t-22 1l-471 194q-16 5 -18 19t18 22z" />
    <glyph glyph-name="guilsinglright" unicode="&#x203a;" horiz-adv-x="737" 
d="M162 715l481 -197q21 -8 19 -21t-19 -20l-471 -194q-24 -12 -36 12q-8 22 22 35l413 168l-417 170q-36 12 -28 36q8 23 36 11z" />
    <glyph glyph-name="trademark" unicode="&#x2122;" horiz-adv-x="835" 
d="M561 905q8 0 17.5 2t21.5 0l-13 -6q-13 -6 -12 -16l2 -31q1 -31 5 -55l10 -101q2 -14 18 -19l17 -5l-56 2q-10 0 -19 -2t-26 0l16 5q15 5 15 19l-2 34q-2 34 -4 63l-10 82l-14 -25q-13 -24 -24 -48t-26.5 -56.5t-24 -53t-10.5 -22.5q-2 2 -10 20.5t-21.5 48t-24.5 54.5
t-28 55l-16 31l-3 -31q-3 -30 -6 -58t-4 -61l-1 -33q0 -12 13 -18l13 -6h-24q-23 0 -25 -1t-18 -1q20 10 22 24l4 34q5 34 9 66t5 59l1 28q0 10 -29 24h66q0 -2 7 -17.5t18.5 -40.5t21.5 -45l24 -48l15 -29l16 30q15 30 25 51t21 45t17.5 38t6.5 16q16 -2 24 -2zM167 905
q34 0 60 1l27 1q9 0 31 4q-6 -26 -4 -55l-9 17q-8 17 -30 18l-21 1q-20 1 -37 -1l-1 -33q-1 -33 -1 -61l2 -86v-17q0 -14 12 -18l11 -4l-25 1q-26 1 -32.5 0t-22.5 -1q24 10 25 22l1 36q1 36 1 66t-1 62l-1 33q-79 7 -90 -18l-7 -17q2 29 -4 55q14 -4 25 -4l28 -1
q29 -1 63 -1z" />
  </font>
</defs>
</svg>
